{"glyphs":{"0":{"ha":892,"x_min":83,"x_max":808,"o":"m 446 -21 q 249 41 331 -21 q 126 217 168 103 q 83 485 83 331 q 177 856 83 721 q 446 992 271 992 q 642 930 561 992 q 766 753 724 868 q 808 485 808 639 q 766 217 808 331 q 642 41 724 103 q 446 -21 561 -21 m 446 13 q 619 69 546 13 q 733 233 693 126 q 772 485 772 340 q 733 736 772 629 q 621 901 694 843 q 446 958 547 958 q 271 901 344 958 q 158 736 197 843 q 119 485 119 629 q 159 233 119 340 q 272 69 199 126 q 446 13 346 13 z "},"1":{"ha":454,"x_min":83,"x_max":343,"o":"m 304 924 l 83 763 l 83 810 l 304 971 l 343 971 l 343 0 l 304 0 l 304 924 z "},"2":{"ha":793,"x_min":83,"x_max":710,"o":"m 83 33 l 349 310 q 506 479 454 419 q 594 608 558 539 q 631 747 631 676 q 569 902 631 846 q 383 958 508 958 q 258 940 315 958 q 138 874 200 921 l 138 915 q 250 974 193 956 q 383 992 307 992 q 592 928 518 992 q 667 747 667 864 q 633 606 667 675 q 541 467 599 536 q 382 292 483 397 l 135 33 l 710 33 l 710 0 l 83 0 l 83 33 z "},"3":{"ha":776,"x_min":83,"x_max":693,"o":"m 356 -21 q 211 -9 283 -21 q 83 25 139 3 l 83 64 q 213 25 142 38 q 357 13 285 13 q 657 249 657 13 q 574 422 657 365 q 336 479 492 479 l 243 479 l 243 513 l 336 513 q 544 572 463 513 q 625 739 625 632 q 563 901 625 843 q 378 958 500 958 q 244 942 303 958 q 115 882 185 925 l 115 918 q 378 992 229 992 q 588 924 514 992 q 661 739 661 857 q 606 585 661 649 q 443 497 551 522 q 626 422 558 488 q 693 249 693 357 q 612 51 693 124 q 356 -21 531 -21 z "},"4":{"ha":803,"x_min":56,"x_max":747,"o":"m 556 267 l 56 267 l 56 299 l 539 971 l 594 971 l 594 299 l 747 299 l 747 267 l 594 267 l 594 0 l 556 0 l 556 267 m 556 299 l 556 929 l 101 299 l 556 299 z "},"5":{"ha":764,"x_min":83,"x_max":681,"o":"m 321 -21 q 83 31 194 -21 l 83 71 q 198 27 135 42 q 324 13 261 13 q 560 88 475 13 q 644 300 644 163 q 568 487 644 419 q 350 554 492 554 q 241 544 296 554 q 142 517 186 535 l 110 536 l 144 971 l 607 971 l 607 938 l 178 938 l 147 554 q 354 588 247 588 q 596 511 511 588 q 681 300 681 435 q 590 63 681 147 q 321 -21 499 -21 z "},"6":{"ha":807,"x_min":83,"x_max":724,"o":"m 410 -21 q 246 22 319 -21 q 128 151 172 64 q 83 365 83 238 q 185 835 83 678 q 510 992 288 992 q 606 985 564 992 l 606 950 q 513 958 571 958 q 222 822 314 958 q 118 410 131 685 q 231 553 153 500 q 410 606 308 606 q 573 566 501 606 q 684 455 644 526 q 724 292 724 383 q 684 129 724 200 q 574 19 644 58 q 410 -21 503 -21 m 410 13 q 613 89 536 13 q 690 292 690 165 q 656 439 690 375 q 557 538 621 503 q 410 572 493 572 q 269 536 333 572 q 168 435 206 500 q 131 292 131 371 q 165 155 131 219 q 264 51 200 90 q 410 13 328 13 z "},"7":{"ha":761,"x_min":69,"x_max":692,"o":"m 656 938 l 69 938 l 69 971 l 692 971 l 692 931 l 278 0 l 239 0 l 656 938 z "},"8":{"ha":792,"x_min":83,"x_max":708,"o":"m 396 -21 q 166 50 249 -21 q 83 253 83 121 q 143 426 83 358 q 300 511 203 494 q 169 592 218 531 q 119 743 119 654 q 195 924 119 856 q 396 992 271 992 q 597 924 521 992 q 672 743 672 856 q 623 592 672 654 q 492 511 574 531 q 649 426 589 494 q 708 253 708 358 q 626 50 708 121 q 396 -21 543 -21 m 396 526 q 574 585 507 526 q 640 743 640 643 q 574 901 640 843 q 396 960 507 960 q 218 901 285 960 q 151 743 151 843 q 218 585 151 643 q 396 526 285 526 m 396 11 q 603 73 529 11 q 676 253 676 135 q 600 431 676 367 q 396 494 524 494 q 192 431 268 494 q 115 253 115 367 q 189 73 115 135 q 396 11 263 11 z "},"9":{"ha":807,"x_min":83,"x_max":724,"o":"m 297 -21 q 201 -14 243 -21 l 201 21 q 294 13 236 13 q 585 149 493 13 q 689 561 676 286 q 576 418 654 471 q 397 365 499 365 q 234 405 306 365 q 123 516 163 444 q 83 679 83 588 q 123 842 83 771 q 233 952 163 913 q 397 992 304 992 q 561 949 488 992 q 679 820 635 907 q 724 606 724 733 q 622 136 724 293 q 297 -21 519 -21 m 397 399 q 538 435 474 399 q 639 535 601 471 q 676 679 676 600 q 642 816 676 751 q 543 919 607 881 q 397 958 479 958 q 194 882 271 958 q 117 679 117 806 q 151 532 117 596 q 250 433 186 468 q 397 399 314 399 z "},"\r":{"ha":361,"x_min":0,"x_max":0,"o":""}," ":{"ha":556,"x_min":0,"x_max":0,"o":""},"A":{"ha":972,"x_min":83,"x_max":889,"o":"m 471 971 l 501 971 l 889 0 l 850 0 l 731 299 l 242 299 l 122 0 l 83 0 l 471 971 m 717 332 l 486 913 l 256 332 l 717 332 z "},"Á":{"ha":972,"x_min":83,"x_max":889,"o":"m 578 1299 l 617 1299 l 510 1067 l 479 1067 l 578 1299 m 471 971 l 501 971 l 889 0 l 850 0 l 731 299 l 242 299 l 122 0 l 83 0 l 471 971 m 717 332 l 486 913 l 256 332 l 717 332 z "},"Ă":{"ha":972,"x_min":83,"x_max":889,"o":"m 486 1069 q 368 1113 414 1069 q 322 1219 322 1156 l 356 1219 q 391 1135 356 1168 q 486 1101 426 1101 q 581 1135 546 1101 q 617 1219 617 1168 l 650 1219 q 604 1113 650 1156 q 486 1069 558 1069 m 471 971 l 501 971 l 889 0 l 850 0 l 731 299 l 242 299 l 122 0 l 83 0 l 471 971 m 717 332 l 486 913 l 256 332 l 717 332 z "},"Ắ":{"ha":972,"x_min":83,"x_max":889,"o":"m 524 1313 l 563 1313 l 479 1146 l 449 1146 l 524 1313 m 486 1043 q 368 1086 414 1043 q 322 1193 322 1129 l 356 1193 q 391 1108 356 1142 q 486 1075 426 1075 q 581 1108 546 1075 q 617 1193 617 1142 l 650 1193 q 604 1086 650 1129 q 486 1043 558 1043 m 471 971 l 501 971 l 889 0 l 850 0 l 731 299 l 242 299 l 122 0 l 83 0 l 471 971 m 717 332 l 486 913 l 256 332 l 717 332 z "},"Ặ":{"ha":972,"x_min":83,"x_max":889,"o":"m 486 1088 q 368 1131 414 1088 q 322 1238 322 1174 l 356 1238 q 391 1153 356 1186 q 486 1119 426 1119 q 581 1153 546 1119 q 617 1238 617 1186 l 650 1238 q 604 1131 650 1174 q 486 1088 558 1088 m 471 971 l 501 971 l 889 0 l 850 0 l 731 299 l 242 299 l 122 0 l 83 0 l 471 971 m 717 332 l 486 913 l 256 332 l 717 332 m 486 -168 q 459 -156 471 -168 q 447 -129 447 -144 q 459 -102 447 -114 q 486 -90 471 -90 q 513 -102 501 -90 q 525 -129 525 -114 q 513 -156 525 -144 q 486 -168 501 -168 z "},"Ằ":{"ha":972,"x_min":83,"x_max":889,"o":"m 410 1313 l 449 1313 l 524 1146 l 493 1146 l 410 1313 m 486 1043 q 368 1086 414 1043 q 322 1193 322 1129 l 356 1193 q 391 1108 356 1142 q 486 1075 426 1075 q 581 1108 546 1075 q 617 1193 617 1142 l 650 1193 q 604 1086 650 1129 q 486 1043 558 1043 m 471 971 l 501 971 l 889 0 l 850 0 l 731 299 l 242 299 l 122 0 l 83 0 l 471 971 m 717 332 l 486 913 l 256 332 l 717 332 z "},"Ẳ":{"ha":972,"x_min":83,"x_max":889,"o":"m 461 1193 q 533 1206 511 1193 q 554 1251 554 1219 q 538 1294 554 1282 q 490 1307 522 1307 q 453 1303 472 1307 q 422 1294 433 1300 l 422 1326 q 490 1338 453 1338 q 563 1315 539 1338 q 588 1251 588 1292 q 562 1192 588 1215 q 490 1168 536 1169 l 490 1124 l 461 1124 l 461 1193 m 486 1042 q 368 1085 414 1042 q 322 1192 322 1128 l 356 1192 q 391 1107 356 1140 q 486 1074 426 1074 q 581 1107 546 1074 q 617 1192 617 1140 l 650 1192 q 604 1085 650 1128 q 486 1042 558 1042 m 471 971 l 501 971 l 889 0 l 850 0 l 731 299 l 242 299 l 122 0 l 83 0 l 471 971 m 717 332 l 486 913 l 256 332 l 717 332 z "},"Ẵ":{"ha":972,"x_min":83,"x_max":889,"o":"m 585 1231 q 538 1239 561 1231 q 478 1265 514 1247 q 426 1287 447 1279 q 388 1294 406 1294 q 334 1281 356 1294 q 292 1232 313 1268 l 292 1274 q 328 1313 306 1300 q 388 1325 351 1325 q 431 1317 408 1325 q 489 1292 454 1308 q 546 1268 526 1275 q 585 1261 565 1261 q 639 1275 617 1261 q 681 1324 661 1289 l 681 1282 q 644 1243 667 1256 q 585 1231 621 1231 m 486 1042 q 368 1085 414 1042 q 322 1192 322 1128 l 356 1192 q 391 1107 356 1140 q 486 1074 426 1074 q 581 1107 546 1074 q 617 1192 617 1140 l 650 1192 q 604 1085 650 1128 q 486 1042 558 1042 m 471 971 l 501 971 l 889 0 l 850 0 l 731 299 l 242 299 l 122 0 l 83 0 l 471 971 m 717 332 l 486 913 l 256 332 l 717 332 z "},"Ǎ":{"ha":972,"x_min":83,"x_max":889,"o":"m 293 1299 l 336 1299 l 486 1119 l 636 1299 l 679 1299 l 501 1089 l 471 1089 l 293 1299 m 471 971 l 501 971 l 889 0 l 850 0 l 731 299 l 242 299 l 122 0 l 83 0 l 471 971 m 717 332 l 486 913 l 256 332 l 717 332 z "},"Â":{"ha":972,"x_min":83,"x_max":889,"o":"m 471 1285 l 501 1285 l 679 1075 l 636 1075 l 486 1254 l 336 1075 l 293 1075 l 471 1285 m 471 971 l 501 971 l 889 0 l 850 0 l 731 299 l 242 299 l 122 0 l 83 0 l 471 971 m 717 332 l 486 913 l 256 332 l 717 332 z "},"Ấ":{"ha":972,"x_min":83,"x_max":889,"o":"m 690 1303 l 729 1303 l 631 1153 l 600 1153 l 690 1303 m 471 1206 l 501 1206 l 679 1038 l 636 1038 l 486 1179 l 336 1038 l 293 1038 l 471 1206 m 471 971 l 501 971 l 889 0 l 850 0 l 731 299 l 242 299 l 122 0 l 83 0 l 471 971 m 717 332 l 486 913 l 256 332 l 717 332 z "},"Ậ":{"ha":972,"x_min":83,"x_max":889,"o":"m 471 1299 l 501 1299 l 679 1089 l 636 1089 l 486 1268 l 336 1089 l 293 1089 l 471 1299 m 471 971 l 501 971 l 889 0 l 850 0 l 731 299 l 242 299 l 122 0 l 83 0 l 471 971 m 717 332 l 486 913 l 256 332 l 717 332 m 486 -168 q 459 -156 471 -168 q 447 -129 447 -144 q 459 -102 447 -114 q 486 -90 471 -90 q 513 -102 501 -90 q 525 -129 525 -114 q 513 -156 525 -144 q 486 -168 501 -168 z "},"Ầ":{"ha":972,"x_min":83,"x_max":889,"o":"m 244 1303 l 283 1303 l 374 1153 l 343 1153 l 244 1303 m 472 1206 l 503 1206 l 681 1038 l 638 1038 l 488 1179 l 338 1038 l 294 1038 l 472 1206 m 471 971 l 501 971 l 889 0 l 850 0 l 731 299 l 242 299 l 122 0 l 83 0 l 471 971 m 717 332 l 486 913 l 256 332 l 717 332 z "},"Ẩ":{"ha":972,"x_min":83,"x_max":889,"o":"m 606 1201 q 677 1215 656 1201 q 699 1260 699 1228 q 683 1303 699 1290 q 635 1315 667 1315 q 597 1312 617 1315 q 567 1303 578 1308 l 567 1335 q 635 1346 597 1346 q 708 1323 683 1346 q 732 1260 732 1300 q 706 1201 732 1224 q 635 1176 681 1178 l 635 1139 l 606 1139 l 606 1201 m 474 1206 l 504 1206 l 682 1038 l 639 1038 l 489 1179 l 339 1038 l 296 1038 l 474 1206 m 471 971 l 501 971 l 889 0 l 850 0 l 731 299 l 242 299 l 122 0 l 83 0 l 471 971 m 717 332 l 486 913 l 256 332 l 717 332 z "},"Ẫ":{"ha":972,"x_min":83,"x_max":889,"o":"m 585 1224 q 538 1232 561 1224 q 478 1258 514 1240 q 426 1280 447 1272 q 388 1288 406 1288 q 334 1274 356 1288 q 292 1225 313 1261 l 292 1267 q 328 1306 306 1293 q 388 1318 351 1318 q 431 1310 408 1318 q 489 1285 454 1301 q 546 1261 526 1268 q 585 1254 565 1254 q 639 1268 617 1254 q 681 1317 661 1282 l 681 1275 q 644 1236 667 1249 q 585 1224 621 1224 m 471 1206 l 501 1206 l 679 1038 l 636 1038 l 486 1179 l 336 1038 l 293 1038 l 471 1206 m 471 971 l 501 971 l 889 0 l 850 0 l 731 299 l 242 299 l 122 0 l 83 0 l 471 971 m 717 332 l 486 913 l 256 332 l 717 332 z "},"Ä":{"ha":972,"x_min":83,"x_max":889,"o":"m 349 1081 q 322 1092 333 1081 q 310 1119 310 1104 q 322 1147 310 1135 q 349 1158 333 1158 q 376 1147 364 1158 q 388 1119 388 1135 q 376 1092 388 1104 q 349 1081 364 1081 m 624 1081 q 597 1092 608 1081 q 585 1119 585 1104 q 597 1147 585 1135 q 624 1158 608 1158 q 651 1147 639 1158 q 663 1119 663 1135 q 651 1092 663 1104 q 624 1081 639 1081 m 471 971 l 501 971 l 889 0 l 850 0 l 731 299 l 242 299 l 122 0 l 83 0 l 471 971 m 717 332 l 486 913 l 256 332 l 717 332 z "},"Ạ":{"ha":972,"x_min":83,"x_max":889,"o":"m 471 971 l 501 971 l 889 0 l 850 0 l 731 299 l 242 299 l 122 0 l 83 0 l 471 971 m 717 332 l 486 913 l 256 332 l 717 332 m 486 -168 q 459 -156 471 -168 q 447 -129 447 -144 q 459 -102 447 -114 q 486 -90 471 -90 q 513 -102 501 -90 q 525 -129 525 -114 q 513 -156 525 -144 q 486 -168 501 -168 z "},"À":{"ha":972,"x_min":83,"x_max":889,"o":"m 340 1299 l 379 1299 l 478 1067 l 447 1067 l 340 1299 m 471 971 l 501 971 l 889 0 l 850 0 l 731 299 l 242 299 l 122 0 l 83 0 l 471 971 m 717 332 l 486 913 l 256 332 l 717 332 z "},"Ả":{"ha":972,"x_min":83,"x_max":889,"o":"m 471 1121 q 572 1144 543 1121 q 601 1214 601 1167 q 494 1301 601 1301 q 453 1299 475 1301 q 418 1290 431 1296 l 418 1324 q 453 1331 431 1328 q 494 1335 475 1335 q 601 1302 564 1335 q 638 1215 638 1269 q 603 1130 638 1163 q 503 1094 568 1097 l 503 1033 l 471 1033 l 471 1121 m 471 971 l 501 971 l 889 0 l 850 0 l 731 299 l 242 299 l 122 0 l 83 0 l 471 971 m 717 332 l 486 913 l 256 332 l 717 332 z "},"Ā":{"ha":972,"x_min":83,"x_max":889,"o":"m 293 1179 l 679 1179 l 679 1146 l 293 1146 l 293 1179 m 471 971 l 501 971 l 889 0 l 850 0 l 731 299 l 242 299 l 122 0 l 83 0 l 471 971 m 717 332 l 486 913 l 256 332 l 717 332 z "},"Ą":{"ha":981,"x_min":83,"x_max":921,"o":"m 857 -253 q 921 -242 894 -253 l 921 -275 q 857 -286 896 -286 q 776 -257 810 -286 q 743 -174 743 -228 q 773 -76 743 -122 q 850 0 803 -31 l 731 299 l 242 299 l 122 0 l 83 0 l 471 971 l 501 971 l 889 0 q 779 -174 779 -85 q 801 -233 779 -212 q 857 -253 822 -253 m 717 332 l 486 913 l 256 332 l 717 332 z "},"Å":{"ha":972,"x_min":83,"x_max":889,"o":"m 460 944 q 388 988 417 953 q 360 1068 360 1022 q 397 1158 360 1121 q 486 1194 435 1194 q 576 1158 539 1194 q 613 1068 613 1121 q 583 988 613 1022 q 511 944 554 953 l 889 0 l 850 0 l 731 299 l 242 299 l 122 0 l 83 0 l 460 944 m 494 971 q 557 1002 532 974 q 582 1068 582 1031 q 554 1137 582 1108 q 486 1165 526 1165 q 418 1137 446 1165 q 390 1068 390 1108 q 416 1002 390 1031 q 478 971 442 974 l 494 971 m 717 332 l 486 913 l 256 332 l 717 332 z "},"Ǻ":{"ha":972,"x_min":83,"x_max":889,"o":"m 565 1426 l 604 1426 l 497 1242 l 467 1242 l 565 1426 m 460 944 q 388 988 417 953 q 360 1068 360 1022 q 397 1158 360 1121 q 486 1194 435 1194 q 576 1158 539 1194 q 613 1068 613 1121 q 583 988 613 1022 q 511 944 554 953 l 889 0 l 850 0 l 731 299 l 242 299 l 122 0 l 83 0 l 460 944 m 494 971 q 557 1002 532 974 q 582 1068 582 1031 q 554 1137 582 1108 q 486 1165 526 1165 q 418 1137 446 1165 q 390 1068 390 1108 q 416 1002 390 1031 q 478 971 442 974 l 494 971 m 717 332 l 486 913 l 256 332 l 717 332 z "},"Ã":{"ha":972,"x_min":83,"x_max":889,"o":"m 240 1138 q 365 1200 278 1200 q 423 1192 396 1200 q 489 1165 450 1183 q 551 1140 525 1149 q 607 1131 578 1131 q 676 1147 644 1131 q 732 1206 707 1164 l 732 1160 q 607 1097 694 1097 q 543 1106 572 1097 q 478 1133 514 1115 q 419 1158 443 1150 q 365 1167 394 1167 q 298 1150 328 1167 q 240 1092 268 1133 l 240 1138 m 471 971 l 501 971 l 889 0 l 850 0 l 731 299 l 242 299 l 122 0 l 83 0 l 471 971 m 717 332 l 486 913 l 256 332 l 717 332 z "},"Æ":{"ha":1274,"x_min":83,"x_max":1190,"o":"m 613 971 l 1190 971 l 1190 938 l 706 938 l 706 503 l 1057 503 l 1057 469 l 706 469 l 706 33 l 1190 33 l 1190 0 l 667 0 l 667 299 l 285 299 l 122 0 l 83 0 l 613 971 m 667 332 l 667 938 l 633 938 l 303 332 l 667 332 z "},"Ǽ":{"ha":1274,"x_min":83,"x_max":1190,"o":"m 782 1321 l 821 1321 l 714 1089 l 683 1089 l 782 1321 m 613 971 l 1190 971 l 1190 938 l 706 938 l 706 503 l 1057 503 l 1057 469 l 706 469 l 706 33 l 1190 33 l 1190 0 l 667 0 l 667 299 l 285 299 l 122 0 l 83 0 l 613 971 m 667 332 l 667 938 l 633 938 l 303 332 l 667 332 z "},"B":{"ha":868,"x_min":111,"x_max":785,"o":"m 111 971 l 511 971 q 691 910 632 971 q 750 724 750 850 q 709 582 750 642 q 607 497 668 522 q 737 419 689 481 q 785 256 785 357 q 752 119 785 176 q 663 31 719 61 q 536 0 606 0 l 111 0 l 111 971 m 532 514 q 621 539 579 514 q 688 611 663 564 q 714 724 714 658 q 662 890 714 842 q 517 938 610 938 l 150 938 l 150 514 l 532 514 m 536 33 q 689 88 629 33 q 749 256 749 142 q 686 425 749 369 q 517 481 624 481 l 150 481 l 150 33 l 536 33 z "},"C":{"ha":1011,"x_min":83,"x_max":928,"o":"m 585 -21 q 328 42 443 -21 q 149 221 214 106 q 83 485 83 336 q 149 749 83 633 q 328 928 214 864 q 585 992 443 992 q 915 878 785 992 l 915 836 q 767 928 851 899 q 585 958 682 958 q 348 900 454 958 q 181 734 242 842 q 119 485 119 626 q 182 235 119 343 q 351 70 244 128 q 585 13 457 13 q 776 42 692 13 q 928 142 860 72 l 928 100 q 585 -21 807 -21 z "},"Ć":{"ha":1011,"x_min":83,"x_max":928,"o":"m 625 1332 l 664 1332 l 557 1100 l 526 1100 l 625 1332 m 585 -21 q 328 42 443 -21 q 149 221 214 106 q 83 485 83 336 q 149 749 83 633 q 328 928 214 864 q 585 992 443 992 q 915 878 785 992 l 915 836 q 767 928 851 899 q 585 958 682 958 q 348 900 454 958 q 181 734 242 842 q 119 485 119 626 q 182 235 119 343 q 351 70 244 128 q 585 13 457 13 q 776 42 692 13 q 928 142 860 72 l 928 100 q 585 -21 807 -21 z "},"Č":{"ha":1011,"x_min":83,"x_max":928,"o":"m 386 1318 l 429 1318 l 579 1139 l 729 1318 l 772 1318 l 594 1108 l 564 1108 l 386 1318 m 585 -21 q 328 42 443 -21 q 149 221 214 106 q 83 485 83 336 q 149 749 83 633 q 328 928 214 864 q 585 992 443 992 q 915 878 785 992 l 915 836 q 767 928 851 899 q 585 958 682 958 q 348 900 454 958 q 181 734 242 842 q 119 485 119 626 q 182 235 119 343 q 351 70 244 128 q 585 13 457 13 q 776 42 692 13 q 928 142 860 72 l 928 100 q 585 -21 807 -21 z "},"Ç":{"ha":1011,"x_min":83,"x_max":928,"o":"m 928 100 q 611 -21 814 -14 l 579 -103 q 680 -139 646 -106 q 714 -225 714 -172 q 677 -312 714 -279 q 571 -344 640 -344 q 529 -341 551 -344 q 494 -333 507 -337 l 494 -300 q 529 -308 507 -306 q 571 -311 551 -311 q 678 -224 678 -311 q 645 -152 678 -175 q 531 -129 613 -129 l 572 -21 q 322 46 433 -18 q 147 224 211 110 q 83 485 83 339 q 149 749 83 633 q 328 928 214 864 q 585 992 443 992 q 915 878 785 992 l 915 836 q 767 928 851 899 q 585 958 682 958 q 348 900 454 958 q 181 734 242 842 q 119 485 119 626 q 182 235 119 343 q 351 70 244 128 q 585 13 457 13 q 776 42 692 13 q 928 142 860 72 l 928 100 z "},"Ĉ":{"ha":1011,"x_min":83,"x_max":928,"o":"m 558 1301 l 589 1301 l 767 1092 l 724 1092 l 574 1271 l 424 1092 l 381 1092 l 558 1301 m 585 -21 q 328 42 443 -21 q 149 221 214 106 q 83 485 83 336 q 149 749 83 633 q 328 928 214 864 q 585 992 443 992 q 915 878 785 992 l 915 836 q 767 928 851 899 q 585 958 682 958 q 348 900 454 958 q 181 734 242 842 q 119 485 119 626 q 182 235 119 343 q 351 70 244 128 q 585 13 457 13 q 776 42 692 13 q 928 142 860 72 l 928 100 q 585 -21 807 -21 z "},"Ċ":{"ha":1011,"x_min":83,"x_max":928,"o":"m 589 1114 q 562 1126 574 1114 q 550 1153 550 1138 q 562 1180 550 1168 q 589 1192 574 1192 q 616 1180 604 1192 q 628 1153 628 1168 q 616 1126 628 1138 q 589 1114 604 1114 m 585 -21 q 328 42 443 -21 q 149 221 214 106 q 83 485 83 336 q 149 749 83 633 q 328 928 214 864 q 585 992 443 992 q 915 878 785 992 l 915 836 q 767 928 851 899 q 585 958 682 958 q 348 900 454 958 q 181 734 242 842 q 119 485 119 626 q 182 235 119 343 q 351 70 244 128 q 585 13 457 13 q 776 42 692 13 q 928 142 860 72 l 928 100 q 585 -21 807 -21 z "},"D":{"ha":967,"x_min":111,"x_max":883,"o":"m 111 971 l 388 971 q 653 913 542 971 q 824 746 765 854 q 883 490 883 638 q 746 124 883 249 q 357 0 608 0 l 111 0 l 111 971 m 342 33 q 847 490 847 33 q 724 820 847 703 q 378 938 601 938 l 150 938 l 150 33 l 342 33 z "},"Ð":{"ha":993,"x_min":56,"x_max":938,"o":"m 165 468 l 56 468 l 56 501 l 165 501 l 165 971 l 442 971 q 708 913 596 971 q 878 746 819 854 q 938 490 938 638 q 800 124 938 249 q 411 0 663 0 l 165 0 l 165 468 m 396 33 q 901 490 901 33 q 778 820 901 703 q 432 938 656 938 l 204 938 l 204 501 l 518 501 l 518 468 l 204 468 l 204 33 l 396 33 z "},"Ď":{"ha":967,"x_min":111,"x_max":883,"o":"m 200 1318 l 243 1318 l 393 1139 l 543 1318 l 586 1318 l 408 1108 l 378 1108 l 200 1318 m 111 971 l 388 971 q 653 913 542 971 q 824 746 765 854 q 883 490 883 638 q 746 124 883 249 q 357 0 608 0 l 111 0 l 111 971 m 342 33 q 847 490 847 33 q 724 820 847 703 q 378 938 601 938 l 150 938 l 150 33 l 342 33 z "},"Đ":{"ha":1007,"x_min":42,"x_max":924,"o":"m 151 468 l 42 468 l 42 501 l 151 501 l 151 971 l 428 971 q 694 913 582 971 q 865 746 806 854 q 924 490 924 638 q 786 124 924 249 q 397 0 649 0 l 151 0 l 151 468 m 382 33 q 888 490 888 33 q 765 820 888 703 q 418 938 642 938 l 190 938 l 190 501 l 504 501 l 504 468 l 190 468 l 190 33 l 382 33 z "},"Ḍ":{"ha":967,"x_min":111,"x_max":883,"o":"m 111 971 l 388 971 q 653 913 542 971 q 824 746 765 854 q 883 490 883 638 q 746 124 883 249 q 357 0 608 0 l 111 0 l 111 971 m 342 33 q 847 490 847 33 q 724 820 847 703 q 378 938 601 938 l 150 938 l 150 33 l 342 33 m 381 -168 q 353 -156 365 -168 q 342 -129 342 -144 q 353 -102 342 -114 q 381 -90 365 -90 q 408 -102 396 -90 q 419 -129 419 -114 q 408 -156 419 -144 q 381 -168 396 -168 z "},"Ḏ":{"ha":967,"x_min":111,"x_max":883,"o":"m 111 971 l 388 971 q 653 913 542 971 q 824 746 765 854 q 883 490 883 638 q 746 124 883 249 q 357 0 608 0 l 111 0 l 111 971 m 342 33 q 847 490 847 33 q 724 820 847 703 q 378 938 601 938 l 150 938 l 150 33 l 342 33 m 160 -119 l 546 -119 l 546 -153 l 160 -153 l 160 -119 z "},"E":{"ha":788,"x_min":111,"x_max":704,"o":"m 111 971 l 704 971 l 704 938 l 150 938 l 150 503 l 571 503 l 571 469 l 150 469 l 150 33 l 704 33 l 704 0 l 111 0 l 111 971 z "},"É":{"ha":788,"x_min":111,"x_max":704,"o":"m 433 1332 l 472 1332 l 365 1100 l 335 1100 l 433 1332 m 111 971 l 704 971 l 704 938 l 150 938 l 150 503 l 571 503 l 571 469 l 150 469 l 150 33 l 704 33 l 704 0 l 111 0 l 111 971 z "},"Ĕ":{"ha":788,"x_min":111,"x_max":704,"o":"m 393 1069 q 275 1113 321 1069 q 229 1219 229 1156 l 263 1219 q 298 1135 263 1168 q 393 1101 333 1101 q 488 1135 453 1101 q 524 1219 524 1168 l 557 1219 q 511 1113 557 1156 q 393 1069 465 1069 m 111 971 l 704 971 l 704 938 l 150 938 l 150 503 l 571 503 l 571 469 l 150 469 l 150 33 l 704 33 l 704 0 l 111 0 l 111 971 z "},"Ě":{"ha":788,"x_min":111,"x_max":704,"o":"m 186 1318 l 229 1318 l 379 1139 l 529 1318 l 572 1318 l 394 1108 l 364 1108 l 186 1318 m 111 971 l 704 971 l 704 938 l 150 938 l 150 503 l 571 503 l 571 469 l 150 469 l 150 33 l 704 33 l 704 0 l 111 0 l 111 971 z "},"Ê":{"ha":788,"x_min":111,"x_max":704,"o":"m 389 1285 l 419 1285 l 597 1075 l 554 1075 l 404 1254 l 254 1075 l 211 1075 l 389 1285 m 111 971 l 704 971 l 704 938 l 150 938 l 150 503 l 571 503 l 571 469 l 150 469 l 150 33 l 704 33 l 704 0 l 111 0 l 111 971 z "},"Ế":{"ha":788,"x_min":111,"x_max":704,"o":"m 586 1317 l 625 1317 l 526 1167 l 496 1167 l 586 1317 m 367 1219 l 397 1219 l 575 1051 l 532 1051 l 382 1193 l 232 1051 l 189 1051 l 367 1219 m 111 971 l 704 971 l 704 938 l 150 938 l 150 503 l 571 503 l 571 469 l 150 469 l 150 33 l 704 33 l 704 0 l 111 0 l 111 971 z "},"Ệ":{"ha":788,"x_min":111,"x_max":704,"o":"m 378 1299 l 408 1299 l 586 1089 l 543 1089 l 393 1268 l 243 1089 l 200 1089 l 378 1299 m 111 971 l 704 971 l 704 938 l 150 938 l 150 503 l 571 503 l 571 469 l 150 469 l 150 33 l 704 33 l 704 0 l 111 0 l 111 971 m 393 -168 q 366 -156 378 -168 q 354 -129 354 -144 q 366 -102 354 -114 q 393 -90 378 -90 q 420 -102 408 -90 q 432 -129 432 -114 q 420 -156 432 -144 q 393 -168 408 -168 z "},"Ề":{"ha":788,"x_min":111,"x_max":704,"o":"m 165 1317 l 204 1317 l 294 1167 l 264 1167 l 165 1317 m 393 1219 l 424 1219 l 601 1051 l 558 1051 l 408 1193 l 258 1051 l 215 1051 l 393 1219 m 111 971 l 704 971 l 704 938 l 150 938 l 150 503 l 571 503 l 571 469 l 150 469 l 150 33 l 704 33 l 704 0 l 111 0 l 111 971 z "},"Ể":{"ha":788,"x_min":111,"x_max":704,"o":"m 514 1215 q 585 1228 564 1215 q 607 1274 607 1242 q 591 1317 607 1304 q 543 1329 575 1329 q 506 1326 525 1329 q 475 1317 486 1322 l 475 1349 q 543 1360 506 1360 q 616 1337 592 1360 q 640 1274 640 1314 q 615 1215 640 1238 q 543 1190 589 1192 l 543 1153 l 514 1153 l 514 1215 m 382 1219 l 413 1219 l 590 1051 l 547 1051 l 397 1193 l 247 1051 l 204 1051 l 382 1219 m 111 971 l 704 971 l 704 938 l 150 938 l 150 503 l 571 503 l 571 469 l 150 469 l 150 33 l 704 33 l 704 0 l 111 0 l 111 971 z "},"Ễ":{"ha":788,"x_min":111,"x_max":704,"o":"m 497 1238 q 450 1246 474 1238 q 390 1272 426 1254 q 339 1294 360 1286 q 300 1301 318 1301 q 247 1288 268 1301 q 204 1239 225 1275 l 204 1281 q 241 1319 218 1307 q 300 1332 264 1332 q 344 1324 321 1332 q 401 1299 367 1315 q 458 1275 439 1282 q 497 1268 478 1268 q 551 1282 529 1268 q 593 1331 574 1296 l 593 1289 q 556 1250 579 1263 q 497 1238 533 1238 m 383 1219 l 414 1219 l 592 1051 l 549 1051 l 399 1193 l 249 1051 l 206 1051 l 383 1219 m 111 971 l 704 971 l 704 938 l 150 938 l 150 503 l 571 503 l 571 469 l 150 469 l 150 33 l 704 33 l 704 0 l 111 0 l 111 971 z "},"Ë":{"ha":788,"x_min":111,"x_max":704,"o":"m 243 1114 q 216 1126 228 1114 q 204 1153 204 1138 q 216 1180 204 1168 q 243 1192 228 1192 q 270 1180 258 1192 q 282 1153 282 1168 q 270 1126 282 1138 q 243 1114 258 1114 m 518 1114 q 491 1126 503 1114 q 479 1153 479 1138 q 491 1180 479 1168 q 518 1192 503 1192 q 545 1180 533 1192 q 557 1153 557 1168 q 545 1126 557 1138 q 518 1114 533 1114 m 111 971 l 704 971 l 704 938 l 150 938 l 150 503 l 571 503 l 571 469 l 150 469 l 150 33 l 704 33 l 704 0 l 111 0 l 111 971 z "},"Ė":{"ha":788,"x_min":111,"x_max":704,"o":"m 379 1114 q 352 1126 364 1114 q 340 1153 340 1138 q 352 1180 340 1168 q 379 1192 364 1192 q 406 1180 394 1192 q 418 1153 418 1168 q 406 1126 418 1138 q 379 1114 394 1114 m 111 971 l 704 971 l 704 938 l 150 938 l 150 503 l 571 503 l 571 469 l 150 469 l 150 33 l 704 33 l 704 0 l 111 0 l 111 971 z "},"Ẹ":{"ha":788,"x_min":111,"x_max":704,"o":"m 111 971 l 704 971 l 704 938 l 150 938 l 150 503 l 571 503 l 571 469 l 150 469 l 150 33 l 704 33 l 704 0 l 111 0 l 111 971 m 369 -168 q 342 -156 354 -168 q 331 -129 331 -144 q 342 -102 331 -114 q 369 -90 354 -90 q 397 -102 385 -90 q 408 -129 408 -114 q 397 -156 408 -144 q 369 -168 385 -168 z "},"È":{"ha":788,"x_min":111,"x_max":704,"o":"m 281 1332 l 319 1332 l 418 1100 l 388 1100 l 281 1332 m 111 971 l 704 971 l 704 938 l 150 938 l 150 503 l 571 503 l 571 469 l 150 469 l 150 33 l 704 33 l 704 0 l 111 0 l 111 971 z "},"Ẻ":{"ha":788,"x_min":111,"x_max":704,"o":"m 353 1176 q 454 1199 425 1176 q 483 1269 483 1222 q 376 1357 483 1357 q 335 1354 357 1357 q 300 1346 313 1351 l 300 1379 q 335 1387 313 1383 q 376 1390 357 1390 q 483 1358 446 1390 q 519 1271 519 1325 q 485 1185 519 1218 q 385 1150 450 1153 l 385 1089 l 353 1089 l 353 1176 m 111 971 l 704 971 l 704 938 l 150 938 l 150 503 l 571 503 l 571 469 l 150 469 l 150 33 l 704 33 l 704 0 l 111 0 l 111 971 z "},"Ē":{"ha":788,"x_min":111,"x_max":704,"o":"m 208 1179 l 594 1179 l 594 1146 l 208 1146 l 208 1179 m 111 971 l 704 971 l 704 938 l 150 938 l 150 503 l 571 503 l 571 469 l 150 469 l 150 33 l 704 33 l 704 0 l 111 0 l 111 971 z "},"Ę":{"ha":788,"x_min":111,"x_max":704,"o":"m 150 938 l 150 503 l 571 503 l 571 469 l 150 469 l 150 33 l 704 33 l 704 0 l 642 0 q 532 -174 532 -85 q 553 -233 532 -212 q 610 -253 575 -253 q 674 -242 647 -253 l 674 -275 q 610 -286 649 -286 q 529 -257 563 -286 q 496 -174 496 -228 q 526 -76 496 -122 q 603 0 556 -31 l 111 0 l 111 971 l 704 971 l 704 938 l 150 938 z "},"Ẽ":{"ha":788,"x_min":111,"x_max":704,"o":"m 133 1135 q 258 1197 171 1197 q 316 1189 289 1197 q 382 1163 343 1181 q 444 1137 418 1146 q 500 1128 471 1128 q 569 1144 538 1128 q 625 1203 600 1161 l 625 1157 q 500 1094 588 1094 q 436 1103 465 1094 q 371 1131 407 1113 q 312 1156 336 1147 q 258 1164 288 1164 q 191 1147 221 1164 q 133 1089 161 1131 l 133 1135 m 111 971 l 704 971 l 704 938 l 150 938 l 150 503 l 571 503 l 571 469 l 150 469 l 150 33 l 704 33 l 704 0 l 111 0 l 111 971 z "},"F":{"ha":760,"x_min":111,"x_max":704,"o":"m 111 971 l 704 971 l 704 938 l 150 938 l 150 503 l 571 503 l 571 469 l 150 469 l 150 0 l 111 0 l 111 971 z "},"G":{"ha":1011,"x_min":83,"x_max":928,"o":"m 585 -21 q 328 42 443 -21 q 149 221 214 106 q 83 485 83 336 q 149 749 83 633 q 328 928 214 864 q 585 992 443 992 q 914 882 789 992 l 914 840 q 585 958 792 958 q 348 900 454 958 q 181 734 242 842 q 119 485 119 626 q 182 235 119 343 q 351 70 244 128 q 585 13 457 13 q 752 35 679 13 q 889 107 825 57 l 889 471 l 643 471 l 643 504 l 928 504 l 928 100 q 585 -21 807 -21 z "},"Ğ":{"ha":1011,"x_min":83,"x_max":928,"o":"m 563 1036 q 444 1079 490 1036 q 399 1186 399 1122 l 432 1186 q 467 1101 432 1135 q 563 1068 503 1068 q 658 1101 622 1068 q 693 1186 693 1135 l 726 1186 q 681 1079 726 1122 q 563 1036 635 1036 m 585 -21 q 328 42 443 -21 q 149 221 214 106 q 83 485 83 336 q 149 749 83 633 q 328 928 214 864 q 585 992 443 992 q 914 882 789 992 l 914 840 q 585 958 792 958 q 348 900 454 958 q 181 734 242 842 q 119 485 119 626 q 182 235 119 343 q 351 70 244 128 q 585 13 457 13 q 752 35 679 13 q 889 107 825 57 l 889 471 l 643 471 l 643 504 l 928 504 l 928 100 q 585 -21 807 -21 z "},"Ǧ":{"ha":1011,"x_min":83,"x_max":928,"o":"m 388 1299 l 431 1299 l 581 1119 l 731 1299 l 774 1299 l 596 1089 l 565 1089 l 388 1299 m 585 -21 q 328 42 443 -21 q 149 221 214 106 q 83 485 83 336 q 149 749 83 633 q 328 928 214 864 q 585 992 443 992 q 914 882 789 992 l 914 840 q 585 958 792 958 q 348 900 454 958 q 181 734 242 842 q 119 485 119 626 q 182 235 119 343 q 351 70 244 128 q 585 13 457 13 q 752 35 679 13 q 889 107 825 57 l 889 471 l 643 471 l 643 504 l 928 504 l 928 100 q 585 -21 807 -21 z "},"Ĝ":{"ha":1011,"x_min":83,"x_max":928,"o":"m 561 1285 l 592 1285 l 769 1075 l 726 1075 l 576 1254 l 426 1075 l 383 1075 l 561 1285 m 585 -21 q 328 42 443 -21 q 149 221 214 106 q 83 485 83 336 q 149 749 83 633 q 328 928 214 864 q 585 992 443 992 q 914 882 789 992 l 914 840 q 585 958 792 958 q 348 900 454 958 q 181 734 242 842 q 119 485 119 626 q 182 235 119 343 q 351 70 244 128 q 585 13 457 13 q 752 35 679 13 q 889 107 825 57 l 889 471 l 643 471 l 643 504 l 928 504 l 928 100 q 585 -21 807 -21 z "},"Ģ":{"ha":1011,"x_min":83,"x_max":928,"o":"m 585 -21 q 328 42 443 -21 q 149 221 214 106 q 83 485 83 336 q 149 749 83 633 q 328 928 214 864 q 585 992 443 992 q 914 882 789 992 l 914 840 q 585 958 792 958 q 348 900 454 958 q 181 734 242 842 q 119 485 119 626 q 182 235 119 343 q 351 70 244 128 q 585 13 457 13 q 752 35 679 13 q 889 107 825 57 l 889 471 l 643 471 l 643 504 l 928 504 l 928 100 q 585 -21 807 -21 m 564 -97 l 607 -97 l 489 -360 l 454 -360 l 564 -97 z "},"Ġ":{"ha":1011,"x_min":83,"x_max":928,"o":"m 576 1060 q 549 1072 561 1060 q 538 1099 538 1083 q 549 1126 538 1114 q 576 1138 561 1138 q 603 1126 592 1138 q 615 1099 615 1114 q 603 1072 615 1083 q 576 1060 592 1060 m 585 -21 q 328 42 443 -21 q 149 221 214 106 q 83 485 83 336 q 149 749 83 633 q 328 928 214 864 q 585 992 443 992 q 914 882 789 992 l 914 840 q 585 958 792 958 q 348 900 454 958 q 181 734 242 842 q 119 485 119 626 q 182 235 119 343 q 351 70 244 128 q 585 13 457 13 q 752 35 679 13 q 889 107 825 57 l 889 471 l 643 471 l 643 504 l 928 504 l 928 100 q 585 -21 807 -21 z "},"Ḡ":{"ha":1011,"x_min":83,"x_max":928,"o":"m 407 1163 l 793 1163 l 793 1129 l 407 1129 l 407 1163 m 585 -21 q 328 42 443 -21 q 149 221 214 106 q 83 485 83 336 q 149 749 83 633 q 328 928 214 864 q 585 992 443 992 q 914 882 789 992 l 914 840 q 585 958 792 958 q 348 900 454 958 q 181 734 242 842 q 119 485 119 626 q 182 235 119 343 q 351 70 244 128 q 585 13 457 13 q 752 35 679 13 q 889 107 825 57 l 889 471 l 643 471 l 643 504 l 928 504 l 928 100 q 585 -21 807 -21 z "},"H":{"ha":933,"x_min":111,"x_max":822,"o":"m 111 971 l 150 971 l 150 513 l 783 513 l 783 971 l 822 971 l 822 0 l 783 0 l 783 479 l 150 479 l 150 0 l 111 0 l 111 971 z "},"Ħ":{"ha":978,"x_min":56,"x_max":922,"o":"m 124 721 l 56 721 l 56 754 l 124 754 l 124 971 l 163 971 l 163 754 l 796 754 l 796 971 l 835 971 l 835 754 l 922 754 l 922 721 l 835 721 l 835 0 l 796 0 l 796 479 l 163 479 l 163 0 l 124 0 l 124 721 m 796 513 l 796 721 l 163 721 l 163 513 l 796 513 z "},"Ḫ":{"ha":933,"x_min":111,"x_max":822,"o":"m 111 971 l 150 971 l 150 513 l 783 513 l 783 971 l 822 971 l 822 0 l 783 0 l 783 479 l 150 479 l 150 0 l 111 0 l 111 971 m 476 -243 q 358 -200 404 -243 q 313 -93 313 -157 l 346 -93 q 381 -178 346 -144 q 476 -211 417 -211 q 572 -178 536 -211 q 607 -93 607 -144 l 640 -93 q 594 -200 640 -157 q 476 -243 549 -243 z "},"Ĥ":{"ha":933,"x_min":111,"x_max":822,"o":"m 451 1318 l 482 1318 l 660 1108 l 617 1108 l 467 1288 l 317 1108 l 274 1108 l 451 1318 m 111 971 l 150 971 l 150 513 l 783 513 l 783 971 l 822 971 l 822 0 l 783 0 l 783 479 l 150 479 l 150 0 l 111 0 l 111 971 z "},"Ḥ":{"ha":933,"x_min":111,"x_max":822,"o":"m 111 971 l 150 971 l 150 513 l 783 513 l 783 971 l 822 971 l 822 0 l 783 0 l 783 479 l 150 479 l 150 0 l 111 0 l 111 971 m 467 -168 q 440 -156 451 -168 q 428 -129 428 -144 q 440 -102 428 -114 q 467 -90 451 -90 q 494 -102 482 -90 q 506 -129 506 -114 q 494 -156 506 -144 q 467 -168 482 -168 z "},"I":{"ha":261,"x_min":111,"x_max":150,"o":"m 111 971 l 150 971 l 150 0 l 111 0 l 111 971 z "},"Ĳ":{"ha":769,"x_min":111,"x_max":665,"o":"m 111 971 l 150 971 l 150 0 l 111 0 l 111 971 m 465 -21 q 342 -6 396 -21 l 342 28 q 397 16 363 21 q 456 11 431 11 q 583 53 539 11 q 626 178 626 94 l 626 971 l 665 971 l 665 178 q 608 29 665 79 q 465 -21 551 -21 z "},"Í":{"ha":261,"x_min":111,"x_max":254,"o":"m 215 1299 l 254 1299 l 147 1067 l 117 1067 l 215 1299 m 111 971 l 150 971 l 150 0 l 111 0 l 111 971 z "},"Ĭ":{"ha":261,"x_min":-33,"x_max":294,"o":"m 131 1079 q 13 1122 58 1079 q -33 1229 -33 1165 l 0 1229 q 35 1144 0 1178 q 131 1111 71 1111 q 226 1144 190 1111 q 261 1229 261 1178 l 294 1229 q 249 1122 294 1165 q 131 1079 203 1079 m 111 971 l 150 971 l 150 0 l 111 0 l 111 971 z "},"Ǐ":{"ha":261,"x_min":-62,"x_max":324,"o":"m -62 1299 l -19 1299 l 131 1119 l 281 1299 l 324 1299 l 146 1089 l 115 1089 l -62 1299 m 111 971 l 150 971 l 150 0 l 111 0 l 111 971 z "},"Î":{"ha":261,"x_min":-62,"x_max":324,"o":"m 115 1285 l 146 1285 l 324 1075 l 281 1075 l 131 1254 l -19 1075 l -62 1075 l 115 1285 m 111 971 l 150 971 l 150 0 l 111 0 l 111 971 z "},"Ï":{"ha":261,"x_min":-46,"x_max":307,"o":"m -7 1114 q -34 1126 -22 1114 q -46 1153 -46 1138 q -34 1180 -46 1168 q -7 1192 -22 1192 q 20 1180 8 1192 q 32 1153 32 1168 q 20 1126 32 1138 q -7 1114 8 1114 m 268 1114 q 241 1126 253 1114 q 229 1153 229 1138 q 241 1180 229 1168 q 268 1192 253 1192 q 295 1180 283 1192 q 307 1153 307 1168 q 295 1126 307 1138 q 268 1114 283 1114 m 111 971 l 150 971 l 150 0 l 111 0 l 111 971 z "},"İ":{"ha":261,"x_min":92,"x_max":169,"o":"m 131 1060 q 103 1072 115 1060 q 92 1099 92 1083 q 103 1126 92 1114 q 131 1138 115 1138 q 158 1126 146 1138 q 169 1099 169 1114 q 158 1072 169 1083 q 131 1060 146 1060 m 111 971 l 150 971 l 150 0 l 111 0 l 111 971 z "},"Ị":{"ha":261,"x_min":92,"x_max":169,"o":"m 111 971 l 150 971 l 150 0 l 111 0 l 111 971 m 131 -168 q 103 -156 115 -168 q 92 -129 92 -144 q 103 -102 92 -114 q 131 -90 115 -90 q 158 -102 146 -90 q 169 -129 169 -114 q 158 -156 169 -144 q 131 -168 146 -168 z "},"Ì":{"ha":261,"x_min":13,"x_max":150,"o":"m 13 1332 l 51 1332 l 150 1100 l 119 1100 l 13 1332 m 111 971 l 150 971 l 150 0 l 111 0 l 111 971 z "},"Ỉ":{"ha":261,"x_min":63,"x_max":282,"o":"m 115 1176 q 217 1199 188 1176 q 246 1269 246 1222 q 139 1357 246 1357 q 97 1354 119 1357 q 63 1346 75 1351 l 63 1379 q 97 1387 75 1383 q 139 1390 119 1390 q 245 1358 208 1390 q 282 1271 282 1325 q 247 1185 282 1218 q 147 1150 213 1153 l 147 1089 l 115 1089 l 115 1176 m 111 971 l 150 971 l 150 0 l 111 0 l 111 971 z "},"Ī":{"ha":261,"x_min":-62,"x_max":324,"o":"m -62 1096 l 324 1096 l 324 1063 l -62 1063 l -62 1096 m 111 971 l 150 971 l 150 0 l 111 0 l 111 971 z "},"Į":{"ha":261,"x_min":4,"x_max":182,"o":"m 118 -253 q 182 -242 156 -253 l 182 -275 q 118 -286 157 -286 q 38 -257 71 -286 q 4 -174 4 -228 q 34 -76 4 -122 q 111 0 64 -31 l 111 971 l 150 971 l 150 0 q 40 -174 40 -85 q 62 -233 40 -212 q 118 -253 83 -253 z "},"Ĩ":{"ha":261,"x_min":-115,"x_max":376,"o":"m -115 1138 q 10 1200 -78 1200 q 67 1192 40 1200 q 133 1165 94 1183 q 195 1140 169 1149 q 251 1131 221 1131 q 320 1147 289 1131 q 376 1206 351 1164 l 376 1160 q 251 1097 339 1097 q 188 1106 217 1097 q 122 1133 158 1115 q 63 1158 88 1150 q 10 1167 39 1167 q -58 1150 -28 1167 q -115 1092 -87 1133 l -115 1138 m 111 971 l 150 971 l 150 0 l 111 0 l 111 971 z "},"J":{"ha":483,"x_min":56,"x_max":379,"o":"m 179 -21 q 56 -6 110 -21 l 56 28 q 110 16 76 21 q 169 11 144 11 q 297 53 253 11 q 340 178 340 94 l 340 971 l 379 971 l 379 178 q 322 29 379 79 q 179 -21 265 -21 z "},"Ĵ":{"ha":483,"x_min":56,"x_max":553,"o":"m 344 1285 l 375 1285 l 553 1075 l 510 1075 l 360 1254 l 210 1075 l 167 1075 l 344 1285 m 179 -21 q 56 -6 110 -21 l 56 28 q 110 16 76 21 q 169 11 144 11 q 297 53 253 11 q 340 178 340 94 l 340 971 l 379 971 l 379 178 q 322 29 379 79 q 179 -21 265 -21 z "},"K":{"ha":818,"x_min":111,"x_max":735,"o":"m 111 971 l 150 971 l 150 494 l 650 971 l 704 971 l 199 490 l 735 0 l 681 0 l 150 486 l 150 0 l 111 0 l 111 971 z "},"Ķ":{"ha":818,"x_min":111,"x_max":735,"o":"m 111 971 l 150 971 l 150 494 l 650 971 l 704 971 l 199 490 l 735 0 l 681 0 l 150 486 l 150 0 l 111 0 l 111 971 m 360 -97 l 403 -97 l 285 -360 l 250 -360 l 360 -97 z "},"L":{"ha":760,"x_min":111,"x_max":704,"o":"m 111 971 l 150 971 l 150 33 l 704 33 l 704 0 l 111 0 l 111 971 z "},"Ĺ":{"ha":760,"x_min":111,"x_max":704,"o":"m 215 1299 l 254 1299 l 147 1067 l 117 1067 l 215 1299 m 111 971 l 150 971 l 150 33 l 704 33 l 704 0 l 111 0 l 111 971 z "},"Ľ":{"ha":760,"x_min":111,"x_max":704,"o":"m 111 971 l 150 971 l 150 33 l 704 33 l 704 0 l 111 0 l 111 971 m 440 963 l 483 963 l 365 700 l 331 700 l 440 963 z "},"Ļ":{"ha":760,"x_min":111,"x_max":704,"o":"m 111 971 l 150 971 l 150 33 l 704 33 l 704 0 l 111 0 l 111 971 m 390 -97 l 433 -97 l 315 -360 l 281 -360 l 390 -97 z "},"Ŀ":{"ha":760,"x_min":111,"x_max":704,"o":"m 111 971 l 150 971 l 150 33 l 704 33 l 704 0 l 111 0 l 111 971 m 442 478 q 415 490 426 478 q 403 517 403 501 q 415 544 403 532 q 442 556 426 556 q 469 544 457 556 q 481 517 481 532 q 469 490 481 501 q 442 478 457 478 z "},"Ḷ":{"ha":760,"x_min":111,"x_max":704,"o":"m 111 971 l 150 971 l 150 33 l 704 33 l 704 0 l 111 0 l 111 971 m 401 -168 q 374 -156 386 -168 q 363 -129 363 -144 q 374 -102 363 -114 q 401 -90 386 -90 q 428 -102 417 -90 q 440 -129 440 -114 q 428 -156 440 -144 q 401 -168 417 -168 z "},"Ḹ":{"ha":760,"x_min":-61,"x_max":704,"o":"m -61 1149 l 325 1149 l 325 1115 l -61 1115 l -61 1149 m 111 971 l 150 971 l 150 33 l 704 33 l 704 0 l 111 0 l 111 971 m 406 -168 q 378 -156 390 -168 q 367 -129 367 -144 q 378 -102 367 -114 q 406 -90 390 -90 q 433 -102 421 -90 q 444 -129 444 -114 q 433 -156 444 -144 q 406 -168 421 -168 z "},"Ḻ":{"ha":760,"x_min":111,"x_max":704,"o":"m 111 971 l 150 971 l 150 33 l 704 33 l 704 0 l 111 0 l 111 971 m 226 -119 l 613 -119 l 613 -153 l 226 -153 l 226 -119 z "},"Ł":{"ha":867,"x_min":42,"x_max":811,"o":"m 218 464 l 42 386 l 42 422 l 218 500 l 218 971 l 257 971 l 257 518 l 508 631 l 508 594 l 257 482 l 257 33 l 811 33 l 811 0 l 218 0 l 218 464 z "},"M":{"ha":1138,"x_min":111,"x_max":1026,"o":"m 111 971 l 156 971 l 569 64 l 982 971 l 1026 971 l 1026 0 l 988 0 l 988 892 l 582 0 l 556 0 l 150 892 l 150 0 l 111 0 l 111 971 z "},"Ṃ":{"ha":1138,"x_min":111,"x_max":1026,"o":"m 111 971 l 156 971 l 569 64 l 982 971 l 1026 971 l 1026 0 l 988 0 l 988 892 l 582 0 l 556 0 l 150 892 l 150 0 l 111 0 l 111 971 m 569 -168 q 542 -156 554 -168 q 531 -129 531 -144 q 542 -102 531 -114 q 569 -90 554 -90 q 597 -102 585 -90 q 608 -129 608 -114 q 597 -156 608 -144 q 569 -168 585 -168 z "},"N":{"ha":921,"x_min":111,"x_max":810,"o":"m 111 971 l 146 971 l 771 72 l 771 971 l 810 971 l 810 0 l 776 0 l 150 901 l 150 0 l 111 0 l 111 971 z "},"Ń":{"ha":921,"x_min":111,"x_max":810,"o":"m 557 1315 l 596 1315 l 489 1083 l 458 1083 l 557 1315 m 111 971 l 146 971 l 771 72 l 771 971 l 810 971 l 810 0 l 776 0 l 150 901 l 150 0 l 111 0 l 111 971 z "},"Ň":{"ha":921,"x_min":111,"x_max":810,"o":"m 268 1301 l 311 1301 l 461 1122 l 611 1301 l 654 1301 l 476 1092 l 446 1092 l 268 1301 m 111 971 l 146 971 l 771 72 l 771 971 l 810 971 l 810 0 l 776 0 l 150 901 l 150 0 l 111 0 l 111 971 z "},"Ņ":{"ha":921,"x_min":111,"x_max":810,"o":"m 111 971 l 146 971 l 771 72 l 771 971 l 810 971 l 810 0 l 776 0 l 150 901 l 150 0 l 111 0 l 111 971 m 482 -97 l 525 -97 l 407 -360 l 372 -360 l 482 -97 z "},"Ṅ":{"ha":921,"x_min":111,"x_max":810,"o":"m 488 1097 q 460 1109 472 1097 q 449 1136 449 1121 q 460 1163 449 1151 q 488 1175 472 1175 q 515 1163 503 1175 q 526 1136 526 1151 q 515 1109 526 1121 q 488 1097 503 1097 m 111 971 l 146 971 l 771 72 l 771 971 l 810 971 l 810 0 l 776 0 l 150 901 l 150 0 l 111 0 l 111 971 z "},"Ṇ":{"ha":921,"x_min":111,"x_max":810,"o":"m 111 971 l 146 971 l 771 72 l 771 971 l 810 971 l 810 0 l 776 0 l 150 901 l 150 0 l 111 0 l 111 971 m 474 -168 q 447 -156 458 -168 q 435 -129 435 -144 q 447 -102 435 -114 q 474 -90 458 -90 q 501 -102 489 -90 q 513 -129 513 -114 q 501 -156 513 -144 q 474 -168 489 -168 z "},"Ŋ":{"ha":921,"x_min":111,"x_max":810,"o":"m 646 -321 q 564 -312 601 -321 l 564 -278 q 633 -287 594 -287 q 740 -252 710 -287 q 771 -136 771 -217 l 771 8 l 150 901 l 150 0 l 111 0 l 111 971 l 146 971 l 771 72 l 771 971 l 810 971 l 810 -133 q 646 -321 810 -321 z "},"Ṉ":{"ha":921,"x_min":111,"x_max":810,"o":"m 111 971 l 146 971 l 771 72 l 771 971 l 810 971 l 810 0 l 776 0 l 150 901 l 150 0 l 111 0 l 111 971 m 293 -119 l 679 -119 l 679 -153 l 293 -153 l 293 -119 z "},"Ñ":{"ha":921,"x_min":111,"x_max":810,"o":"m 221 1171 q 346 1233 258 1233 q 403 1225 376 1233 q 469 1199 431 1217 q 531 1173 506 1182 q 588 1164 557 1164 q 656 1181 625 1164 q 713 1239 688 1197 l 713 1193 q 588 1131 675 1131 q 524 1140 553 1131 q 458 1167 494 1149 q 399 1192 424 1183 q 346 1200 375 1200 q 278 1183 308 1200 q 221 1125 249 1167 l 221 1171 m 111 971 l 146 971 l 771 72 l 771 971 l 810 971 l 810 0 l 776 0 l 150 901 l 150 0 l 111 0 l 111 971 z "},"O":{"ha":1169,"x_min":83,"x_max":1086,"o":"m 585 -21 q 328 42 443 -21 q 149 221 214 106 q 83 485 83 336 q 149 749 83 633 q 328 928 214 864 q 585 992 443 992 q 841 928 726 992 q 1021 749 956 864 q 1086 485 1086 633 q 1021 221 1086 336 q 841 42 956 106 q 585 -21 726 -21 m 585 13 q 819 70 713 13 q 988 235 925 128 q 1050 485 1050 343 q 989 734 1050 626 q 822 900 928 842 q 585 958 715 958 q 348 900 454 958 q 181 734 242 842 q 119 485 119 626 q 182 235 119 343 q 351 70 244 128 q 585 13 457 13 z "},"Ó":{"ha":1169,"x_min":83,"x_max":1086,"o":"m 643 1332 l 682 1332 l 575 1100 l 544 1100 l 643 1332 m 585 -21 q 328 42 443 -21 q 149 221 214 106 q 83 485 83 336 q 149 749 83 633 q 328 928 214 864 q 585 992 443 992 q 841 928 726 992 q 1021 749 956 864 q 1086 485 1086 633 q 1021 221 1086 336 q 841 42 956 106 q 585 -21 726 -21 m 585 13 q 819 70 713 13 q 988 235 925 128 q 1050 485 1050 343 q 989 734 1050 626 q 822 900 928 842 q 585 958 715 958 q 348 900 454 958 q 181 734 242 842 q 119 485 119 626 q 182 235 119 343 q 351 70 244 128 q 585 13 457 13 z "},"Ŏ":{"ha":1169,"x_min":83,"x_max":1086,"o":"m 585 1053 q 467 1096 513 1053 q 421 1203 421 1139 l 454 1203 q 490 1118 454 1151 q 585 1085 525 1085 q 680 1118 644 1085 q 715 1203 715 1151 l 749 1203 q 703 1096 749 1139 q 585 1053 657 1053 m 585 -21 q 328 42 443 -21 q 149 221 214 106 q 83 485 83 336 q 149 749 83 633 q 328 928 214 864 q 585 992 443 992 q 841 928 726 992 q 1021 749 956 864 q 1086 485 1086 633 q 1021 221 1086 336 q 841 42 956 106 q 585 -21 726 -21 m 585 13 q 819 70 713 13 q 988 235 925 128 q 1050 485 1050 343 q 989 734 1050 626 q 822 900 928 842 q 585 958 715 958 q 348 900 454 958 q 181 734 242 842 q 119 485 119 626 q 182 235 119 343 q 351 70 244 128 q 585 13 457 13 z "},"Ǒ":{"ha":1169,"x_min":83,"x_max":1086,"o":"m 392 1299 l 435 1299 l 585 1119 l 735 1299 l 778 1299 l 600 1089 l 569 1089 l 392 1299 m 585 -21 q 328 42 443 -21 q 149 221 214 106 q 83 485 83 336 q 149 749 83 633 q 328 928 214 864 q 585 992 443 992 q 841 928 726 992 q 1021 749 956 864 q 1086 485 1086 633 q 1021 221 1086 336 q 841 42 956 106 q 585 -21 726 -21 m 585 13 q 819 70 713 13 q 988 235 925 128 q 1050 485 1050 343 q 989 734 1050 626 q 822 900 928 842 q 585 958 715 958 q 348 900 454 958 q 181 734 242 842 q 119 485 119 626 q 182 235 119 343 q 351 70 244 128 q 585 13 457 13 z "},"Ô":{"ha":1169,"x_min":83,"x_max":1086,"o":"m 563 1318 l 593 1318 l 771 1108 l 728 1108 l 578 1288 l 428 1108 l 385 1108 l 563 1318 m 585 -21 q 328 42 443 -21 q 149 221 214 106 q 83 485 83 336 q 149 749 83 633 q 328 928 214 864 q 585 992 443 992 q 841 928 726 992 q 1021 749 956 864 q 1086 485 1086 633 q 1021 221 1086 336 q 841 42 956 106 q 585 -21 726 -21 m 585 13 q 819 70 713 13 q 988 235 925 128 q 1050 485 1050 343 q 989 734 1050 626 q 822 900 928 842 q 585 958 715 958 q 348 900 454 958 q 181 734 242 842 q 119 485 119 626 q 182 235 119 343 q 351 70 244 128 q 585 13 457 13 z "},"Ố":{"ha":1169,"x_min":83,"x_max":1086,"o":"m 789 1317 l 828 1317 l 729 1167 l 699 1167 l 789 1317 m 569 1219 l 600 1219 l 778 1051 l 735 1051 l 585 1193 l 435 1051 l 392 1051 l 569 1219 m 585 -21 q 328 42 443 -21 q 149 221 214 106 q 83 485 83 336 q 149 749 83 633 q 328 928 214 864 q 585 992 443 992 q 841 928 726 992 q 1021 749 956 864 q 1086 485 1086 633 q 1021 221 1086 336 q 841 42 956 106 q 585 -21 726 -21 m 585 13 q 819 70 713 13 q 988 235 925 128 q 1050 485 1050 343 q 989 734 1050 626 q 822 900 928 842 q 585 958 715 958 q 348 900 454 958 q 181 734 242 842 q 119 485 119 626 q 182 235 119 343 q 351 70 244 128 q 585 13 457 13 z "},"Ộ":{"ha":1169,"x_min":83,"x_max":1086,"o":"m 569 1299 l 600 1299 l 778 1089 l 735 1089 l 585 1268 l 435 1089 l 392 1089 l 569 1299 m 585 -21 q 328 42 443 -21 q 149 221 214 106 q 83 485 83 336 q 149 749 83 633 q 328 928 214 864 q 585 992 443 992 q 841 928 726 992 q 1021 749 956 864 q 1086 485 1086 633 q 1021 221 1086 336 q 841 42 956 106 q 585 -21 726 -21 m 585 13 q 819 70 713 13 q 988 235 925 128 q 1050 485 1050 343 q 989 734 1050 626 q 822 900 928 842 q 585 958 715 958 q 348 900 454 958 q 181 734 242 842 q 119 485 119 626 q 182 235 119 343 q 351 70 244 128 q 585 13 457 13 m 585 -168 q 558 -156 569 -168 q 546 -129 546 -144 q 558 -102 546 -114 q 585 -90 569 -90 q 612 -102 600 -90 q 624 -129 624 -114 q 612 -156 624 -144 q 585 -168 600 -168 z "},"Ồ":{"ha":1169,"x_min":83,"x_max":1086,"o":"m 322 1317 l 361 1317 l 451 1167 l 421 1167 l 322 1317 m 550 1219 l 581 1219 l 758 1051 l 715 1051 l 565 1193 l 415 1051 l 372 1051 l 550 1219 m 585 -21 q 328 42 443 -21 q 149 221 214 106 q 83 485 83 336 q 149 749 83 633 q 328 928 214 864 q 585 992 443 992 q 841 928 726 992 q 1021 749 956 864 q 1086 485 1086 633 q 1021 221 1086 336 q 841 42 956 106 q 585 -21 726 -21 m 585 13 q 819 70 713 13 q 988 235 925 128 q 1050 485 1050 343 q 989 734 1050 626 q 822 900 928 842 q 585 958 715 958 q 348 900 454 958 q 181 734 242 842 q 119 485 119 626 q 182 235 119 343 q 351 70 244 128 q 585 13 457 13 z "},"Ổ":{"ha":1169,"x_min":83,"x_max":1086,"o":"m 696 1215 q 767 1228 746 1215 q 789 1274 789 1242 q 773 1317 789 1304 q 725 1329 757 1329 q 688 1326 707 1329 q 657 1317 668 1322 l 657 1349 q 725 1360 688 1360 q 798 1337 774 1360 q 822 1274 822 1314 q 797 1215 822 1238 q 725 1190 771 1192 l 725 1153 l 696 1153 l 696 1215 m 564 1219 l 594 1219 l 772 1051 l 729 1051 l 579 1193 l 429 1051 l 386 1051 l 564 1219 m 585 -21 q 328 42 443 -21 q 149 221 214 106 q 83 485 83 336 q 149 749 83 633 q 328 928 214 864 q 585 992 443 992 q 841 928 726 992 q 1021 749 956 864 q 1086 485 1086 633 q 1021 221 1086 336 q 841 42 956 106 q 585 -21 726 -21 m 585 13 q 819 70 713 13 q 988 235 925 128 q 1050 485 1050 343 q 989 734 1050 626 q 822 900 928 842 q 585 958 715 958 q 348 900 454 958 q 181 734 242 842 q 119 485 119 626 q 182 235 119 343 q 351 70 244 128 q 585 13 457 13 z "},"Ỗ":{"ha":1169,"x_min":83,"x_max":1086,"o":"m 683 1244 q 636 1253 660 1244 q 576 1279 613 1261 q 525 1301 546 1293 q 486 1308 504 1308 q 433 1295 454 1308 q 390 1246 411 1282 l 390 1288 q 427 1326 404 1314 q 486 1339 450 1339 q 530 1331 507 1339 q 588 1306 553 1322 q 644 1282 625 1289 q 683 1275 664 1275 q 738 1289 715 1275 q 779 1338 760 1303 l 779 1296 q 742 1257 765 1269 q 683 1244 719 1244 m 585 1056 q 467 1099 513 1056 q 421 1206 421 1142 l 454 1206 q 490 1121 454 1154 q 585 1088 525 1088 q 680 1121 644 1088 q 715 1206 715 1154 l 749 1206 q 703 1099 749 1142 q 585 1056 657 1056 m 585 -21 q 328 42 443 -21 q 149 221 214 106 q 83 485 83 336 q 149 749 83 633 q 328 928 214 864 q 585 992 443 992 q 841 928 726 992 q 1021 749 956 864 q 1086 485 1086 633 q 1021 221 1086 336 q 841 42 956 106 q 585 -21 726 -21 m 585 13 q 819 70 713 13 q 988 235 925 128 q 1050 485 1050 343 q 989 734 1050 626 q 822 900 928 842 q 585 958 715 958 q 348 900 454 958 q 181 734 242 842 q 119 485 119 626 q 182 235 119 343 q 351 70 244 128 q 585 13 457 13 z "},"Ö":{"ha":1169,"x_min":83,"x_max":1086,"o":"m 447 1114 q 420 1126 432 1114 q 408 1153 408 1138 q 420 1180 408 1168 q 447 1192 432 1192 q 474 1180 463 1192 q 486 1153 486 1168 q 474 1126 486 1138 q 447 1114 463 1114 m 722 1114 q 695 1126 707 1114 q 683 1153 683 1138 q 695 1180 683 1168 q 722 1192 707 1192 q 749 1180 738 1192 q 761 1153 761 1168 q 749 1126 761 1138 q 722 1114 738 1114 m 585 -21 q 328 42 443 -21 q 149 221 214 106 q 83 485 83 336 q 149 749 83 633 q 328 928 214 864 q 585 992 443 992 q 841 928 726 992 q 1021 749 956 864 q 1086 485 1086 633 q 1021 221 1086 336 q 841 42 956 106 q 585 -21 726 -21 m 585 13 q 819 70 713 13 q 988 235 925 128 q 1050 485 1050 343 q 989 734 1050 626 q 822 900 928 842 q 585 958 715 958 q 348 900 454 958 q 181 734 242 842 q 119 485 119 626 q 182 235 119 343 q 351 70 244 128 q 585 13 457 13 z "},"Ọ":{"ha":1169,"x_min":83,"x_max":1086,"o":"m 585 -21 q 328 42 443 -21 q 149 221 214 106 q 83 485 83 336 q 149 749 83 633 q 328 928 214 864 q 585 992 443 992 q 841 928 726 992 q 1021 749 956 864 q 1086 485 1086 633 q 1021 221 1086 336 q 841 42 956 106 q 585 -21 726 -21 m 585 13 q 819 70 713 13 q 988 235 925 128 q 1050 485 1050 343 q 989 734 1050 626 q 822 900 928 842 q 585 958 715 958 q 348 900 454 958 q 181 734 242 842 q 119 485 119 626 q 182 235 119 343 q 351 70 244 128 q 585 13 457 13 m 585 -168 q 558 -156 569 -168 q 546 -129 546 -144 q 558 -102 546 -114 q 585 -90 569 -90 q 612 -102 600 -90 q 624 -129 624 -114 q 612 -156 624 -144 q 585 -168 600 -168 z "},"Ò":{"ha":1169,"x_min":83,"x_max":1086,"o":"m 492 1332 l 531 1332 l 629 1100 l 599 1100 l 492 1332 m 585 -21 q 328 42 443 -21 q 149 221 214 106 q 83 485 83 336 q 149 749 83 633 q 328 928 214 864 q 585 992 443 992 q 841 928 726 992 q 1021 749 956 864 q 1086 485 1086 633 q 1021 221 1086 336 q 841 42 956 106 q 585 -21 726 -21 m 585 13 q 819 70 713 13 q 988 235 925 128 q 1050 485 1050 343 q 989 734 1050 626 q 822 900 928 842 q 585 958 715 958 q 348 900 454 958 q 181 734 242 842 q 119 485 119 626 q 182 235 119 343 q 351 70 244 128 q 585 13 457 13 z "},"Ỏ":{"ha":1169,"x_min":83,"x_max":1086,"o":"m 554 1176 q 656 1199 626 1176 q 685 1269 685 1222 q 578 1357 685 1357 q 536 1354 558 1357 q 501 1346 514 1351 l 501 1379 q 536 1387 514 1383 q 578 1390 558 1390 q 684 1358 647 1390 q 721 1271 721 1325 q 686 1185 721 1218 q 586 1150 651 1153 l 586 1089 l 554 1089 l 554 1176 m 585 -21 q 328 42 443 -21 q 149 221 214 106 q 83 485 83 336 q 149 749 83 633 q 328 928 214 864 q 585 992 443 992 q 841 928 726 992 q 1021 749 956 864 q 1086 485 1086 633 q 1021 221 1086 336 q 841 42 956 106 q 585 -21 726 -21 m 585 13 q 819 70 713 13 q 988 235 925 128 q 1050 485 1050 343 q 989 734 1050 626 q 822 900 928 842 q 585 958 715 958 q 348 900 454 958 q 181 734 242 842 q 119 485 119 626 q 182 235 119 343 q 351 70 244 128 q 585 13 457 13 z "},"Ơ":{"ha":1144,"x_min":83,"x_max":1103,"o":"m 585 -21 q 328 42 443 -21 q 149 221 214 106 q 83 485 83 336 q 149 749 83 633 q 328 928 214 864 q 585 992 443 992 q 776 958 688 992 q 932 861 865 924 q 1030 899 990 863 q 1069 986 1069 936 l 1069 1038 l 1103 1038 l 1103 986 q 1063 887 1103 931 q 961 832 1022 843 q 1053 676 1021 765 q 1086 485 1086 588 q 1021 221 1086 336 q 841 42 956 106 q 585 -21 726 -21 m 585 13 q 819 70 713 13 q 988 235 925 128 q 1050 485 1050 343 q 989 734 1050 626 q 822 900 928 842 q 585 958 715 958 q 348 900 454 958 q 181 734 242 842 q 119 485 119 626 q 182 235 119 343 q 351 70 244 128 q 585 13 457 13 z "},"Ớ":{"ha":1158,"x_min":83,"x_max":1103,"o":"m 681 1319 l 719 1319 l 613 1088 l 582 1088 l 681 1319 m 585 -21 q 328 42 443 -21 q 149 221 214 106 q 83 485 83 336 q 149 749 83 633 q 328 928 214 864 q 585 992 443 992 q 776 958 688 992 q 932 861 865 924 q 1030 899 990 863 q 1069 986 1069 936 l 1069 1038 l 1103 1038 l 1103 986 q 1063 887 1103 931 q 961 832 1022 843 q 1053 676 1021 765 q 1086 485 1086 588 q 1021 221 1086 336 q 841 42 956 106 q 585 -21 726 -21 m 585 13 q 819 70 713 13 q 988 235 925 128 q 1050 485 1050 343 q 989 734 1050 626 q 822 900 928 842 q 585 958 715 958 q 348 900 454 958 q 181 734 242 842 q 119 485 119 626 q 182 235 119 343 q 351 70 244 128 q 585 13 457 13 z "},"Ợ":{"ha":1158,"x_min":83,"x_max":1103,"o":"m 585 -21 q 328 42 443 -21 q 149 221 214 106 q 83 485 83 336 q 149 749 83 633 q 328 928 214 864 q 585 992 443 992 q 776 958 688 992 q 932 861 865 924 q 1030 899 990 863 q 1069 986 1069 936 l 1069 1038 l 1103 1038 l 1103 986 q 1063 887 1103 931 q 961 832 1022 843 q 1053 676 1021 765 q 1086 485 1086 588 q 1021 221 1086 336 q 841 42 956 106 q 585 -21 726 -21 m 585 13 q 819 70 713 13 q 988 235 925 128 q 1050 485 1050 343 q 989 734 1050 626 q 822 900 928 842 q 585 958 715 958 q 348 900 454 958 q 181 734 242 842 q 119 485 119 626 q 182 235 119 343 q 351 70 244 128 q 585 13 457 13 m 596 -168 q 569 -156 581 -168 q 557 -129 557 -144 q 569 -102 557 -114 q 596 -90 581 -90 q 623 -102 611 -90 q 635 -129 635 -114 q 623 -156 635 -144 q 596 -168 611 -168 z "},"Ờ":{"ha":1158,"x_min":83,"x_max":1103,"o":"m 486 1319 l 525 1319 l 624 1088 l 593 1088 l 486 1319 m 585 -21 q 328 42 443 -21 q 149 221 214 106 q 83 485 83 336 q 149 749 83 633 q 328 928 214 864 q 585 992 443 992 q 776 958 688 992 q 932 861 865 924 q 1030 899 990 863 q 1069 986 1069 936 l 1069 1038 l 1103 1038 l 1103 986 q 1063 887 1103 931 q 961 832 1022 843 q 1053 676 1021 765 q 1086 485 1086 588 q 1021 221 1086 336 q 841 42 956 106 q 585 -21 726 -21 m 585 13 q 819 70 713 13 q 988 235 925 128 q 1050 485 1050 343 q 989 734 1050 626 q 822 900 928 842 q 585 958 715 958 q 348 900 454 958 q 181 734 242 842 q 119 485 119 626 q 182 235 119 343 q 351 70 244 128 q 585 13 457 13 z "},"Ở":{"ha":1158,"x_min":83,"x_max":1103,"o":"m 579 1176 q 681 1199 651 1176 q 710 1269 710 1222 q 603 1357 710 1357 q 561 1354 583 1357 q 526 1346 539 1351 l 526 1379 q 561 1387 539 1383 q 603 1390 583 1390 q 709 1358 672 1390 q 746 1271 746 1325 q 711 1185 746 1218 q 611 1150 676 1153 l 611 1089 l 579 1089 l 579 1176 m 585 -21 q 328 42 443 -21 q 149 221 214 106 q 83 485 83 336 q 149 749 83 633 q 328 928 214 864 q 585 992 443 992 q 776 958 688 992 q 932 861 865 924 q 1030 899 990 863 q 1069 986 1069 936 l 1069 1038 l 1103 1038 l 1103 986 q 1063 887 1103 931 q 961 832 1022 843 q 1053 676 1021 765 q 1086 485 1086 588 q 1021 221 1086 336 q 841 42 956 106 q 585 -21 726 -21 m 585 13 q 819 70 713 13 q 988 235 925 128 q 1050 485 1050 343 q 989 734 1050 626 q 822 900 928 842 q 585 958 715 958 q 348 900 454 958 q 181 734 242 842 q 119 485 119 626 q 182 235 119 343 q 351 70 244 128 q 585 13 457 13 z "},"Ỡ":{"ha":1158,"x_min":83,"x_max":1103,"o":"m 356 1135 q 481 1197 393 1197 q 538 1189 511 1197 q 604 1163 565 1181 q 666 1137 640 1146 q 722 1128 692 1128 q 791 1144 760 1128 q 847 1203 822 1161 l 847 1157 q 722 1094 810 1094 q 658 1103 688 1094 q 593 1131 629 1113 q 534 1156 558 1147 q 481 1164 510 1164 q 413 1147 443 1164 q 356 1089 383 1131 l 356 1135 m 585 -21 q 328 42 443 -21 q 149 221 214 106 q 83 485 83 336 q 149 749 83 633 q 328 928 214 864 q 585 992 443 992 q 776 958 688 992 q 932 861 865 924 q 1030 899 990 863 q 1069 986 1069 936 l 1069 1038 l 1103 1038 l 1103 986 q 1063 887 1103 931 q 961 832 1022 843 q 1053 676 1021 765 q 1086 485 1086 588 q 1021 221 1086 336 q 841 42 956 106 q 585 -21 726 -21 m 585 13 q 819 70 713 13 q 988 235 925 128 q 1050 485 1050 343 q 989 734 1050 626 q 822 900 928 842 q 585 958 715 958 q 348 900 454 958 q 181 734 242 842 q 119 485 119 626 q 182 235 119 343 q 351 70 244 128 q 585 13 457 13 z "},"Ő":{"ha":1169,"x_min":83,"x_max":1086,"o":"m 521 1315 l 560 1315 l 453 1083 l 422 1083 l 521 1315 m 753 1315 l 792 1315 l 685 1083 l 654 1083 l 753 1315 m 585 -21 q 328 42 443 -21 q 149 221 214 106 q 83 485 83 336 q 149 749 83 633 q 328 928 214 864 q 585 992 443 992 q 841 928 726 992 q 1021 749 956 864 q 1086 485 1086 633 q 1021 221 1086 336 q 841 42 956 106 q 585 -21 726 -21 m 585 13 q 819 70 713 13 q 988 235 925 128 q 1050 485 1050 343 q 989 734 1050 626 q 822 900 928 842 q 585 958 715 958 q 348 900 454 958 q 181 734 242 842 q 119 485 119 626 q 182 235 119 343 q 351 70 244 128 q 585 13 457 13 z "},"Ō":{"ha":1169,"x_min":83,"x_max":1086,"o":"m 367 1163 l 753 1163 l 753 1129 l 367 1129 l 367 1163 m 585 -21 q 328 42 443 -21 q 149 221 214 106 q 83 485 83 336 q 149 749 83 633 q 328 928 214 864 q 585 992 443 992 q 841 928 726 992 q 1021 749 956 864 q 1086 485 1086 633 q 1021 221 1086 336 q 841 42 956 106 q 585 -21 726 -21 m 585 13 q 819 70 713 13 q 988 235 925 128 q 1050 485 1050 343 q 989 734 1050 626 q 822 900 928 842 q 585 958 715 958 q 348 900 454 958 q 181 734 242 842 q 119 485 119 626 q 182 235 119 343 q 351 70 244 128 q 585 13 457 13 z "},"Ø":{"ha":1169,"x_min":83,"x_max":1086,"o":"m 386 15 q 165 193 247 69 q 83 485 83 317 q 149 749 83 633 q 328 928 214 864 q 585 992 443 992 q 767 961 678 992 l 818 1089 l 857 1089 l 800 949 q 1009 769 932 892 q 1086 485 1086 647 q 1021 221 1086 336 q 841 42 956 106 q 585 -21 726 -21 q 419 3 499 -21 l 371 -119 l 332 -119 l 386 15 m 754 929 q 585 958 675 958 q 348 900 454 958 q 181 734 242 842 q 119 485 119 626 q 196 212 119 326 q 399 47 272 97 l 754 929 m 585 13 q 819 70 713 13 q 988 235 925 128 q 1050 485 1050 343 q 978 750 1050 638 q 788 917 907 863 l 432 35 q 585 13 503 13 z "},"Ǿ":{"ha":1169,"x_min":83,"x_max":1086,"o":"m 681 1321 l 719 1321 l 613 1089 l 582 1089 l 681 1321 m 386 15 q 165 193 247 69 q 83 485 83 317 q 149 749 83 633 q 328 928 214 864 q 585 992 443 992 q 767 961 678 992 l 818 1089 l 857 1089 l 800 949 q 1009 769 932 892 q 1086 485 1086 647 q 1021 221 1086 336 q 841 42 956 106 q 585 -21 726 -21 q 419 3 499 -21 l 371 -119 l 332 -119 l 386 15 m 754 929 q 585 958 675 958 q 348 900 454 958 q 181 734 242 842 q 119 485 119 626 q 196 212 119 326 q 399 47 272 97 l 754 929 m 585 13 q 819 70 713 13 q 988 235 925 128 q 1050 485 1050 343 q 978 750 1050 638 q 788 917 907 863 l 432 35 q 585 13 503 13 z "},"Õ":{"ha":1169,"x_min":83,"x_max":1086,"o":"m 339 1171 q 464 1233 376 1233 q 522 1225 494 1233 q 588 1199 549 1217 q 649 1173 624 1182 q 706 1164 675 1164 q 774 1181 743 1164 q 831 1239 806 1197 l 831 1193 q 706 1131 793 1131 q 642 1140 671 1131 q 576 1167 613 1149 q 517 1192 542 1183 q 464 1200 493 1200 q 397 1183 426 1200 q 339 1125 367 1167 l 339 1171 m 585 -21 q 328 42 443 -21 q 149 221 214 106 q 83 485 83 336 q 149 749 83 633 q 328 928 214 864 q 585 992 443 992 q 841 928 726 992 q 1021 749 956 864 q 1086 485 1086 633 q 1021 221 1086 336 q 841 42 956 106 q 585 -21 726 -21 m 585 13 q 819 70 713 13 q 988 235 925 128 q 1050 485 1050 343 q 989 734 1050 626 q 822 900 928 842 q 585 958 715 958 q 348 900 454 958 q 181 734 242 842 q 119 485 119 626 q 182 235 119 343 q 351 70 244 128 q 585 13 457 13 z "},"Œ":{"ha":1229,"x_min":83,"x_max":1146,"o":"m 585 0 q 328 58 442 0 q 149 227 214 117 q 83 485 83 338 q 149 744 83 633 q 328 913 214 854 q 585 971 442 971 l 1146 971 l 1146 938 l 675 938 l 675 503 l 1013 503 l 1013 469 l 675 469 l 675 33 l 1146 33 l 1146 0 l 585 0 m 636 33 l 636 938 l 585 938 q 347 884 453 938 q 181 728 242 831 q 119 485 119 626 q 181 241 119 343 q 349 86 243 139 q 585 33 456 33 l 636 33 z "},"P":{"ha":792,"x_min":111,"x_max":736,"o":"m 111 971 l 443 971 q 663 910 589 971 q 736 717 736 850 q 663 523 736 583 q 443 463 589 463 l 150 463 l 150 0 l 111 0 l 111 971 m 447 496 q 633 544 567 496 q 700 717 700 592 q 633 890 700 842 q 447 938 567 938 l 150 938 l 150 496 l 447 496 z "},"Þ":{"ha":819,"x_min":111,"x_max":736,"o":"m 111 971 l 150 971 l 150 740 l 443 740 q 663 680 589 740 q 736 486 736 619 q 663 292 736 353 q 443 232 589 232 l 150 232 l 150 0 l 111 0 l 111 971 m 447 265 q 633 313 567 265 q 700 486 700 361 q 633 659 700 611 q 447 707 567 707 l 150 707 l 150 265 l 447 265 z "},"Q":{"ha":1176,"x_min":83,"x_max":1093,"o":"m 592 0 q 328 60 443 0 q 148 230 213 119 q 83 485 83 340 q 149 749 83 633 q 328 928 214 864 q 585 992 443 992 q 841 928 726 992 q 1021 749 956 864 q 1086 485 1086 633 q 996 196 1086 315 q 760 33 906 76 l 1093 33 l 1093 0 l 592 0 m 585 33 q 819 86 713 33 q 988 241 925 139 q 1050 485 1050 343 q 989 734 1050 626 q 822 900 928 842 q 585 958 715 958 q 348 900 454 958 q 181 734 242 842 q 119 485 119 626 q 181 241 119 343 q 349 86 243 139 q 585 33 456 33 z "},"R":{"ha":821,"x_min":111,"x_max":738,"o":"m 111 971 l 456 971 q 667 908 599 971 q 736 719 736 846 q 667 544 736 613 q 467 472 599 475 l 738 0 l 697 0 l 426 472 l 150 472 l 150 0 l 111 0 l 111 971 m 460 506 q 636 560 572 506 q 700 719 700 615 q 638 888 700 838 q 461 938 575 938 l 150 938 l 150 506 l 460 506 z "},"Ŕ":{"ha":821,"x_min":111,"x_max":738,"o":"m 421 1315 l 460 1315 l 353 1083 l 322 1083 l 421 1315 m 111 971 l 456 971 q 667 908 599 971 q 736 719 736 846 q 667 544 736 613 q 467 472 599 475 l 738 0 l 697 0 l 426 472 l 150 472 l 150 0 l 111 0 l 111 971 m 460 506 q 636 560 572 506 q 700 719 700 615 q 638 888 700 838 q 461 938 575 938 l 150 938 l 150 506 l 460 506 z "},"Ř":{"ha":821,"x_min":111,"x_max":738,"o":"m 194 1299 l 238 1299 l 388 1119 l 538 1299 l 581 1299 l 403 1089 l 372 1089 l 194 1299 m 111 971 l 456 971 q 667 908 599 971 q 736 719 736 846 q 667 544 736 613 q 467 472 599 475 l 738 0 l 697 0 l 426 472 l 150 472 l 150 0 l 111 0 l 111 971 m 460 506 q 636 560 572 506 q 700 719 700 615 q 638 888 700 838 q 461 938 575 938 l 150 938 l 150 506 l 460 506 z "},"Ŗ":{"ha":821,"x_min":111,"x_max":738,"o":"m 111 971 l 456 971 q 667 908 599 971 q 736 719 736 846 q 667 544 736 613 q 467 472 599 475 l 738 0 l 697 0 l 426 472 l 150 472 l 150 0 l 111 0 l 111 971 m 460 506 q 636 560 572 506 q 700 719 700 615 q 638 888 700 838 q 461 938 575 938 l 150 938 l 150 506 l 460 506 m 367 -97 l 410 -97 l 292 -360 l 257 -360 l 367 -97 z "},"Ṛ":{"ha":821,"x_min":111,"x_max":738,"o":"m 111 971 l 456 971 q 667 908 599 971 q 736 719 736 846 q 667 544 736 613 q 467 472 599 475 l 738 0 l 697 0 l 426 472 l 150 472 l 150 0 l 111 0 l 111 971 m 460 506 q 636 560 572 506 q 700 719 700 615 q 638 888 700 838 q 461 938 575 938 l 150 938 l 150 506 l 460 506 m 400 -168 q 373 -156 385 -168 q 361 -129 361 -144 q 373 -102 361 -114 q 400 -90 385 -90 q 427 -102 415 -90 q 439 -129 439 -114 q 427 -156 439 -144 q 400 -168 415 -168 z "},"Ṝ":{"ha":821,"x_min":111,"x_max":738,"o":"m 178 1163 l 564 1163 l 564 1129 l 178 1129 l 178 1163 m 111 971 l 456 971 q 667 908 599 971 q 736 719 736 846 q 667 544 736 613 q 467 472 599 475 l 738 0 l 697 0 l 426 472 l 150 472 l 150 0 l 111 0 l 111 971 m 460 506 q 636 560 572 506 q 700 719 700 615 q 638 888 700 838 q 461 938 575 938 l 150 938 l 150 506 l 460 506 m 367 -168 q 340 -156 351 -168 q 328 -129 328 -144 q 340 -102 328 -114 q 367 -90 351 -90 q 394 -102 382 -90 q 406 -129 406 -114 q 394 -156 406 -144 q 367 -168 382 -168 z "},"Ṟ":{"ha":821,"x_min":111,"x_max":738,"o":"m 111 971 l 456 971 q 667 908 599 971 q 736 719 736 846 q 667 544 736 613 q 467 472 599 475 l 738 0 l 697 0 l 426 472 l 150 472 l 150 0 l 111 0 l 111 971 m 460 506 q 636 560 572 506 q 700 719 700 615 q 638 888 700 838 q 461 938 575 938 l 150 938 l 150 506 l 460 506 m 185 -119 l 571 -119 l 571 -153 l 185 -153 l 185 -119 z "},"S":{"ha":756,"x_min":83,"x_max":672,"o":"m 349 -21 q 202 -8 274 -21 q 83 24 131 4 l 83 58 q 349 13 201 13 q 636 224 636 13 q 608 338 636 293 q 523 413 579 382 q 358 483 467 444 q 157 597 218 535 q 96 760 96 658 q 176 928 96 865 q 389 992 256 992 q 517 981 460 992 q 632 947 575 971 l 632 913 q 515 947 574 936 q 389 958 457 958 q 200 903 268 958 q 132 760 132 847 q 156 656 132 699 q 233 578 179 614 q 386 507 288 543 q 549 438 493 467 q 638 358 604 408 q 672 224 672 307 q 590 42 672 106 q 349 -21 507 -21 z "},"Ś":{"ha":756,"x_min":83,"x_max":672,"o":"m 468 1321 l 507 1321 l 400 1089 l 369 1089 l 468 1321 m 349 -21 q 202 -8 274 -21 q 83 24 131 4 l 83 58 q 349 13 201 13 q 636 224 636 13 q 608 338 636 293 q 523 413 579 382 q 358 483 467 444 q 157 597 218 535 q 96 760 96 658 q 176 928 96 865 q 389 992 256 992 q 517 981 460 992 q 632 947 575 971 l 632 913 q 515 947 574 936 q 389 958 457 958 q 200 903 268 958 q 132 760 132 847 q 156 656 132 699 q 233 578 179 614 q 386 507 288 543 q 549 438 493 467 q 638 358 604 408 q 672 224 672 307 q 590 42 672 106 q 349 -21 507 -21 z "},"Š":{"ha":756,"x_min":83,"x_max":672,"o":"m 228 1299 l 271 1299 l 421 1119 l 571 1299 l 614 1299 l 436 1089 l 406 1089 l 228 1299 m 349 -21 q 202 -8 274 -21 q 83 24 131 4 l 83 58 q 349 13 201 13 q 636 224 636 13 q 608 338 636 293 q 523 413 579 382 q 358 483 467 444 q 157 597 218 535 q 96 760 96 658 q 176 928 96 865 q 389 992 256 992 q 517 981 460 992 q 632 947 575 971 l 632 913 q 515 947 574 936 q 389 958 457 958 q 200 903 268 958 q 132 760 132 847 q 156 656 132 699 q 233 578 179 614 q 386 507 288 543 q 549 438 493 467 q 638 358 604 408 q 672 224 672 307 q 590 42 672 106 q 349 -21 507 -21 z "},"Ş":{"ha":756,"x_min":83,"x_max":672,"o":"m 672 224 q 603 53 672 117 q 401 -19 533 -10 l 368 -103 q 469 -139 435 -106 q 503 -225 503 -172 q 466 -312 503 -279 q 360 -344 429 -344 q 318 -341 340 -344 q 283 -333 296 -337 l 283 -300 q 318 -308 296 -306 q 360 -311 340 -311 q 467 -224 467 -311 q 434 -152 467 -175 q 319 -129 401 -129 l 361 -21 l 349 -21 q 202 -8 274 -21 q 83 24 131 4 l 83 58 q 349 13 201 13 q 636 224 636 13 q 608 338 636 293 q 523 413 579 382 q 358 483 467 444 q 157 597 218 535 q 96 760 96 658 q 176 928 96 865 q 389 992 256 992 q 517 981 460 992 q 632 947 575 971 l 632 913 q 515 947 574 936 q 389 958 457 958 q 200 903 268 958 q 132 760 132 847 q 156 656 132 699 q 233 578 179 614 q 386 507 288 543 q 549 438 493 467 q 638 358 604 408 q 672 224 672 307 z "},"Ŝ":{"ha":756,"x_min":83,"x_max":672,"o":"m 372 1299 l 403 1299 l 581 1089 l 538 1089 l 388 1268 l 238 1089 l 194 1089 l 372 1299 m 349 -21 q 202 -8 274 -21 q 83 24 131 4 l 83 58 q 349 13 201 13 q 636 224 636 13 q 608 338 636 293 q 523 413 579 382 q 358 483 467 444 q 157 597 218 535 q 96 760 96 658 q 176 928 96 865 q 389 992 256 992 q 517 981 460 992 q 632 947 575 971 l 632 913 q 515 947 574 936 q 389 958 457 958 q 200 903 268 958 q 132 760 132 847 q 156 656 132 699 q 233 578 179 614 q 386 507 288 543 q 549 438 493 467 q 638 358 604 408 q 672 224 672 307 q 590 42 672 106 q 349 -21 507 -21 z "},"Ș":{"ha":756,"x_min":83,"x_max":672,"o":"m 349 -21 q 202 -8 274 -21 q 83 24 131 4 l 83 58 q 349 13 201 13 q 636 224 636 13 q 608 338 636 293 q 523 413 579 382 q 358 483 467 444 q 157 597 218 535 q 96 760 96 658 q 176 928 96 865 q 389 992 256 992 q 517 981 460 992 q 632 947 575 971 l 632 913 q 515 947 574 936 q 389 958 457 958 q 200 903 268 958 q 132 760 132 847 q 156 656 132 699 q 233 578 179 614 q 386 507 288 543 q 549 438 493 467 q 638 358 604 408 q 672 224 672 307 q 590 42 672 106 q 349 -21 507 -21 m 385 -97 l 428 -97 l 310 -360 l 275 -360 l 385 -97 z "},"Ṡ":{"ha":756,"x_min":83,"x_max":672,"o":"m 408 1097 q 381 1109 393 1097 q 369 1136 369 1121 q 381 1163 369 1151 q 408 1175 393 1175 q 435 1163 424 1175 q 447 1136 447 1151 q 435 1109 447 1121 q 408 1097 424 1097 m 349 -21 q 202 -8 274 -21 q 83 24 131 4 l 83 58 q 349 13 201 13 q 636 224 636 13 q 608 338 636 293 q 523 413 579 382 q 358 483 467 444 q 157 597 218 535 q 96 760 96 658 q 176 928 96 865 q 389 992 256 992 q 517 981 460 992 q 632 947 575 971 l 632 913 q 515 947 574 936 q 389 958 457 958 q 200 903 268 958 q 132 760 132 847 q 156 656 132 699 q 233 578 179 614 q 386 507 288 543 q 549 438 493 467 q 638 358 604 408 q 672 224 672 307 q 590 42 672 106 q 349 -21 507 -21 z "},"Ṣ":{"ha":756,"x_min":83,"x_max":672,"o":"m 349 -21 q 202 -8 274 -21 q 83 24 131 4 l 83 58 q 349 13 201 13 q 636 224 636 13 q 608 338 636 293 q 523 413 579 382 q 358 483 467 444 q 157 597 218 535 q 96 760 96 658 q 176 928 96 865 q 389 992 256 992 q 517 981 460 992 q 632 947 575 971 l 632 913 q 515 947 574 936 q 389 958 457 958 q 200 903 268 958 q 132 760 132 847 q 156 656 132 699 q 233 578 179 614 q 386 507 288 543 q 549 438 493 467 q 638 358 604 408 q 672 224 672 307 q 590 42 672 106 q 349 -21 507 -21 m 378 -168 q 351 -156 363 -168 q 339 -129 339 -144 q 351 -102 339 -114 q 378 -90 363 -90 q 405 -102 393 -90 q 417 -129 417 -114 q 405 -156 417 -144 q 378 -168 393 -168 z "},"ẞ":{"ha":819,"x_min":104,"x_max":736,"o":"m 446 -21 q 253 8 322 -21 l 253 42 q 340 18 297 25 q 446 11 383 11 q 633 77 565 11 q 700 265 700 143 q 619 450 700 394 q 413 506 539 506 l 363 506 l 363 539 l 594 760 q 531 906 594 851 q 369 960 468 960 q 207 901 271 960 q 143 701 143 842 l 143 0 l 104 0 l 104 697 q 177 924 104 856 q 369 992 250 992 q 512 959 453 992 q 601 872 571 926 q 631 750 631 817 l 407 538 q 651 468 567 538 q 736 265 736 399 q 663 58 736 138 q 446 -21 589 -21 z "},"Ə":{"ha":1133,"x_min":83,"x_max":1050,"o":"m 568 -21 q 302 41 411 -21 q 138 210 193 103 q 83 456 83 318 l 83 492 l 1014 492 q 883 838 1014 717 q 519 960 753 960 q 338 944 426 960 q 185 901 250 928 l 185 935 q 337 974 240 957 q 519 992 433 992 q 912 859 774 992 q 1050 485 1050 726 q 994 217 1050 331 q 831 41 939 103 q 568 -21 722 -21 m 568 11 q 815 70 715 11 q 965 231 915 129 q 1014 460 1014 332 l 119 460 q 168 230 119 331 q 317 70 217 129 q 568 11 418 11 z "},"T":{"ha":811,"x_min":56,"x_max":756,"o":"m 386 938 l 56 938 l 56 971 l 756 971 l 756 938 l 425 938 l 425 0 l 386 0 l 386 938 z "},"Ŧ":{"ha":811,"x_min":56,"x_max":756,"o":"m 386 460 l 188 460 l 188 493 l 386 493 l 386 938 l 56 938 l 56 971 l 756 971 l 756 938 l 425 938 l 425 493 l 621 493 l 621 460 l 425 460 l 425 0 l 386 0 l 386 460 z "},"Ť":{"ha":811,"x_min":56,"x_max":756,"o":"m 213 1299 l 256 1299 l 406 1119 l 556 1299 l 599 1299 l 421 1089 l 390 1089 l 213 1299 m 386 938 l 56 938 l 56 971 l 756 971 l 756 938 l 425 938 l 425 0 l 386 0 l 386 938 z "},"Ţ":{"ha":811,"x_min":56,"x_max":756,"o":"m 425 0 l 385 -103 q 485 -139 451 -106 q 519 -225 519 -172 q 483 -312 519 -279 q 376 -344 446 -344 q 335 -341 357 -344 q 300 -333 313 -337 l 300 -300 q 335 -308 313 -306 q 376 -311 357 -311 q 483 -224 483 -311 q 451 -152 483 -175 q 336 -129 418 -129 l 386 0 l 386 938 l 56 938 l 56 971 l 756 971 l 756 938 l 425 938 l 425 0 z "},"Ț":{"ha":811,"x_min":56,"x_max":756,"o":"m 386 938 l 56 938 l 56 971 l 756 971 l 756 938 l 425 938 l 425 0 l 386 0 l 386 938 m 386 -97 l 429 -97 l 311 -360 l 276 -360 l 386 -97 z "},"Ṭ":{"ha":811,"x_min":56,"x_max":756,"o":"m 386 938 l 56 938 l 56 971 l 756 971 l 756 938 l 425 938 l 425 0 l 386 0 l 386 938 m 406 -168 q 378 -156 390 -168 q 367 -129 367 -144 q 378 -102 367 -114 q 406 -90 390 -90 q 433 -102 421 -90 q 444 -129 444 -114 q 433 -156 444 -144 q 406 -168 421 -168 z "},"Ṯ":{"ha":811,"x_min":56,"x_max":756,"o":"m 386 938 l 56 938 l 56 971 l 756 971 l 756 938 l 425 938 l 425 0 l 386 0 l 386 938 m 213 -119 l 599 -119 l 599 -153 l 213 -153 l 213 -119 z "},"U":{"ha":931,"x_min":104,"x_max":826,"o":"m 465 -21 q 196 67 288 -21 q 104 318 104 156 l 104 971 l 143 971 l 143 304 q 231 84 143 156 q 465 13 318 13 q 700 84 613 13 q 788 304 788 156 l 788 971 l 826 971 l 826 318 q 735 67 826 156 q 465 -21 643 -21 z "},"Ú":{"ha":931,"x_min":104,"x_max":826,"o":"m 539 1332 l 578 1332 l 471 1100 l 440 1100 l 539 1332 m 465 -21 q 196 67 288 -21 q 104 318 104 156 l 104 971 l 143 971 l 143 304 q 231 84 143 156 q 465 13 318 13 q 700 84 613 13 q 788 304 788 156 l 788 971 l 826 971 l 826 318 q 735 67 826 156 q 465 -21 643 -21 z "},"Ŭ":{"ha":931,"x_min":104,"x_max":826,"o":"m 465 1053 q 347 1096 393 1053 q 301 1203 301 1139 l 335 1203 q 370 1118 335 1151 q 465 1085 406 1085 q 560 1118 525 1085 q 596 1203 596 1151 l 629 1203 q 583 1096 629 1139 q 465 1053 538 1053 m 465 -21 q 196 67 288 -21 q 104 318 104 156 l 104 971 l 143 971 l 143 304 q 231 84 143 156 q 465 13 318 13 q 700 84 613 13 q 788 304 788 156 l 788 971 l 826 971 l 826 318 q 735 67 826 156 q 465 -21 643 -21 z "},"Ǔ":{"ha":931,"x_min":104,"x_max":826,"o":"m 272 1299 l 315 1299 l 465 1119 l 615 1299 l 658 1299 l 481 1089 l 450 1089 l 272 1299 m 465 -21 q 196 67 288 -21 q 104 318 104 156 l 104 971 l 143 971 l 143 304 q 231 84 143 156 q 465 13 318 13 q 700 84 613 13 q 788 304 788 156 l 788 971 l 826 971 l 826 318 q 735 67 826 156 q 465 -21 643 -21 z "},"Û":{"ha":931,"x_min":104,"x_max":826,"o":"m 450 1318 l 481 1318 l 658 1108 l 615 1108 l 465 1288 l 315 1108 l 272 1108 l 450 1318 m 465 -21 q 196 67 288 -21 q 104 318 104 156 l 104 971 l 143 971 l 143 304 q 231 84 143 156 q 465 13 318 13 q 700 84 613 13 q 788 304 788 156 l 788 971 l 826 971 l 826 318 q 735 67 826 156 q 465 -21 643 -21 z "},"Ü":{"ha":931,"x_min":104,"x_max":826,"o":"m 328 1114 q 301 1126 313 1114 q 289 1153 289 1138 q 301 1180 289 1168 q 328 1192 313 1192 q 355 1180 343 1192 q 367 1153 367 1168 q 355 1126 367 1138 q 328 1114 343 1114 m 603 1114 q 576 1126 588 1114 q 564 1153 564 1138 q 576 1180 564 1168 q 603 1192 588 1192 q 630 1180 618 1192 q 642 1153 642 1168 q 630 1126 642 1138 q 603 1114 618 1114 m 465 -21 q 196 67 288 -21 q 104 318 104 156 l 104 971 l 143 971 l 143 304 q 231 84 143 156 q 465 13 318 13 q 700 84 613 13 q 788 304 788 156 l 788 971 l 826 971 l 826 318 q 735 67 826 156 q 465 -21 643 -21 z "},"Ǘ":{"ha":931,"x_min":104,"x_max":826,"o":"m 528 1338 l 567 1338 l 475 1154 l 444 1154 l 528 1338 m 333 1089 q 306 1101 318 1089 q 294 1128 294 1113 q 306 1155 294 1143 q 333 1167 318 1167 q 360 1155 349 1167 q 372 1128 372 1143 q 360 1101 372 1113 q 333 1089 349 1089 m 608 1089 q 581 1101 593 1089 q 569 1128 569 1113 q 581 1155 569 1143 q 608 1167 593 1167 q 635 1155 624 1167 q 647 1128 647 1143 q 635 1101 647 1113 q 608 1089 624 1089 m 465 -21 q 196 67 288 -21 q 104 318 104 156 l 104 971 l 143 971 l 143 304 q 231 84 143 156 q 465 13 318 13 q 700 84 613 13 q 788 304 788 156 l 788 971 l 826 971 l 826 318 q 735 67 826 156 q 465 -21 643 -21 z "},"Ǚ":{"ha":931,"x_min":104,"x_max":826,"o":"m 301 1338 l 344 1338 l 468 1185 l 592 1338 l 635 1338 l 483 1154 l 453 1154 l 301 1338 m 331 1089 q 303 1101 315 1089 q 292 1128 292 1113 q 303 1155 292 1143 q 331 1167 315 1167 q 358 1155 346 1167 q 369 1128 369 1143 q 358 1101 369 1113 q 331 1089 346 1089 m 606 1089 q 578 1101 590 1089 q 567 1128 567 1113 q 578 1155 567 1143 q 606 1167 590 1167 q 633 1155 621 1167 q 644 1128 644 1143 q 633 1101 644 1113 q 606 1089 621 1089 m 465 -21 q 196 67 288 -21 q 104 318 104 156 l 104 971 l 143 971 l 143 304 q 231 84 143 156 q 465 13 318 13 q 700 84 613 13 q 788 304 788 156 l 788 971 l 826 971 l 826 318 q 735 67 826 156 q 465 -21 643 -21 z "},"Ǜ":{"ha":931,"x_min":104,"x_max":826,"o":"m 368 1338 l 407 1338 l 490 1154 l 460 1154 l 368 1338 m 326 1089 q 299 1101 311 1089 q 288 1128 288 1113 q 299 1155 288 1143 q 326 1167 311 1167 q 353 1155 342 1167 q 365 1128 365 1143 q 353 1101 365 1113 q 326 1089 342 1089 m 601 1089 q 574 1101 586 1089 q 563 1128 563 1113 q 574 1155 563 1143 q 601 1167 586 1167 q 628 1155 617 1167 q 640 1128 640 1143 q 628 1101 640 1113 q 601 1089 617 1089 m 465 -21 q 196 67 288 -21 q 104 318 104 156 l 104 971 l 143 971 l 143 304 q 231 84 143 156 q 465 13 318 13 q 700 84 613 13 q 788 304 788 156 l 788 971 l 826 971 l 826 318 q 735 67 826 156 q 465 -21 643 -21 z "},"Ǖ":{"ha":931,"x_min":104,"x_max":826,"o":"m 272 1296 l 658 1296 l 658 1263 l 272 1263 l 272 1296 m 328 1053 q 301 1065 313 1053 q 289 1092 289 1076 q 301 1119 289 1107 q 328 1131 313 1131 q 355 1119 343 1131 q 367 1092 367 1107 q 355 1065 367 1076 q 328 1053 343 1053 m 603 1053 q 576 1065 588 1053 q 564 1092 564 1076 q 576 1119 564 1107 q 603 1131 588 1131 q 630 1119 618 1131 q 642 1092 642 1107 q 630 1065 642 1076 q 603 1053 618 1053 m 465 -21 q 196 67 288 -21 q 104 318 104 156 l 104 971 l 143 971 l 143 304 q 231 84 143 156 q 465 13 318 13 q 700 84 613 13 q 788 304 788 156 l 788 971 l 826 971 l 826 318 q 735 67 826 156 q 465 -21 643 -21 z "},"Ụ":{"ha":931,"x_min":104,"x_max":826,"o":"m 465 -21 q 196 67 288 -21 q 104 318 104 156 l 104 971 l 143 971 l 143 304 q 231 84 143 156 q 465 13 318 13 q 700 84 613 13 q 788 304 788 156 l 788 971 l 826 971 l 826 318 q 735 67 826 156 q 465 -21 643 -21 m 465 -168 q 438 -156 450 -168 q 426 -129 426 -144 q 438 -102 426 -114 q 465 -90 450 -90 q 492 -102 481 -90 q 504 -129 504 -114 q 492 -156 504 -144 q 465 -168 481 -168 z "},"Ù":{"ha":931,"x_min":104,"x_max":826,"o":"m 360 1332 l 399 1332 l 497 1100 l 467 1100 l 360 1332 m 465 -21 q 196 67 288 -21 q 104 318 104 156 l 104 971 l 143 971 l 143 304 q 231 84 143 156 q 465 13 318 13 q 700 84 613 13 q 788 304 788 156 l 788 971 l 826 971 l 826 318 q 735 67 826 156 q 465 -21 643 -21 z "},"Ủ":{"ha":931,"x_min":104,"x_max":826,"o":"m 438 1121 q 539 1144 510 1121 q 568 1214 568 1167 q 461 1301 568 1301 q 419 1299 442 1301 q 385 1290 397 1296 l 385 1324 q 419 1331 397 1328 q 461 1335 442 1335 q 567 1302 531 1335 q 604 1215 604 1269 q 569 1130 604 1163 q 469 1094 535 1097 l 469 1033 l 438 1033 l 438 1121 m 465 -21 q 196 67 288 -21 q 104 318 104 156 l 104 971 l 143 971 l 143 304 q 231 84 143 156 q 465 13 318 13 q 700 84 613 13 q 788 304 788 156 l 788 971 l 826 971 l 826 318 q 735 67 826 156 q 465 -21 643 -21 z "},"Ư":{"ha":1060,"x_min":104,"x_max":1004,"o":"m 465 -21 q 196 67 288 -21 q 104 318 104 156 l 104 971 l 143 971 l 143 304 q 231 84 143 156 q 465 13 318 13 q 700 84 613 13 q 788 304 788 156 l 788 971 l 826 971 l 826 861 q 929 898 888 861 q 971 986 971 935 l 971 1038 l 1004 1038 l 1004 986 q 980 908 1004 944 q 915 851 956 872 q 826 829 874 829 l 826 318 q 735 67 826 156 q 465 -21 643 -21 z "},"Ứ":{"ha":1060,"x_min":104,"x_max":1004,"o":"m 535 1321 l 574 1321 l 467 1089 l 436 1089 l 535 1321 m 465 -21 q 196 67 288 -21 q 104 318 104 156 l 104 971 l 143 971 l 143 304 q 231 84 143 156 q 465 13 318 13 q 700 84 613 13 q 788 304 788 156 l 788 971 l 826 971 l 826 861 q 929 898 888 861 q 971 986 971 935 l 971 1038 l 1004 1038 l 1004 986 q 980 908 1004 944 q 915 851 956 872 q 826 829 874 829 l 826 318 q 735 67 826 156 q 465 -21 643 -21 z "},"Ự":{"ha":1060,"x_min":104,"x_max":1004,"o":"m 465 -21 q 196 67 288 -21 q 104 318 104 156 l 104 971 l 143 971 l 143 304 q 231 84 143 156 q 465 13 318 13 q 700 84 613 13 q 788 304 788 156 l 788 971 l 826 971 l 826 861 q 929 898 888 861 q 971 986 971 935 l 971 1038 l 1004 1038 l 1004 986 q 980 908 1004 944 q 915 851 956 872 q 826 829 874 829 l 826 318 q 735 67 826 156 q 465 -21 643 -21 m 471 -168 q 444 -156 456 -168 q 432 -129 432 -144 q 444 -102 432 -114 q 471 -90 456 -90 q 498 -102 486 -90 q 510 -129 510 -114 q 498 -156 510 -144 q 471 -168 486 -168 z "},"Ừ":{"ha":1060,"x_min":104,"x_max":1004,"o":"m 382 1321 l 421 1321 l 519 1089 l 489 1089 l 382 1321 m 465 -21 q 196 67 288 -21 q 104 318 104 156 l 104 971 l 143 971 l 143 304 q 231 84 143 156 q 465 13 318 13 q 700 84 613 13 q 788 304 788 156 l 788 971 l 826 971 l 826 861 q 929 898 888 861 q 971 986 971 935 l 971 1038 l 1004 1038 l 1004 986 q 980 908 1004 944 q 915 851 956 872 q 826 829 874 829 l 826 318 q 735 67 826 156 q 465 -21 643 -21 z "},"Ử":{"ha":1060,"x_min":104,"x_max":1004,"o":"m 449 1176 q 550 1199 521 1176 q 579 1269 579 1222 q 472 1357 579 1357 q 431 1354 453 1357 q 396 1346 408 1351 l 396 1379 q 431 1387 408 1383 q 472 1390 453 1390 q 578 1358 542 1390 q 615 1271 615 1325 q 581 1185 615 1218 q 481 1150 546 1153 l 481 1089 l 449 1089 l 449 1176 m 465 -21 q 196 67 288 -21 q 104 318 104 156 l 104 971 l 143 971 l 143 304 q 231 84 143 156 q 465 13 318 13 q 700 84 613 13 q 788 304 788 156 l 788 971 l 826 971 l 826 861 q 929 898 888 861 q 971 986 971 935 l 971 1038 l 1004 1038 l 1004 986 q 980 908 1004 944 q 915 851 956 872 q 826 829 874 829 l 826 318 q 735 67 826 156 q 465 -21 643 -21 z "},"Ữ":{"ha":1060,"x_min":104,"x_max":1004,"o":"m 226 1135 q 351 1197 264 1197 q 409 1189 382 1197 q 475 1163 436 1181 q 537 1137 511 1146 q 593 1128 563 1128 q 662 1144 631 1128 q 718 1203 693 1161 l 718 1157 q 593 1094 681 1094 q 529 1103 558 1094 q 464 1131 500 1113 q 405 1156 429 1147 q 351 1164 381 1164 q 284 1147 314 1164 q 226 1089 254 1131 l 226 1135 m 465 -21 q 196 67 288 -21 q 104 318 104 156 l 104 971 l 143 971 l 143 304 q 231 84 143 156 q 465 13 318 13 q 700 84 613 13 q 788 304 788 156 l 788 971 l 826 971 l 826 861 q 929 898 888 861 q 971 986 971 935 l 971 1038 l 1004 1038 l 1004 986 q 980 908 1004 944 q 915 851 956 872 q 826 829 874 829 l 826 318 q 735 67 826 156 q 465 -21 643 -21 z "},"Ű":{"ha":931,"x_min":104,"x_max":826,"o":"m 410 1315 l 449 1315 l 342 1083 l 311 1083 l 410 1315 m 642 1315 l 681 1315 l 574 1083 l 543 1083 l 642 1315 m 465 -21 q 196 67 288 -21 q 104 318 104 156 l 104 971 l 143 971 l 143 304 q 231 84 143 156 q 465 13 318 13 q 700 84 613 13 q 788 304 788 156 l 788 971 l 826 971 l 826 318 q 735 67 826 156 q 465 -21 643 -21 z "},"Ū":{"ha":931,"x_min":104,"x_max":826,"o":"m 272 1163 l 658 1163 l 658 1129 l 272 1129 l 272 1163 m 465 -21 q 196 67 288 -21 q 104 318 104 156 l 104 971 l 143 971 l 143 304 q 231 84 143 156 q 465 13 318 13 q 700 84 613 13 q 788 304 788 156 l 788 971 l 826 971 l 826 318 q 735 67 826 156 q 465 -21 643 -21 z "},"Ų":{"ha":931,"x_min":104,"x_max":826,"o":"m 826 971 l 826 318 q 749 83 826 169 q 524 -18 672 -4 q 436 -174 436 -94 q 458 -233 436 -212 q 514 -253 479 -253 q 578 -242 551 -253 l 578 -275 q 514 -286 553 -286 q 433 -257 467 -286 q 400 -174 400 -228 q 422 -90 400 -131 q 479 -21 443 -50 l 465 -21 q 196 67 288 -21 q 104 318 104 156 l 104 971 l 143 971 l 143 304 q 231 84 143 156 q 465 13 318 13 q 700 84 613 13 q 788 304 788 156 l 788 971 l 826 971 z "},"Ů":{"ha":931,"x_min":104,"x_max":826,"o":"m 465 1056 q 376 1093 414 1056 q 339 1182 339 1131 q 376 1272 339 1235 q 465 1308 414 1308 q 555 1272 518 1308 q 592 1182 592 1235 q 555 1093 592 1131 q 465 1056 518 1056 m 465 1085 q 533 1113 506 1085 q 561 1182 561 1142 q 533 1251 561 1222 q 465 1279 506 1279 q 397 1251 425 1279 q 369 1182 369 1222 q 398 1113 369 1142 q 465 1085 426 1085 m 465 -21 q 196 67 288 -21 q 104 318 104 156 l 104 971 l 143 971 l 143 304 q 231 84 143 156 q 465 13 318 13 q 700 84 613 13 q 788 304 788 156 l 788 971 l 826 971 l 826 318 q 735 67 826 156 q 465 -21 643 -21 z "},"Ũ":{"ha":931,"x_min":104,"x_max":826,"o":"m 269 1135 q 394 1197 307 1197 q 452 1189 425 1197 q 518 1163 479 1181 q 581 1137 554 1146 q 636 1128 607 1128 q 705 1144 674 1128 q 761 1203 736 1161 l 761 1157 q 636 1094 724 1094 q 572 1103 601 1094 q 507 1131 543 1113 q 448 1156 472 1147 q 394 1164 424 1164 q 327 1147 357 1164 q 269 1089 297 1131 l 269 1135 m 465 -21 q 196 67 288 -21 q 104 318 104 156 l 104 971 l 143 971 l 143 304 q 231 84 143 156 q 465 13 318 13 q 700 84 613 13 q 788 304 788 156 l 788 971 l 826 971 l 826 318 q 735 67 826 156 q 465 -21 643 -21 z "},"V":{"ha":972,"x_min":83,"x_max":889,"o":"m 83 971 l 122 971 l 486 58 l 850 971 l 889 971 l 501 0 l 471 0 l 83 971 z "},"W":{"ha":1407,"x_min":83,"x_max":1324,"o":"m 83 971 l 122 971 l 403 65 l 683 971 l 724 971 l 1004 65 l 1285 971 l 1324 971 l 1019 0 l 989 0 l 703 924 l 418 0 l 388 0 l 83 971 z "},"Ẃ":{"ha":1407,"x_min":83,"x_max":1324,"o":"m 782 1319 l 821 1319 l 714 1088 l 683 1088 l 782 1319 m 83 971 l 122 971 l 403 65 l 683 971 l 724 971 l 1004 65 l 1285 971 l 1324 971 l 1019 0 l 989 0 l 703 924 l 418 0 l 388 0 l 83 971 z "},"Ŵ":{"ha":1407,"x_min":83,"x_max":1324,"o":"m 688 1299 l 718 1299 l 896 1089 l 853 1089 l 703 1268 l 553 1089 l 510 1089 l 688 1299 m 83 971 l 122 971 l 403 65 l 683 971 l 724 971 l 1004 65 l 1285 971 l 1324 971 l 1019 0 l 989 0 l 703 924 l 418 0 l 388 0 l 83 971 z "},"Ẅ":{"ha":1407,"x_min":83,"x_max":1324,"o":"m 565 1097 q 538 1109 550 1097 q 526 1136 526 1121 q 538 1163 526 1151 q 565 1175 550 1175 q 592 1163 581 1175 q 604 1136 604 1151 q 592 1109 604 1121 q 565 1097 581 1097 m 840 1097 q 813 1109 825 1097 q 801 1136 801 1121 q 813 1163 801 1151 q 840 1175 825 1175 q 867 1163 856 1175 q 879 1136 879 1151 q 867 1109 879 1121 q 840 1097 856 1097 m 83 971 l 122 971 l 403 65 l 683 971 l 724 971 l 1004 65 l 1285 971 l 1324 971 l 1019 0 l 989 0 l 703 924 l 418 0 l 388 0 l 83 971 z "},"Ẁ":{"ha":1407,"x_min":83,"x_max":1324,"o":"m 576 1319 l 615 1319 l 714 1088 l 683 1088 l 576 1319 m 83 971 l 122 971 l 403 65 l 683 971 l 724 971 l 1004 65 l 1285 971 l 1324 971 l 1019 0 l 989 0 l 703 924 l 418 0 l 388 0 l 83 971 z "},"X":{"ha":961,"x_min":83,"x_max":878,"o":"m 458 501 l 108 971 l 151 971 l 481 531 l 810 971 l 853 971 l 501 501 l 878 0 l 835 0 l 481 474 l 126 0 l 83 0 l 458 501 z "},"Y":{"ha":914,"x_min":83,"x_max":831,"o":"m 438 368 l 83 971 l 122 971 l 457 401 l 792 971 l 831 971 l 476 368 l 476 0 l 438 0 l 438 368 z "},"Ý":{"ha":914,"x_min":83,"x_max":831,"o":"m 529 1332 l 568 1332 l 461 1100 l 431 1100 l 529 1332 m 438 368 l 83 971 l 122 971 l 457 401 l 792 971 l 831 971 l 476 368 l 476 0 l 438 0 l 438 368 z "},"Ŷ":{"ha":914,"x_min":83,"x_max":831,"o":"m 442 1299 l 472 1299 l 650 1089 l 607 1089 l 457 1268 l 307 1089 l 264 1089 l 442 1299 m 438 368 l 83 971 l 122 971 l 457 401 l 792 971 l 831 971 l 476 368 l 476 0 l 438 0 l 438 368 z "},"Ÿ":{"ha":914,"x_min":83,"x_max":831,"o":"m 319 1114 q 292 1126 304 1114 q 281 1153 281 1138 q 292 1180 281 1168 q 319 1192 304 1192 q 347 1180 335 1192 q 358 1153 358 1168 q 347 1126 358 1138 q 319 1114 335 1114 m 594 1114 q 567 1126 579 1114 q 556 1153 556 1138 q 567 1180 556 1168 q 594 1192 579 1192 q 622 1180 610 1192 q 633 1153 633 1168 q 622 1126 633 1138 q 594 1114 610 1114 m 438 368 l 83 971 l 122 971 l 457 401 l 792 971 l 831 971 l 476 368 l 476 0 l 438 0 l 438 368 z "},"Ẏ":{"ha":914,"x_min":83,"x_max":831,"o":"m 457 1097 q 430 1109 442 1097 q 418 1136 418 1121 q 430 1163 418 1151 q 457 1175 442 1175 q 484 1163 472 1175 q 496 1136 496 1151 q 484 1109 496 1121 q 457 1097 472 1097 m 438 368 l 83 971 l 122 971 l 457 401 l 792 971 l 831 971 l 476 368 l 476 0 l 438 0 l 438 368 z "},"Ỵ":{"ha":914,"x_min":83,"x_max":831,"o":"m 438 368 l 83 971 l 122 971 l 457 401 l 792 971 l 831 971 l 476 368 l 476 0 l 438 0 l 438 368 m 457 -168 q 430 -156 442 -168 q 418 -129 418 -144 q 430 -102 418 -114 q 457 -90 442 -90 q 484 -102 472 -90 q 496 -129 496 -114 q 484 -156 496 -144 q 457 -168 472 -168 z "},"Ỳ":{"ha":914,"x_min":83,"x_max":831,"o":"m 347 1321 l 386 1321 l 485 1089 l 454 1089 l 347 1321 m 438 368 l 83 971 l 122 971 l 457 401 l 792 971 l 831 971 l 476 368 l 476 0 l 438 0 l 438 368 z "},"Ỷ":{"ha":914,"x_min":83,"x_max":831,"o":"m 424 1176 q 525 1199 496 1176 q 554 1269 554 1222 q 447 1357 554 1357 q 406 1354 428 1357 q 371 1346 383 1351 l 371 1379 q 406 1387 383 1383 q 447 1390 428 1390 q 553 1358 517 1390 q 590 1271 590 1325 q 556 1185 590 1218 q 456 1150 521 1153 l 456 1089 l 424 1089 l 424 1176 m 438 368 l 83 971 l 122 971 l 457 401 l 792 971 l 831 971 l 476 368 l 476 0 l 438 0 l 438 368 z "},"Ỹ":{"ha":914,"x_min":83,"x_max":831,"o":"m 211 1135 q 336 1197 249 1197 q 394 1189 367 1197 q 460 1163 421 1181 q 522 1137 496 1146 q 578 1128 549 1128 q 647 1144 615 1128 q 703 1203 678 1161 l 703 1157 q 578 1094 665 1094 q 514 1103 543 1094 q 449 1131 485 1113 q 390 1156 414 1147 q 336 1164 365 1164 q 269 1147 299 1164 q 211 1089 239 1131 l 211 1135 m 438 368 l 83 971 l 122 971 l 457 401 l 792 971 l 831 971 l 476 368 l 476 0 l 438 0 l 438 368 z "},"Z":{"ha":854,"x_min":83,"x_max":771,"o":"m 83 36 l 711 938 l 100 938 l 100 971 l 756 971 l 756 935 l 128 33 l 771 33 l 771 0 l 83 0 l 83 36 z "},"Ź":{"ha":854,"x_min":83,"x_max":771,"o":"m 474 1321 l 513 1321 l 406 1089 l 375 1089 l 474 1321 m 83 36 l 711 938 l 100 938 l 100 971 l 756 971 l 756 935 l 128 33 l 771 33 l 771 0 l 83 0 l 83 36 z "},"Ž":{"ha":854,"x_min":83,"x_max":771,"o":"m 244 1299 l 288 1299 l 438 1119 l 588 1299 l 631 1299 l 453 1089 l 422 1089 l 244 1299 m 83 36 l 711 938 l 100 938 l 100 971 l 756 971 l 756 935 l 128 33 l 771 33 l 771 0 l 83 0 l 83 36 z "},"Ż":{"ha":854,"x_min":83,"x_max":771,"o":"m 417 1097 q 390 1109 401 1097 q 378 1136 378 1121 q 390 1163 378 1151 q 417 1175 401 1175 q 444 1163 432 1175 q 456 1136 456 1151 q 444 1109 456 1121 q 417 1097 432 1097 m 83 36 l 711 938 l 100 938 l 100 971 l 756 971 l 756 935 l 128 33 l 771 33 l 771 0 l 83 0 l 83 36 z "},"Ẓ":{"ha":854,"x_min":83,"x_max":771,"o":"m 83 36 l 711 938 l 100 938 l 100 971 l 756 971 l 756 935 l 128 33 l 771 33 l 771 0 l 83 0 l 83 36 m 439 -168 q 412 -156 424 -168 q 400 -129 400 -144 q 412 -102 400 -114 q 439 -90 424 -90 q 466 -102 454 -90 q 478 -129 478 -114 q 466 -156 478 -144 q 439 -168 454 -168 z "},"a":{"ha":769,"x_min":83,"x_max":665,"o":"m 342 -21 q 153 33 224 -21 q 83 186 83 86 q 347 396 83 396 q 626 328 511 396 l 626 440 q 569 601 626 549 q 383 654 511 654 q 175 614 275 654 l 175 649 q 272 676 215 665 q 383 688 329 688 q 665 439 665 688 l 665 0 l 631 0 l 631 107 q 342 -21 540 -21 m 353 13 q 519 50 446 13 q 626 154 592 88 l 626 294 q 496 347 560 331 q 347 363 432 363 q 172 319 225 363 q 119 186 119 275 q 177 58 119 103 q 353 13 235 13 z "},"á":{"ha":769,"x_min":83,"x_max":665,"o":"m 476 1013 l 515 1013 l 408 781 l 378 781 l 476 1013 m 342 -21 q 153 33 224 -21 q 83 186 83 86 q 347 396 83 396 q 626 328 511 396 l 626 440 q 569 601 626 549 q 383 654 511 654 q 175 614 275 654 l 175 649 q 272 676 215 665 q 383 688 329 688 q 665 439 665 688 l 665 0 l 631 0 l 631 107 q 342 -21 540 -21 m 353 13 q 519 50 446 13 q 626 154 592 88 l 626 294 q 496 347 560 331 q 347 363 432 363 q 172 319 225 363 q 119 186 119 275 q 177 58 119 103 q 353 13 235 13 z "},"ă":{"ha":769,"x_min":83,"x_max":665,"o":"m 424 806 q 306 849 351 806 q 260 956 260 892 l 293 956 q 328 871 293 904 q 424 838 364 838 q 519 871 483 838 q 554 956 554 904 l 588 956 q 542 849 588 892 q 424 806 496 806 m 342 -21 q 153 33 224 -21 q 83 186 83 86 q 347 396 83 396 q 626 328 511 396 l 626 440 q 569 601 626 549 q 383 654 511 654 q 175 614 275 654 l 175 649 q 272 676 215 665 q 383 688 329 688 q 665 439 665 688 l 665 0 l 631 0 l 631 107 q 342 -21 540 -21 m 353 13 q 519 50 446 13 q 626 154 592 88 l 626 294 q 496 347 560 331 q 347 363 432 363 q 172 319 225 363 q 119 186 119 275 q 177 58 119 103 q 353 13 235 13 z "},"ắ":{"ha":769,"x_min":83,"x_max":665,"o":"m 439 1054 l 478 1054 l 394 888 l 364 888 l 439 1054 m 401 785 q 283 828 329 785 q 238 935 238 871 l 271 935 q 306 850 271 883 q 401 817 342 817 q 497 850 461 817 q 532 935 532 883 l 565 935 q 519 828 565 871 q 401 785 474 785 m 342 -21 q 153 33 224 -21 q 83 186 83 86 q 347 396 83 396 q 626 328 511 396 l 626 440 q 569 601 626 549 q 383 654 511 654 q 175 614 275 654 l 175 649 q 272 676 215 665 q 383 688 329 688 q 665 439 665 688 l 665 0 l 631 0 l 631 107 q 342 -21 540 -21 m 353 13 q 519 50 446 13 q 626 154 592 88 l 626 294 q 496 347 560 331 q 347 363 432 363 q 172 319 225 363 q 119 186 119 275 q 177 58 119 103 q 353 13 235 13 z "},"ặ":{"ha":769,"x_min":83,"x_max":665,"o":"m 396 778 q 278 821 324 778 q 232 928 232 864 l 265 928 q 301 843 265 876 q 396 810 336 810 q 491 843 456 810 q 526 928 526 876 l 560 928 q 514 821 560 864 q 396 778 468 778 m 342 -21 q 153 33 224 -21 q 83 186 83 86 q 347 396 83 396 q 626 328 511 396 l 626 440 q 569 601 626 549 q 383 654 511 654 q 175 614 275 654 l 175 649 q 272 676 215 665 q 383 688 329 688 q 665 439 665 688 l 665 0 l 631 0 l 631 107 q 342 -21 540 -21 m 353 13 q 519 50 446 13 q 626 154 592 88 l 626 294 q 496 347 560 331 q 347 363 432 363 q 172 319 225 363 q 119 186 119 275 q 177 58 119 103 q 353 13 235 13 m 396 -168 q 369 -156 381 -168 q 357 -129 357 -144 q 369 -102 357 -114 q 396 -90 381 -90 q 423 -102 411 -90 q 435 -129 435 -114 q 423 -156 435 -144 q 396 -168 411 -168 z "},"ằ":{"ha":769,"x_min":83,"x_max":665,"o":"m 324 1054 l 363 1054 l 438 888 l 407 888 l 324 1054 m 400 785 q 282 828 328 785 q 236 935 236 871 l 269 935 q 305 850 269 883 q 400 817 340 817 q 495 850 460 817 q 531 935 531 883 l 564 935 q 518 828 564 871 q 400 785 472 785 m 342 -21 q 153 33 224 -21 q 83 186 83 86 q 347 396 83 396 q 626 328 511 396 l 626 440 q 569 601 626 549 q 383 654 511 654 q 175 614 275 654 l 175 649 q 272 676 215 665 q 383 688 329 688 q 665 439 665 688 l 665 0 l 631 0 l 631 107 q 342 -21 540 -21 m 353 13 q 519 50 446 13 q 626 154 592 88 l 626 294 q 496 347 560 331 q 347 363 432 363 q 172 319 225 363 q 119 186 119 275 q 177 58 119 103 q 353 13 235 13 z "},"ẳ":{"ha":769,"x_min":83,"x_max":665,"o":"m 379 936 q 451 949 429 936 q 472 994 472 963 q 456 1038 472 1025 q 408 1050 440 1050 q 371 1047 390 1050 q 340 1038 351 1043 l 340 1069 q 408 1081 371 1081 q 481 1058 457 1081 q 506 994 506 1035 q 480 935 506 958 q 408 911 454 913 l 408 867 l 379 867 l 379 936 m 404 785 q 286 828 332 785 q 240 935 240 871 l 274 935 q 309 850 274 883 q 404 817 344 817 q 499 850 464 817 q 535 935 535 883 l 568 935 q 522 828 568 871 q 404 785 476 785 m 342 -21 q 153 33 224 -21 q 83 186 83 86 q 347 396 83 396 q 626 328 511 396 l 626 440 q 569 601 626 549 q 383 654 511 654 q 175 614 275 654 l 175 649 q 272 676 215 665 q 383 688 329 688 q 665 439 665 688 l 665 0 l 631 0 l 631 107 q 342 -21 540 -21 m 353 13 q 519 50 446 13 q 626 154 592 88 l 626 294 q 496 347 560 331 q 347 363 432 363 q 172 319 225 363 q 119 186 119 275 q 177 58 119 103 q 353 13 235 13 z "},"ẵ":{"ha":769,"x_min":83,"x_max":665,"o":"m 510 974 q 463 982 486 974 q 403 1008 439 990 q 351 1030 372 1022 q 313 1038 331 1038 q 259 1024 281 1038 q 217 975 238 1011 l 217 1017 q 253 1056 231 1043 q 313 1068 276 1068 q 356 1060 333 1068 q 414 1035 379 1051 q 471 1011 451 1018 q 510 1004 490 1004 q 564 1018 542 1004 q 606 1067 586 1032 l 606 1025 q 569 986 592 999 q 510 974 546 974 m 411 785 q 293 828 339 785 q 247 935 247 871 l 281 935 q 316 850 281 883 q 411 817 351 817 q 506 850 471 817 q 542 935 542 883 l 575 935 q 529 828 575 871 q 411 785 483 785 m 342 -21 q 153 33 224 -21 q 83 186 83 86 q 347 396 83 396 q 626 328 511 396 l 626 440 q 569 601 626 549 q 383 654 511 654 q 175 614 275 654 l 175 649 q 272 676 215 665 q 383 688 329 688 q 665 439 665 688 l 665 0 l 631 0 l 631 107 q 342 -21 540 -21 m 353 13 q 519 50 446 13 q 626 154 592 88 l 626 294 q 496 347 560 331 q 347 363 432 363 q 172 319 225 363 q 119 186 119 275 q 177 58 119 103 q 353 13 235 13 z "},"ǎ":{"ha":769,"x_min":83,"x_max":665,"o":"m 222 990 l 265 990 l 415 811 l 565 990 l 608 990 l 431 781 l 400 781 l 222 990 m 342 -21 q 153 33 224 -21 q 83 186 83 86 q 347 396 83 396 q 626 328 511 396 l 626 440 q 569 601 626 549 q 383 654 511 654 q 175 614 275 654 l 175 649 q 272 676 215 665 q 383 688 329 688 q 665 439 665 688 l 665 0 l 631 0 l 631 107 q 342 -21 540 -21 m 353 13 q 519 50 446 13 q 626 154 592 88 l 626 294 q 496 347 560 331 q 347 363 432 363 q 172 319 225 363 q 119 186 119 275 q 177 58 119 103 q 353 13 235 13 z "},"â":{"ha":769,"x_min":83,"x_max":665,"o":"m 382 990 l 413 990 l 590 781 l 547 781 l 397 960 l 247 781 l 204 781 l 382 990 m 342 -21 q 153 33 224 -21 q 83 186 83 86 q 347 396 83 396 q 626 328 511 396 l 626 440 q 569 601 626 549 q 383 654 511 654 q 175 614 275 654 l 175 649 q 272 676 215 665 q 383 688 329 688 q 665 439 665 688 l 665 0 l 631 0 l 631 107 q 342 -21 540 -21 m 353 13 q 519 50 446 13 q 626 154 592 88 l 626 294 q 496 347 560 331 q 347 363 432 363 q 172 319 225 363 q 119 186 119 275 q 177 58 119 103 q 353 13 235 13 z "},"ấ":{"ha":769,"x_min":83,"x_max":665,"o":"m 599 1040 l 638 1040 l 539 890 l 508 890 l 599 1040 m 379 943 l 410 943 l 588 775 l 544 775 l 394 917 l 244 775 l 201 775 l 379 943 m 342 -21 q 153 33 224 -21 q 83 186 83 86 q 347 396 83 396 q 626 328 511 396 l 626 440 q 569 601 626 549 q 383 654 511 654 q 175 614 275 654 l 175 649 q 272 676 215 665 q 383 688 329 688 q 665 439 665 688 l 665 0 l 631 0 l 631 107 q 342 -21 540 -21 m 353 13 q 519 50 446 13 q 626 154 592 88 l 626 294 q 496 347 560 331 q 347 363 432 363 q 172 319 225 363 q 119 186 119 275 q 177 58 119 103 q 353 13 235 13 z "},"ậ":{"ha":769,"x_min":83,"x_max":665,"o":"m 381 999 l 411 999 l 589 789 l 546 789 l 396 968 l 246 789 l 203 789 l 381 999 m 342 -21 q 153 33 224 -21 q 83 186 83 86 q 347 396 83 396 q 626 328 511 396 l 626 440 q 569 601 626 549 q 383 654 511 654 q 175 614 275 654 l 175 649 q 272 676 215 665 q 383 688 329 688 q 665 439 665 688 l 665 0 l 631 0 l 631 107 q 342 -21 540 -21 m 353 13 q 519 50 446 13 q 626 154 592 88 l 626 294 q 496 347 560 331 q 347 363 432 363 q 172 319 225 363 q 119 186 119 275 q 177 58 119 103 q 353 13 235 13 m 397 -168 q 370 -156 382 -168 q 358 -129 358 -144 q 370 -102 358 -114 q 397 -90 382 -90 q 424 -102 413 -90 q 436 -129 436 -114 q 424 -156 436 -144 q 397 -168 413 -168 z "},"ầ":{"ha":769,"x_min":83,"x_max":665,"o":"m 161 1040 l 200 1040 l 290 890 l 260 890 l 161 1040 m 389 943 l 419 943 l 597 775 l 554 775 l 404 917 l 254 775 l 211 775 l 389 943 m 342 -21 q 153 33 224 -21 q 83 186 83 86 q 347 396 83 396 q 626 328 511 396 l 626 440 q 569 601 626 549 q 383 654 511 654 q 175 614 275 654 l 175 649 q 272 676 215 665 q 383 688 329 688 q 665 439 665 688 l 665 0 l 631 0 l 631 107 q 342 -21 540 -21 m 353 13 q 519 50 446 13 q 626 154 592 88 l 626 294 q 496 347 560 331 q 347 363 432 363 q 172 319 225 363 q 119 186 119 275 q 177 58 119 103 q 353 13 235 13 z "},"ẩ":{"ha":769,"x_min":83,"x_max":665,"o":"m 518 939 q 590 952 568 939 q 611 997 611 965 q 595 1040 611 1028 q 547 1053 579 1053 q 510 1049 529 1053 q 479 1040 490 1046 l 479 1072 q 547 1083 510 1083 q 620 1060 596 1083 q 644 997 644 1038 q 619 938 644 961 q 547 914 593 915 l 547 876 l 518 876 l 518 939 m 386 943 l 417 943 l 594 775 l 551 775 l 401 917 l 251 775 l 208 775 l 386 943 m 342 -21 q 153 33 224 -21 q 83 186 83 86 q 347 396 83 396 q 626 328 511 396 l 626 440 q 569 601 626 549 q 383 654 511 654 q 175 614 275 654 l 175 649 q 272 676 215 665 q 383 688 329 688 q 665 439 665 688 l 665 0 l 631 0 l 631 107 q 342 -21 540 -21 m 353 13 q 519 50 446 13 q 626 154 592 88 l 626 294 q 496 347 560 331 q 347 363 432 363 q 172 319 225 363 q 119 186 119 275 q 177 58 119 103 q 353 13 235 13 z "},"ẫ":{"ha":769,"x_min":83,"x_max":665,"o":"m 497 961 q 450 969 474 961 q 390 996 426 978 q 339 1017 360 1010 q 300 1025 318 1025 q 247 1012 268 1025 q 204 963 225 999 l 204 1004 q 241 1043 218 1031 q 300 1056 264 1056 q 344 1047 321 1056 q 401 1022 367 1039 q 458 999 439 1006 q 497 992 478 992 q 551 1006 529 992 q 593 1054 574 1019 l 593 1013 q 556 974 579 986 q 497 961 533 961 m 383 943 l 414 943 l 592 775 l 549 775 l 399 917 l 249 775 l 206 775 l 383 943 m 342 -21 q 153 33 224 -21 q 83 186 83 86 q 347 396 83 396 q 626 328 511 396 l 626 440 q 569 601 626 549 q 383 654 511 654 q 175 614 275 654 l 175 649 q 272 676 215 665 q 383 688 329 688 q 665 439 665 688 l 665 0 l 631 0 l 631 107 q 342 -21 540 -21 m 353 13 q 519 50 446 13 q 626 154 592 88 l 626 294 q 496 347 560 331 q 347 363 432 363 q 172 319 225 363 q 119 186 119 275 q 177 58 119 103 q 353 13 235 13 z "},"ä":{"ha":769,"x_min":83,"x_max":665,"o":"m 274 794 q 247 806 258 794 q 235 833 235 818 q 247 860 235 849 q 274 872 258 872 q 301 860 289 872 q 313 833 313 849 q 301 806 313 818 q 274 794 289 794 m 549 794 q 522 806 533 794 q 510 833 510 818 q 522 860 510 849 q 549 872 533 872 q 576 860 564 872 q 588 833 588 849 q 576 806 588 818 q 549 794 564 794 m 342 -21 q 153 33 224 -21 q 83 186 83 86 q 347 396 83 396 q 626 328 511 396 l 626 440 q 569 601 626 549 q 383 654 511 654 q 175 614 275 654 l 175 649 q 272 676 215 665 q 383 688 329 688 q 665 439 665 688 l 665 0 l 631 0 l 631 107 q 342 -21 540 -21 m 353 13 q 519 50 446 13 q 626 154 592 88 l 626 294 q 496 347 560 331 q 347 363 432 363 q 172 319 225 363 q 119 186 119 275 q 177 58 119 103 q 353 13 235 13 z "},"ạ":{"ha":769,"x_min":83,"x_max":665,"o":"m 342 -21 q 153 33 224 -21 q 83 186 83 86 q 347 396 83 396 q 626 328 511 396 l 626 440 q 569 601 626 549 q 383 654 511 654 q 175 614 275 654 l 175 649 q 272 676 215 665 q 383 688 329 688 q 665 439 665 688 l 665 0 l 631 0 l 631 107 q 342 -21 540 -21 m 353 13 q 519 50 446 13 q 626 154 592 88 l 626 294 q 496 347 560 331 q 347 363 432 363 q 172 319 225 363 q 119 186 119 275 q 177 58 119 103 q 353 13 235 13 m 381 -168 q 353 -156 365 -168 q 342 -129 342 -144 q 353 -102 342 -114 q 381 -90 365 -90 q 408 -102 396 -90 q 419 -129 419 -114 q 408 -156 419 -144 q 381 -168 396 -168 z "},"à":{"ha":769,"x_min":83,"x_max":665,"o":"m 315 1013 l 354 1013 l 453 781 l 422 781 l 315 1013 m 342 -21 q 153 33 224 -21 q 83 186 83 86 q 347 396 83 396 q 626 328 511 396 l 626 440 q 569 601 626 549 q 383 654 511 654 q 175 614 275 654 l 175 649 q 272 676 215 665 q 383 688 329 688 q 665 439 665 688 l 665 0 l 631 0 l 631 107 q 342 -21 540 -21 m 353 13 q 519 50 446 13 q 626 154 592 88 l 626 294 q 496 347 560 331 q 347 363 432 363 q 172 319 225 363 q 119 186 119 275 q 177 58 119 103 q 353 13 235 13 z "},"ả":{"ha":769,"x_min":83,"x_max":665,"o":"m 393 868 q 494 891 465 868 q 524 961 524 914 q 417 1049 524 1049 q 375 1046 397 1049 q 340 1038 353 1043 l 340 1071 q 375 1078 353 1075 q 417 1082 397 1082 q 523 1049 486 1082 q 560 963 560 1017 q 525 877 560 910 q 425 842 490 844 l 425 781 l 393 781 l 393 868 m 342 -21 q 153 33 224 -21 q 83 186 83 86 q 347 396 83 396 q 626 328 511 396 l 626 440 q 569 601 626 549 q 383 654 511 654 q 175 614 275 654 l 175 649 q 272 676 215 665 q 383 688 329 688 q 665 439 665 688 l 665 0 l 631 0 l 631 107 q 342 -21 540 -21 m 353 13 q 519 50 446 13 q 626 154 592 88 l 626 294 q 496 347 560 331 q 347 363 432 363 q 172 319 225 363 q 119 186 119 275 q 177 58 119 103 q 353 13 235 13 z "},"ɑ":{"ha":900,"x_min":83,"x_max":789,"o":"m 431 -21 q 256 22 335 -21 q 130 146 176 65 q 83 332 83 226 q 129 518 83 438 q 255 643 175 599 q 431 688 335 688 q 622 641 533 688 q 750 507 710 594 l 750 667 l 789 667 l 789 0 l 750 0 l 750 157 q 621 25 703 71 q 431 -21 539 -21 m 431 13 q 633 71 547 13 q 750 233 718 129 l 750 431 q 633 594 721 535 q 431 654 546 654 q 274 615 346 654 q 161 501 203 575 q 119 332 119 428 q 161 164 119 236 q 274 52 203 92 q 431 13 346 13 z "},"ā":{"ha":769,"x_min":83,"x_max":665,"o":"m 217 860 l 603 860 l 603 826 l 217 826 l 217 860 m 342 -21 q 153 33 224 -21 q 83 186 83 86 q 347 396 83 396 q 626 328 511 396 l 626 440 q 569 601 626 549 q 383 654 511 654 q 175 614 275 654 l 175 649 q 272 676 215 665 q 383 688 329 688 q 665 439 665 688 l 665 0 l 631 0 l 631 107 q 342 -21 540 -21 m 353 13 q 519 50 446 13 q 626 154 592 88 l 626 294 q 496 347 560 331 q 347 363 432 363 q 172 319 225 363 q 119 186 119 275 q 177 58 119 103 q 353 13 235 13 z "},"ą":{"ha":800,"x_min":83,"x_max":696,"o":"m 632 -253 q 696 -242 669 -253 l 696 -275 q 632 -286 671 -286 q 551 -257 585 -286 q 518 -174 518 -228 q 548 -76 518 -122 q 625 0 578 -31 l 631 0 l 631 107 q 342 -21 540 -21 q 153 33 224 -21 q 83 186 83 86 q 347 396 83 396 q 626 328 511 396 l 626 440 q 569 601 626 549 q 383 654 511 654 q 175 614 275 654 l 175 649 q 272 676 215 665 q 383 688 329 688 q 665 439 665 688 l 665 0 l 664 0 q 554 -174 554 -85 q 576 -233 554 -212 q 632 -253 597 -253 m 626 294 q 496 347 560 331 q 347 363 432 363 q 172 319 225 363 q 119 186 119 275 q 177 58 119 103 q 353 13 235 13 q 519 50 446 13 q 626 154 592 88 l 626 294 z "},"å":{"ha":769,"x_min":83,"x_max":665,"o":"m 414 753 q 325 790 363 753 q 288 879 288 828 q 325 969 288 932 q 414 1006 363 1006 q 503 969 467 1006 q 540 879 540 932 q 503 790 540 828 q 414 753 467 753 m 414 782 q 482 810 454 782 q 510 879 510 839 q 482 948 510 919 q 414 976 454 976 q 346 948 374 976 q 318 879 318 919 q 347 810 318 839 q 414 782 375 782 m 342 -21 q 153 33 224 -21 q 83 186 83 86 q 347 396 83 396 q 626 328 511 396 l 626 440 q 569 601 626 549 q 383 654 511 654 q 175 614 275 654 l 175 649 q 272 676 215 665 q 383 688 329 688 q 665 439 665 688 l 665 0 l 631 0 l 631 107 q 342 -21 540 -21 m 353 13 q 519 50 446 13 q 626 154 592 88 l 626 294 q 496 347 560 331 q 347 363 432 363 q 172 319 225 363 q 119 186 119 275 q 177 58 119 103 q 353 13 235 13 z "},"ǻ":{"ha":769,"x_min":83,"x_max":665,"o":"m 476 1288 l 515 1288 l 408 1103 l 378 1103 l 476 1288 m 396 753 q 307 790 344 753 q 269 879 269 828 q 307 969 269 932 q 396 1006 344 1006 q 485 969 449 1006 q 522 879 522 932 q 485 790 522 828 q 396 753 449 753 m 396 782 q 464 810 436 782 q 492 879 492 839 q 464 948 492 919 q 396 976 436 976 q 328 948 356 976 q 300 879 300 919 q 328 810 300 839 q 396 782 357 782 m 342 -21 q 153 33 224 -21 q 83 186 83 86 q 347 396 83 396 q 626 328 511 396 l 626 440 q 569 601 626 549 q 383 654 511 654 q 175 614 275 654 l 175 649 q 272 676 215 665 q 383 688 329 688 q 665 439 665 688 l 665 0 l 631 0 l 631 107 q 342 -21 540 -21 m 353 13 q 519 50 446 13 q 626 154 592 88 l 626 294 q 496 347 560 331 q 347 363 432 363 q 172 319 225 363 q 119 186 119 275 q 177 58 119 103 q 353 13 235 13 z "},"ã":{"ha":769,"x_min":83,"x_max":665,"o":"m 164 826 q 289 889 201 889 q 347 881 319 889 q 413 854 374 872 q 474 828 449 838 q 531 819 500 819 q 599 836 568 819 q 656 894 631 853 l 656 849 q 531 786 618 786 q 467 795 496 786 q 401 822 438 804 q 342 847 367 839 q 289 856 318 856 q 222 839 251 856 q 164 781 192 822 l 164 826 m 342 -21 q 153 33 224 -21 q 83 186 83 86 q 347 396 83 396 q 626 328 511 396 l 626 440 q 569 601 626 549 q 383 654 511 654 q 175 614 275 654 l 175 649 q 272 676 215 665 q 383 688 329 688 q 665 439 665 688 l 665 0 l 631 0 l 631 107 q 342 -21 540 -21 m 353 13 q 519 50 446 13 q 626 154 592 88 l 626 294 q 496 347 560 331 q 347 363 432 363 q 172 319 225 363 q 119 186 119 275 q 177 58 119 103 q 353 13 235 13 z "},"æ":{"ha":1390,"x_min":83,"x_max":1307,"o":"m 342 -21 q 153 33 224 -21 q 83 186 83 86 q 347 396 83 396 q 626 328 511 396 l 626 440 q 569 601 626 549 q 383 654 511 654 q 175 614 275 654 l 175 649 q 272 676 215 665 q 383 688 329 688 q 658 499 625 688 q 775 638 696 588 q 968 688 854 688 q 1154 644 1078 688 q 1269 526 1231 601 q 1307 354 1307 451 l 1307 319 l 665 319 q 756 89 665 167 q 1001 11 847 11 q 1127 23 1065 11 q 1236 53 1189 35 l 1236 19 q 1130 -9 1197 3 q 1001 -21 1063 -21 q 781 31 868 -21 q 657 183 693 83 q 553 31 626 82 q 342 -21 479 -21 m 1272 351 q 1197 572 1272 489 q 968 656 1121 656 q 742 571 819 656 q 665 351 665 486 l 1272 351 m 353 13 q 554 71 482 13 q 626 240 626 129 l 626 294 q 496 347 560 331 q 347 363 432 363 q 172 319 225 363 q 119 186 119 275 q 177 58 119 103 q 353 13 235 13 z "},"ǽ":{"ha":1390,"x_min":83,"x_max":1307,"o":"m 726 1013 l 765 1013 l 658 781 l 628 781 l 726 1013 m 342 -21 q 153 33 224 -21 q 83 186 83 86 q 347 396 83 396 q 626 328 511 396 l 626 440 q 569 601 626 549 q 383 654 511 654 q 175 614 275 654 l 175 649 q 272 676 215 665 q 383 688 329 688 q 658 499 625 688 q 775 638 696 588 q 968 688 854 688 q 1154 644 1078 688 q 1269 526 1231 601 q 1307 354 1307 451 l 1307 319 l 665 319 q 756 89 665 167 q 1001 11 847 11 q 1127 23 1065 11 q 1236 53 1189 35 l 1236 19 q 1130 -9 1197 3 q 1001 -21 1063 -21 q 781 31 868 -21 q 657 183 693 83 q 553 31 626 82 q 342 -21 479 -21 m 1272 351 q 1197 572 1272 489 q 968 656 1121 656 q 742 571 819 656 q 665 351 665 486 l 1272 351 m 353 13 q 554 71 482 13 q 626 240 626 129 l 626 294 q 496 347 560 331 q 347 363 432 363 q 172 319 225 363 q 119 186 119 275 q 177 58 119 103 q 353 13 235 13 z "},"b":{"ha":900,"x_min":111,"x_max":817,"o":"m 469 -21 q 279 25 361 -21 q 150 157 197 71 l 150 0 l 111 0 l 111 1026 l 150 1026 l 150 507 q 278 641 190 594 q 469 688 367 688 q 645 643 565 688 q 771 518 725 599 q 817 332 817 438 q 770 146 817 226 q 644 22 724 65 q 469 -21 565 -21 m 469 13 q 626 52 554 13 q 739 164 697 92 q 781 332 781 236 q 739 501 781 428 q 626 615 697 575 q 469 654 554 654 q 267 594 354 654 q 150 431 179 535 l 150 233 q 267 71 182 129 q 469 13 353 13 z "},"c":{"ha":758,"x_min":83,"x_max":675,"o":"m 431 -21 q 256 22 335 -21 q 130 146 176 65 q 83 332 83 226 q 130 518 83 438 q 258 643 176 599 q 436 688 339 688 q 565 674 510 688 q 665 626 619 660 l 665 592 q 563 640 617 626 q 436 654 508 654 q 275 615 347 654 q 161 503 203 576 q 119 332 119 429 q 160 163 119 235 q 273 51 201 90 q 431 13 344 13 q 565 28 510 13 q 675 81 621 44 l 675 46 q 567 -5 626 11 q 431 -21 508 -21 z "},"ć":{"ha":758,"x_min":83,"x_max":675,"o":"m 510 1013 l 549 1013 l 442 781 l 411 781 l 510 1013 m 431 -21 q 256 22 335 -21 q 130 146 176 65 q 83 332 83 226 q 130 518 83 438 q 258 643 176 599 q 436 688 339 688 q 565 674 510 688 q 665 626 619 660 l 665 592 q 563 640 617 626 q 436 654 508 654 q 275 615 347 654 q 161 503 203 576 q 119 332 119 429 q 160 163 119 235 q 273 51 201 90 q 431 13 344 13 q 565 28 510 13 q 675 81 621 44 l 675 46 q 567 -5 626 11 q 431 -21 508 -21 z "},"č":{"ha":758,"x_min":83,"x_max":675,"o":"m 240 990 l 283 990 l 433 811 l 583 990 l 626 990 l 449 781 l 418 781 l 240 990 m 431 -21 q 256 22 335 -21 q 130 146 176 65 q 83 332 83 226 q 130 518 83 438 q 258 643 176 599 q 436 688 339 688 q 565 674 510 688 q 665 626 619 660 l 665 592 q 563 640 617 626 q 436 654 508 654 q 275 615 347 654 q 161 503 203 576 q 119 332 119 429 q 160 163 119 235 q 273 51 201 90 q 431 13 344 13 q 565 28 510 13 q 675 81 621 44 l 675 46 q 567 -5 626 11 q 431 -21 508 -21 z "},"ç":{"ha":758,"x_min":83,"x_max":675,"o":"m 675 46 q 576 -3 631 14 q 451 -21 522 -19 l 419 -103 q 520 -139 486 -106 q 554 -225 554 -172 q 517 -312 554 -279 q 411 -344 481 -344 q 369 -341 392 -344 q 335 -333 347 -337 l 335 -300 q 369 -308 347 -306 q 411 -311 392 -311 q 518 -224 518 -311 q 485 -152 518 -175 q 371 -129 453 -129 l 413 -21 q 246 28 321 -17 q 127 151 171 72 q 83 332 83 229 q 130 518 83 438 q 258 643 176 599 q 436 688 339 688 q 565 674 510 688 q 665 626 619 660 l 665 592 q 563 640 617 626 q 436 654 508 654 q 275 615 347 654 q 161 503 203 576 q 119 332 119 429 q 160 163 119 235 q 273 51 201 90 q 431 13 344 13 q 565 28 510 13 q 675 81 621 44 l 675 46 z "},"ĉ":{"ha":758,"x_min":83,"x_max":675,"o":"m 425 990 l 456 990 l 633 781 l 590 781 l 440 960 l 290 781 l 247 781 l 425 990 m 431 -21 q 256 22 335 -21 q 130 146 176 65 q 83 332 83 226 q 130 518 83 438 q 258 643 176 599 q 436 688 339 688 q 565 674 510 688 q 665 626 619 660 l 665 592 q 563 640 617 626 q 436 654 508 654 q 275 615 347 654 q 161 503 203 576 q 119 332 119 429 q 160 163 119 235 q 273 51 201 90 q 431 13 344 13 q 565 28 510 13 q 675 81 621 44 l 675 46 q 567 -5 626 11 q 431 -21 508 -21 z "},"ċ":{"ha":758,"x_min":83,"x_max":675,"o":"m 438 794 q 410 806 422 794 q 399 833 399 818 q 410 860 399 849 q 438 872 422 872 q 465 860 453 872 q 476 833 476 849 q 465 806 476 818 q 438 794 453 794 m 431 -21 q 256 22 335 -21 q 130 146 176 65 q 83 332 83 226 q 130 518 83 438 q 258 643 176 599 q 436 688 339 688 q 565 674 510 688 q 665 626 619 660 l 665 592 q 563 640 617 626 q 436 654 508 654 q 275 615 347 654 q 161 503 203 576 q 119 332 119 429 q 160 163 119 235 q 273 51 201 90 q 431 13 344 13 q 565 28 510 13 q 675 81 621 44 l 675 46 q 567 -5 626 11 q 431 -21 508 -21 z "},"d":{"ha":900,"x_min":83,"x_max":789,"o":"m 431 -21 q 256 22 335 -21 q 130 146 176 65 q 83 332 83 226 q 129 518 83 438 q 255 643 175 599 q 431 688 335 688 q 622 641 533 688 q 750 507 710 594 l 750 1026 l 789 1026 l 789 0 l 750 0 l 750 157 q 621 25 703 71 q 431 -21 539 -21 m 431 13 q 633 71 547 13 q 750 233 718 129 l 750 431 q 633 594 721 535 q 431 654 546 654 q 274 615 346 654 q 161 501 203 575 q 119 332 119 428 q 161 164 119 236 q 274 52 203 92 q 431 13 346 13 z "},"ð":{"ha":833,"x_min":83,"x_max":750,"o":"m 397 -21 q 233 19 304 -21 q 123 129 163 58 q 83 292 83 200 q 123 455 83 383 q 234 566 163 526 q 397 606 306 606 q 576 553 499 606 q 689 410 654 500 q 664 688 683 581 q 597 858 644 794 l 340 744 l 340 778 l 576 882 q 364 958 504 958 q 271 950 306 958 l 271 985 q 367 992 313 992 q 611 897 529 992 l 750 960 l 750 926 l 631 872 q 703 674 682 799 q 724 365 724 550 q 679 154 724 242 q 560 23 635 67 q 397 -21 486 -21 m 397 13 q 543 51 479 13 q 642 155 607 90 q 676 292 676 219 q 639 435 676 371 q 538 536 601 500 q 397 572 474 572 q 250 538 314 572 q 151 439 186 503 q 117 292 117 375 q 194 89 117 165 q 397 13 271 13 z "},"ď":{"ha":1051,"x_min":83,"x_max":1010,"o":"m 971 1096 l 1010 1096 l 903 864 l 872 864 l 971 1096 m 431 -19 q 256 24 335 -19 q 130 147 176 67 q 83 333 83 228 q 129 519 83 439 q 255 644 175 600 q 431 689 335 689 q 622 642 533 689 q 750 508 710 596 l 750 1028 l 789 1028 l 789 1 l 750 1 l 750 158 q 621 26 703 72 q 431 -19 539 -19 m 431 14 q 633 72 547 14 q 750 235 718 131 l 750 432 q 633 596 721 536 q 431 656 546 656 q 274 616 346 656 q 161 503 203 576 q 119 333 119 429 q 161 165 119 238 q 274 53 203 93 q 431 14 346 14 z "},"đ":{"ha":924,"x_min":83,"x_max":882,"o":"m 431 -21 q 256 22 335 -21 q 130 146 176 65 q 83 332 83 226 q 129 518 83 438 q 255 643 175 599 q 431 688 335 688 q 622 641 533 688 q 750 507 710 594 l 750 789 l 419 789 l 419 822 l 750 822 l 750 1026 l 789 1026 l 789 822 l 882 822 l 882 789 l 789 789 l 789 0 l 750 0 l 750 157 q 621 25 703 71 q 431 -21 539 -21 m 431 13 q 633 71 547 13 q 750 233 718 129 l 750 431 q 633 594 721 535 q 431 654 546 654 q 274 615 346 654 q 161 501 203 575 q 119 332 119 428 q 161 164 119 236 q 274 52 203 92 q 431 13 346 13 z "},"ḍ":{"ha":900,"x_min":83,"x_max":789,"o":"m 431 -21 q 256 22 335 -21 q 130 146 176 65 q 83 332 83 226 q 129 518 83 438 q 255 643 175 599 q 431 688 335 688 q 622 641 533 688 q 750 507 710 594 l 750 1026 l 789 1026 l 789 0 l 750 0 l 750 157 q 621 25 703 71 q 431 -21 539 -21 m 431 13 q 633 71 547 13 q 750 233 718 129 l 750 431 q 633 594 721 535 q 431 654 546 654 q 274 615 346 654 q 161 501 203 575 q 119 332 119 428 q 161 164 119 236 q 274 52 203 92 q 431 13 346 13 m 439 -168 q 412 -156 424 -168 q 400 -129 400 -144 q 412 -102 400 -114 q 439 -90 424 -90 q 466 -102 454 -90 q 478 -129 478 -114 q 466 -156 478 -144 q 439 -168 454 -168 z "},"ḏ":{"ha":900,"x_min":83,"x_max":789,"o":"m 431 -21 q 256 22 335 -21 q 130 146 176 65 q 83 332 83 226 q 129 518 83 438 q 255 643 175 599 q 431 688 335 688 q 622 641 533 688 q 750 507 710 594 l 750 1026 l 789 1026 l 789 0 l 750 0 l 750 157 q 621 25 703 71 q 431 -21 539 -21 m 431 13 q 633 71 547 13 q 750 233 718 129 l 750 431 q 633 594 721 535 q 431 654 546 654 q 274 615 346 654 q 161 501 203 575 q 119 332 119 428 q 161 164 119 236 q 274 52 203 92 q 431 13 346 13 m 247 -119 l 633 -119 l 633 -153 l 247 -153 l 247 -119 z "},"e":{"ha":843,"x_min":83,"x_max":760,"o":"m 454 -21 q 180 72 276 -21 q 83 333 83 165 q 172 592 83 497 q 421 688 260 688 q 607 644 531 688 q 722 526 683 601 q 760 354 760 451 l 760 319 l 118 319 q 208 90 118 169 q 454 11 299 11 q 580 23 518 11 q 689 53 642 35 l 689 19 q 583 -9 650 3 q 454 -21 515 -21 m 725 351 q 649 572 725 489 q 421 656 574 656 q 194 569 269 656 q 118 351 118 483 l 725 351 z "},"é":{"ha":843,"x_min":83,"x_max":760,"o":"m 479 1013 l 518 1013 l 411 781 l 381 781 l 479 1013 m 454 -21 q 180 72 276 -21 q 83 333 83 165 q 172 592 83 497 q 421 688 260 688 q 607 644 531 688 q 722 526 683 601 q 760 354 760 451 l 760 319 l 118 319 q 208 90 118 169 q 454 11 299 11 q 580 23 518 11 q 689 53 642 35 l 689 19 q 583 -9 650 3 q 454 -21 515 -21 m 725 351 q 649 572 725 489 q 421 656 574 656 q 194 569 269 656 q 118 351 118 483 l 725 351 z "},"ĕ":{"ha":843,"x_min":83,"x_max":760,"o":"m 425 781 q 307 824 353 781 q 261 931 261 867 l 294 931 q 330 846 294 879 q 425 813 365 813 q 520 846 485 813 q 556 931 556 879 l 589 931 q 543 824 589 867 q 425 781 497 781 m 454 -21 q 180 72 276 -21 q 83 333 83 165 q 172 592 83 497 q 421 688 260 688 q 607 644 531 688 q 722 526 683 601 q 760 354 760 451 l 760 319 l 118 319 q 208 90 118 169 q 454 11 299 11 q 580 23 518 11 q 689 53 642 35 l 689 19 q 583 -9 650 3 q 454 -21 515 -21 m 725 351 q 649 572 725 489 q 421 656 574 656 q 194 569 269 656 q 118 351 118 483 l 725 351 z "},"ě":{"ha":843,"x_min":83,"x_max":760,"o":"m 239 990 l 282 990 l 432 811 l 582 990 l 625 990 l 447 781 l 417 781 l 239 990 m 454 -21 q 180 72 276 -21 q 83 333 83 165 q 172 592 83 497 q 421 688 260 688 q 607 644 531 688 q 722 526 683 601 q 760 354 760 451 l 760 319 l 118 319 q 208 90 118 169 q 454 11 299 11 q 580 23 518 11 q 689 53 642 35 l 689 19 q 583 -9 650 3 q 454 -21 515 -21 m 725 351 q 649 572 725 489 q 421 656 574 656 q 194 569 269 656 q 118 351 118 483 l 725 351 z "},"ê":{"ha":843,"x_min":83,"x_max":760,"o":"m 410 990 l 440 990 l 618 781 l 575 781 l 425 960 l 275 781 l 232 781 l 410 990 m 454 -21 q 180 72 276 -21 q 83 333 83 165 q 172 592 83 497 q 421 688 260 688 q 607 644 531 688 q 722 526 683 601 q 760 354 760 451 l 760 319 l 118 319 q 208 90 118 169 q 454 11 299 11 q 580 23 518 11 q 689 53 642 35 l 689 19 q 583 -9 650 3 q 454 -21 515 -21 m 725 351 q 649 572 725 489 q 421 656 574 656 q 194 569 269 656 q 118 351 118 483 l 725 351 z "},"ế":{"ha":843,"x_min":83,"x_max":760,"o":"m 642 1040 l 681 1040 l 582 890 l 551 890 l 642 1040 m 422 943 l 453 943 l 631 775 l 588 775 l 438 917 l 288 775 l 244 775 l 422 943 m 454 -21 q 180 72 276 -21 q 83 333 83 165 q 172 592 83 497 q 421 688 260 688 q 607 644 531 688 q 722 526 683 601 q 760 354 760 451 l 760 319 l 118 319 q 208 90 118 169 q 454 11 299 11 q 580 23 518 11 q 689 53 642 35 l 689 19 q 583 -9 650 3 q 454 -21 515 -21 m 725 351 q 649 572 725 489 q 421 656 574 656 q 194 569 269 656 q 118 351 118 483 l 725 351 z "},"ệ":{"ha":843,"x_min":83,"x_max":760,"o":"m 410 971 l 440 971 l 618 761 l 575 761 l 425 940 l 275 761 l 232 761 l 410 971 m 454 -21 q 180 72 276 -21 q 83 333 83 165 q 172 592 83 497 q 421 688 260 688 q 607 644 531 688 q 722 526 683 601 q 760 354 760 451 l 760 319 l 118 319 q 208 90 118 169 q 454 11 299 11 q 580 23 518 11 q 689 53 642 35 l 689 19 q 583 -9 650 3 q 454 -21 515 -21 m 725 351 q 649 572 725 489 q 421 656 574 656 q 194 569 269 656 q 118 351 118 483 l 725 351 m 425 -168 q 398 -156 410 -168 q 386 -129 386 -144 q 398 -102 386 -114 q 425 -90 410 -90 q 452 -102 440 -90 q 464 -129 464 -114 q 452 -156 464 -144 q 425 -168 440 -168 z "},"ề":{"ha":843,"x_min":83,"x_max":760,"o":"m 193 1040 l 232 1040 l 322 890 l 292 890 l 193 1040 m 421 943 l 451 943 l 629 775 l 586 775 l 436 917 l 286 775 l 243 775 l 421 943 m 454 -21 q 180 72 276 -21 q 83 333 83 165 q 172 592 83 497 q 421 688 260 688 q 607 644 531 688 q 722 526 683 601 q 760 354 760 451 l 760 319 l 118 319 q 208 90 118 169 q 454 11 299 11 q 580 23 518 11 q 689 53 642 35 l 689 19 q 583 -9 650 3 q 454 -21 515 -21 m 725 351 q 649 572 725 489 q 421 656 574 656 q 194 569 269 656 q 118 351 118 483 l 725 351 z "},"ể":{"ha":843,"x_min":83,"x_max":760,"o":"m 557 939 q 628 952 607 939 q 650 997 650 965 q 634 1040 650 1028 q 586 1053 618 1053 q 549 1049 568 1053 q 518 1040 529 1046 l 518 1072 q 586 1083 549 1083 q 659 1060 635 1083 q 683 997 683 1038 q 658 938 683 961 q 586 914 632 915 l 586 876 l 557 876 l 557 939 m 425 943 l 456 943 l 633 775 l 590 775 l 440 917 l 290 775 l 247 775 l 425 943 m 454 -21 q 180 72 276 -21 q 83 333 83 165 q 172 592 83 497 q 421 688 260 688 q 607 644 531 688 q 722 526 683 601 q 760 354 760 451 l 760 319 l 118 319 q 208 90 118 169 q 454 11 299 11 q 580 23 518 11 q 689 53 642 35 l 689 19 q 583 -9 650 3 q 454 -21 515 -21 m 725 351 q 649 572 725 489 q 421 656 574 656 q 194 569 269 656 q 118 351 118 483 l 725 351 z "},"ễ":{"ha":843,"x_min":83,"x_max":760,"o":"m 526 961 q 479 969 503 961 q 419 996 456 978 q 368 1017 389 1010 q 329 1025 347 1025 q 276 1012 297 1025 q 233 963 254 999 l 233 1004 q 270 1043 247 1031 q 329 1056 293 1056 q 373 1047 350 1056 q 431 1022 396 1039 q 488 999 468 1006 q 526 992 507 992 q 581 1006 558 992 q 622 1054 603 1019 l 622 1013 q 585 974 608 986 q 526 961 563 961 m 413 943 l 443 943 l 621 775 l 578 775 l 428 917 l 278 775 l 235 775 l 413 943 m 454 -21 q 180 72 276 -21 q 83 333 83 165 q 172 592 83 497 q 421 688 260 688 q 607 644 531 688 q 722 526 683 601 q 760 354 760 451 l 760 319 l 118 319 q 208 90 118 169 q 454 11 299 11 q 580 23 518 11 q 689 53 642 35 l 689 19 q 583 -9 650 3 q 454 -21 515 -21 m 725 351 q 649 572 725 489 q 421 656 574 656 q 194 569 269 656 q 118 351 118 483 l 725 351 z "},"ë":{"ha":843,"x_min":83,"x_max":760,"o":"m 289 794 q 262 806 274 794 q 250 833 250 818 q 262 860 250 849 q 289 872 274 872 q 316 860 304 872 q 328 833 328 849 q 316 806 328 818 q 289 794 304 794 m 564 794 q 537 806 549 794 q 525 833 525 818 q 537 860 525 849 q 564 872 549 872 q 591 860 579 872 q 603 833 603 849 q 591 806 603 818 q 564 794 579 794 m 454 -21 q 180 72 276 -21 q 83 333 83 165 q 172 592 83 497 q 421 688 260 688 q 607 644 531 688 q 722 526 683 601 q 760 354 760 451 l 760 319 l 118 319 q 208 90 118 169 q 454 11 299 11 q 580 23 518 11 q 689 53 642 35 l 689 19 q 583 -9 650 3 q 454 -21 515 -21 m 725 351 q 649 572 725 489 q 421 656 574 656 q 194 569 269 656 q 118 351 118 483 l 725 351 z "},"ė":{"ha":843,"x_min":83,"x_max":760,"o":"m 440 801 q 413 813 425 801 q 401 840 401 825 q 413 867 401 856 q 440 879 425 879 q 467 867 456 879 q 479 840 479 856 q 467 813 479 825 q 440 801 456 801 m 454 -21 q 180 72 276 -21 q 83 333 83 165 q 172 592 83 497 q 421 688 260 688 q 607 644 531 688 q 722 526 683 601 q 760 354 760 451 l 760 319 l 118 319 q 208 90 118 169 q 454 11 299 11 q 580 23 518 11 q 689 53 642 35 l 689 19 q 583 -9 650 3 q 454 -21 515 -21 m 725 351 q 649 572 725 489 q 421 656 574 656 q 194 569 269 656 q 118 351 118 483 l 725 351 z "},"ẹ":{"ha":843,"x_min":83,"x_max":760,"o":"m 454 -21 q 180 72 276 -21 q 83 333 83 165 q 172 592 83 497 q 421 688 260 688 q 607 644 531 688 q 722 526 683 601 q 760 354 760 451 l 760 319 l 118 319 q 208 90 118 169 q 454 11 299 11 q 580 23 518 11 q 689 53 642 35 l 689 19 q 583 -9 650 3 q 454 -21 515 -21 m 725 351 q 649 572 725 489 q 421 656 574 656 q 194 569 269 656 q 118 351 118 483 l 725 351 m 419 -168 q 392 -156 404 -168 q 381 -129 381 -144 q 392 -102 381 -114 q 419 -90 404 -90 q 447 -102 435 -90 q 458 -129 458 -114 q 447 -156 458 -144 q 419 -168 435 -168 z "},"è":{"ha":843,"x_min":83,"x_max":760,"o":"m 326 1013 l 365 1013 l 464 781 l 433 781 l 326 1013 m 454 -21 q 180 72 276 -21 q 83 333 83 165 q 172 592 83 497 q 421 688 260 688 q 607 644 531 688 q 722 526 683 601 q 760 354 760 451 l 760 319 l 118 319 q 208 90 118 169 q 454 11 299 11 q 580 23 518 11 q 689 53 642 35 l 689 19 q 583 -9 650 3 q 454 -21 515 -21 m 725 351 q 649 572 725 489 q 421 656 574 656 q 194 569 269 656 q 118 351 118 483 l 725 351 z "},"ẻ":{"ha":843,"x_min":83,"x_max":760,"o":"m 413 874 q 514 897 485 874 q 543 967 543 919 q 436 1054 543 1054 q 394 1051 417 1054 q 360 1043 372 1049 l 360 1076 q 394 1084 372 1081 q 436 1088 417 1088 q 542 1055 506 1088 q 579 968 579 1022 q 544 883 579 915 q 444 847 510 850 l 444 786 l 413 786 l 413 874 m 454 -21 q 180 72 276 -21 q 83 333 83 165 q 172 592 83 497 q 421 688 260 688 q 607 644 531 688 q 722 526 683 601 q 760 354 760 451 l 760 319 l 118 319 q 208 90 118 169 q 454 11 299 11 q 580 23 518 11 q 689 53 642 35 l 689 19 q 583 -9 650 3 q 454 -21 515 -21 m 725 351 q 649 572 725 489 q 421 656 574 656 q 194 569 269 656 q 118 351 118 483 l 725 351 z "},"ē":{"ha":843,"x_min":83,"x_max":760,"o":"m 226 846 l 613 846 l 613 813 l 226 813 l 226 846 m 454 -21 q 180 72 276 -21 q 83 333 83 165 q 172 592 83 497 q 421 688 260 688 q 607 644 531 688 q 722 526 683 601 q 760 354 760 451 l 760 319 l 118 319 q 208 90 118 169 q 454 11 299 11 q 580 23 518 11 q 689 53 642 35 l 689 19 q 583 -9 650 3 q 454 -21 515 -21 m 725 351 q 649 572 725 489 q 421 656 574 656 q 194 569 269 656 q 118 351 118 483 l 725 351 z "},"ę":{"ha":843,"x_min":83,"x_max":760,"o":"m 760 319 l 118 319 q 208 90 118 169 q 454 11 299 11 q 580 23 518 11 q 689 53 642 35 l 689 19 q 599 -6 658 6 q 496 -174 496 -87 q 517 -233 496 -212 q 574 -253 539 -253 q 638 -242 611 -253 l 638 -275 q 574 -286 613 -286 q 493 -257 526 -286 q 460 -174 460 -228 q 483 -86 460 -128 q 547 -14 507 -44 q 454 -21 494 -21 q 180 72 276 -21 q 83 333 83 165 q 172 592 83 497 q 421 688 260 688 q 607 644 531 688 q 722 526 683 601 q 760 354 760 451 l 760 319 m 725 351 q 649 572 725 489 q 421 656 574 656 q 194 569 269 656 q 118 351 118 483 l 725 351 z "},"ẽ":{"ha":843,"x_min":83,"x_max":760,"o":"m 179 851 q 304 914 217 914 q 362 906 335 914 q 428 879 389 897 q 490 853 464 863 q 546 844 517 844 q 615 861 583 844 q 671 919 646 878 l 671 874 q 546 811 633 811 q 482 820 511 811 q 417 847 453 829 q 358 872 382 864 q 304 881 333 881 q 237 864 267 881 q 179 806 207 847 l 179 851 m 454 -21 q 180 72 276 -21 q 83 333 83 165 q 172 592 83 497 q 421 688 260 688 q 607 644 531 688 q 722 526 683 601 q 760 354 760 451 l 760 319 l 118 319 q 208 90 118 169 q 454 11 299 11 q 580 23 518 11 q 689 53 642 35 l 689 19 q 583 -9 650 3 q 454 -21 515 -21 m 725 351 q 649 572 725 489 q 421 656 574 656 q 194 569 269 656 q 118 351 118 483 l 725 351 z "},"f":{"ha":449,"x_min":56,"x_max":421,"o":"m 165 633 l 56 633 l 56 667 l 165 667 l 165 846 q 211 988 165 942 q 339 1033 257 1033 q 421 1025 383 1033 l 421 990 q 351 1000 390 1000 q 240 963 275 1000 q 204 849 204 926 l 204 667 l 381 667 l 381 633 l 204 633 l 204 0 l 165 0 l 165 633 z "},"g":{"ha":900,"x_min":83,"x_max":789,"o":"m 447 -319 q 316 -307 379 -319 q 214 -274 253 -294 l 214 -239 q 447 -286 313 -286 q 750 7 750 -286 l 750 160 q 621 26 708 72 q 431 -21 533 -21 q 255 24 335 -21 q 129 149 175 68 q 83 335 83 229 q 130 521 83 440 q 256 644 176 601 q 431 688 335 688 q 621 642 539 688 q 750 510 703 596 l 750 667 l 789 667 l 789 15 q 447 -319 789 -319 m 431 13 q 632 73 542 13 q 750 236 722 133 l 750 433 q 629 595 718 536 q 431 654 540 654 q 275 615 346 654 q 162 502 204 575 q 119 335 119 429 q 162 165 119 239 q 275 52 204 92 q 431 13 346 13 z "},"ğ":{"ha":900,"x_min":83,"x_max":789,"o":"m 439 781 q 321 824 367 781 q 275 931 275 867 l 308 931 q 344 846 308 879 q 439 813 379 813 q 534 846 499 813 q 569 931 569 879 l 603 931 q 557 824 603 867 q 439 781 511 781 m 447 -319 q 316 -307 379 -319 q 214 -274 253 -294 l 214 -239 q 447 -286 313 -286 q 750 7 750 -286 l 750 160 q 621 26 708 72 q 431 -21 533 -21 q 255 24 335 -21 q 129 149 175 68 q 83 335 83 229 q 130 521 83 440 q 256 644 176 601 q 431 688 335 688 q 621 642 539 688 q 750 510 703 596 l 750 667 l 789 667 l 789 15 q 447 -319 789 -319 m 431 13 q 632 73 542 13 q 750 236 722 133 l 750 433 q 629 595 718 536 q 431 654 540 654 q 275 615 346 654 q 162 502 204 575 q 119 335 119 429 q 162 165 119 239 q 275 52 204 92 q 431 13 346 13 z "},"ǧ":{"ha":900,"x_min":83,"x_max":789,"o":"m 261 990 l 304 990 l 454 811 l 604 990 l 647 990 l 469 781 l 439 781 l 261 990 m 447 -319 q 316 -307 379 -319 q 214 -274 253 -294 l 214 -239 q 447 -286 313 -286 q 750 7 750 -286 l 750 160 q 621 26 708 72 q 431 -21 533 -21 q 255 24 335 -21 q 129 149 175 68 q 83 335 83 229 q 130 521 83 440 q 256 644 176 601 q 431 688 335 688 q 621 642 539 688 q 750 510 703 596 l 750 667 l 789 667 l 789 15 q 447 -319 789 -319 m 431 13 q 632 73 542 13 q 750 236 722 133 l 750 433 q 629 595 718 536 q 431 654 540 654 q 275 615 346 654 q 162 502 204 575 q 119 335 119 429 q 162 165 119 239 q 275 52 204 92 q 431 13 346 13 z "},"ĝ":{"ha":900,"x_min":83,"x_max":789,"o":"m 447 990 l 478 990 l 656 781 l 613 781 l 463 960 l 313 781 l 269 781 l 447 990 m 447 -319 q 316 -307 379 -319 q 214 -274 253 -294 l 214 -239 q 447 -286 313 -286 q 750 7 750 -286 l 750 160 q 621 26 708 72 q 431 -21 533 -21 q 255 24 335 -21 q 129 149 175 68 q 83 335 83 229 q 130 521 83 440 q 256 644 176 601 q 431 688 335 688 q 621 642 539 688 q 750 510 703 596 l 750 667 l 789 667 l 789 15 q 447 -319 789 -319 m 431 13 q 632 73 542 13 q 750 236 722 133 l 750 433 q 629 595 718 536 q 431 654 540 654 q 275 615 346 654 q 162 502 204 575 q 119 335 119 429 q 162 165 119 239 q 275 52 204 92 q 431 13 346 13 z "},"ģ":{"ha":900,"x_min":83,"x_max":789,"o":"m 532 1043 l 567 1043 l 457 781 l 414 781 l 532 1043 m 447 -319 q 316 -307 379 -319 q 214 -274 253 -294 l 214 -239 q 447 -286 313 -286 q 750 7 750 -286 l 750 160 q 621 26 708 72 q 431 -21 533 -21 q 255 24 335 -21 q 129 149 175 68 q 83 335 83 229 q 130 521 83 440 q 256 644 176 601 q 431 688 335 688 q 621 642 539 688 q 750 510 703 596 l 750 667 l 789 667 l 789 15 q 447 -319 789 -319 m 431 13 q 632 73 542 13 q 750 236 722 133 l 750 433 q 629 595 718 536 q 431 654 540 654 q 275 615 346 654 q 162 502 204 575 q 119 335 119 429 q 162 165 119 239 q 275 52 204 92 q 431 13 346 13 z "},"ġ":{"ha":900,"x_min":83,"x_max":789,"o":"m 454 801 q 427 813 439 801 q 415 840 415 825 q 427 867 415 856 q 454 879 439 879 q 481 867 469 879 q 493 840 493 856 q 481 813 493 825 q 454 801 469 801 m 447 -319 q 316 -307 379 -319 q 214 -274 253 -294 l 214 -239 q 447 -286 313 -286 q 750 7 750 -286 l 750 160 q 621 26 708 72 q 431 -21 533 -21 q 255 24 335 -21 q 129 149 175 68 q 83 335 83 229 q 130 521 83 440 q 256 644 176 601 q 431 688 335 688 q 621 642 539 688 q 750 510 703 596 l 750 667 l 789 667 l 789 15 q 447 -319 789 -319 m 431 13 q 632 73 542 13 q 750 236 722 133 l 750 433 q 629 595 718 536 q 431 654 540 654 q 275 615 346 654 q 162 502 204 575 q 119 335 119 429 q 162 165 119 239 q 275 52 204 92 q 431 13 346 13 z "},"ḡ":{"ha":900,"x_min":83,"x_max":789,"o":"m 233 915 l 619 915 l 619 882 l 233 882 l 233 915 m 447 -319 q 316 -307 379 -319 q 214 -274 253 -294 l 214 -239 q 447 -286 313 -286 q 750 7 750 -286 l 750 160 q 621 26 708 72 q 431 -21 533 -21 q 255 24 335 -21 q 129 149 175 68 q 83 335 83 229 q 130 521 83 440 q 256 644 176 601 q 431 688 335 688 q 621 642 539 688 q 750 510 703 596 l 750 667 l 789 667 l 789 15 q 447 -319 789 -319 m 431 13 q 632 73 542 13 q 750 236 722 133 l 750 433 q 629 595 718 536 q 431 654 540 654 q 275 615 346 654 q 162 502 204 575 q 119 335 119 429 q 162 165 119 239 q 275 52 204 92 q 431 13 346 13 z "},"h":{"ha":796,"x_min":111,"x_max":692,"o":"m 111 1026 l 150 1026 l 150 543 q 279 653 204 619 q 438 688 354 688 q 629 622 567 688 q 692 443 692 556 l 692 0 l 653 0 l 653 442 q 602 599 653 544 q 438 654 551 654 q 150 490 260 654 l 150 0 l 111 0 l 111 1026 z "},"ħ":{"ha":808,"x_min":56,"x_max":704,"o":"m 124 803 l 56 803 l 56 836 l 124 836 l 124 1026 l 163 1026 l 163 836 l 449 836 l 449 803 l 163 803 l 163 543 q 292 653 217 619 q 450 688 367 688 q 642 622 579 688 q 704 443 704 556 l 704 0 l 665 0 l 665 442 q 615 599 665 544 q 450 654 564 654 q 163 490 272 654 l 163 0 l 124 0 l 124 803 z "},"ḫ":{"ha":796,"x_min":111,"x_max":692,"o":"m 111 1026 l 150 1026 l 150 543 q 279 653 204 619 q 438 688 354 688 q 629 622 567 688 q 692 443 692 556 l 692 0 l 653 0 l 653 442 q 602 599 653 544 q 438 654 551 654 q 150 490 260 654 l 150 0 l 111 0 l 111 1026 m 435 -243 q 317 -200 363 -243 q 271 -93 271 -157 l 304 -93 q 340 -178 304 -144 q 435 -211 375 -211 q 530 -178 494 -211 q 565 -93 565 -144 l 599 -93 q 553 -200 599 -157 q 435 -243 507 -243 z "},"ĥ":{"ha":796,"x_min":111,"x_max":692,"o":"m 293 1276 l 324 1276 l 501 1067 l 458 1067 l 308 1246 l 158 1067 l 115 1067 l 293 1276 m 111 1026 l 150 1026 l 150 543 q 279 653 204 619 q 438 688 354 688 q 629 622 567 688 q 692 443 692 556 l 692 0 l 653 0 l 653 442 q 602 599 653 544 q 438 654 551 654 q 150 490 260 654 l 150 0 l 111 0 l 111 1026 z "},"ḥ":{"ha":796,"x_min":111,"x_max":692,"o":"m 111 1026 l 150 1026 l 150 543 q 279 653 204 619 q 438 688 354 688 q 629 622 567 688 q 692 443 692 556 l 692 0 l 653 0 l 653 442 q 602 599 653 544 q 438 654 551 654 q 150 490 260 654 l 150 0 l 111 0 l 111 1026 m 422 -168 q 395 -156 407 -168 q 383 -129 383 -144 q 395 -102 383 -114 q 422 -90 407 -90 q 449 -102 438 -90 q 461 -129 461 -114 q 449 -156 461 -144 q 422 -168 438 -168 z "},"i":{"ha":294,"x_min":111,"x_max":183,"o":"m 147 839 q 122 850 133 839 q 111 875 111 861 q 122 901 111 890 q 147 911 133 911 q 173 901 163 911 q 183 875 183 890 q 173 850 183 861 q 147 839 163 839 m 128 667 l 167 667 l 167 0 l 128 0 l 128 667 z "},"ı":{"ha":261,"x_min":111,"x_max":150,"o":"m 111 667 l 150 667 l 150 0 l 111 0 l 111 667 z "},"í":{"ha":261,"x_min":111,"x_max":256,"o":"m 217 1013 l 256 1013 l 149 781 l 118 781 l 217 1013 m 111 667 l 150 667 l 150 0 l 111 0 l 111 667 z "},"ĭ":{"ha":261,"x_min":-33,"x_max":294,"o":"m 131 781 q 13 824 58 781 q -33 931 -33 867 l 0 931 q 35 846 0 879 q 131 813 71 813 q 226 846 190 813 q 261 931 261 879 l 294 931 q 249 824 294 867 q 131 781 203 781 m 111 667 l 150 667 l 150 0 l 111 0 l 111 667 z "},"ǐ":{"ha":261,"x_min":-62,"x_max":324,"o":"m -62 990 l -19 990 l 131 811 l 281 990 l 324 990 l 146 781 l 115 781 l -62 990 m 111 667 l 150 667 l 150 0 l 111 0 l 111 667 z "},"î":{"ha":261,"x_min":-62,"x_max":324,"o":"m 115 990 l 146 990 l 324 781 l 281 781 l 131 960 l -19 781 l -62 781 l 115 990 m 111 667 l 150 667 l 150 0 l 111 0 l 111 667 z "},"ï":{"ha":261,"x_min":-46,"x_max":307,"o":"m -7 794 q -34 806 -22 794 q -46 833 -46 818 q -34 860 -46 849 q -7 872 -22 872 q 20 860 8 872 q 32 833 32 849 q 20 806 32 818 q -7 794 8 794 m 268 794 q 241 806 253 794 q 229 833 229 818 q 241 860 229 849 q 268 872 253 872 q 295 860 283 872 q 307 833 307 849 q 295 806 307 818 q 268 794 283 794 m 111 667 l 150 667 l 150 0 l 111 0 l 111 667 z "},"ị":{"ha":294,"x_min":108,"x_max":186,"o":"m 147 839 q 122 850 133 839 q 111 875 111 861 q 122 901 111 890 q 147 911 133 911 q 173 901 163 911 q 183 875 183 890 q 173 850 183 861 q 147 839 163 839 m 128 667 l 167 667 l 167 0 l 128 0 l 128 667 m 147 -168 q 120 -156 132 -168 q 108 -129 108 -144 q 120 -102 108 -114 q 147 -90 132 -90 q 174 -102 163 -90 q 186 -129 186 -114 q 174 -156 186 -144 q 147 -168 163 -168 z "},"ì":{"ha":261,"x_min":14,"x_max":151,"o":"m 14 1013 l 53 1013 l 151 781 l 121 781 l 14 1013 m 111 667 l 150 667 l 150 0 l 111 0 l 111 667 z "},"ỉ":{"ha":261,"x_min":61,"x_max":281,"o":"m 114 869 q 215 892 186 869 q 244 963 244 915 q 138 1050 244 1050 q 96 1047 118 1050 q 61 1039 74 1044 l 61 1072 q 96 1080 74 1076 q 138 1083 118 1083 q 244 1051 207 1083 q 281 964 281 1018 q 246 878 281 911 q 146 843 211 846 l 146 782 l 114 782 l 114 869 m 111 667 l 150 667 l 150 0 l 111 0 l 111 667 z "},"ĳ":{"ha":496,"x_min":111,"x_max":385,"o":"m 147 839 q 122 850 133 839 q 111 875 111 861 q 122 901 111 890 q 147 911 133 911 q 173 901 163 911 q 183 875 183 890 q 173 850 183 861 q 147 839 163 839 m 349 839 q 324 850 335 839 q 313 875 313 861 q 324 901 313 890 q 349 911 335 911 q 374 901 364 911 q 385 875 385 890 q 374 850 385 861 q 349 839 364 839 m 204 -321 q 122 -312 160 -321 l 122 -278 q 192 -287 153 -287 q 299 -252 268 -287 q 329 -136 329 -217 l 329 667 l 368 667 l 368 -133 q 204 -321 368 -321 m 128 667 l 167 667 l 167 0 l 128 0 l 128 667 z "},"ī":{"ha":261,"x_min":-62,"x_max":324,"o":"m -62 846 l 324 846 l 324 813 l -62 813 l -62 846 m 111 667 l 150 667 l 150 0 l 111 0 l 111 667 z "},"į":{"ha":294,"x_min":21,"x_max":199,"o":"m 147 839 q 122 850 133 839 q 111 875 111 861 q 122 901 111 890 q 147 911 133 911 q 173 901 163 911 q 183 875 183 890 q 173 850 183 861 q 147 839 163 839 m 135 -253 q 199 -242 172 -253 l 199 -275 q 135 -286 174 -286 q 54 -257 88 -286 q 21 -174 21 -228 q 51 -76 21 -122 q 128 0 81 -31 l 128 667 l 167 667 l 167 0 q 57 -174 57 -85 q 78 -233 57 -212 q 135 -253 100 -253 z "},"ĩ":{"ha":261,"x_min":-115,"x_max":376,"o":"m -115 826 q 10 889 -78 889 q 67 881 40 889 q 133 854 94 872 q 195 828 169 838 q 251 819 221 819 q 320 836 289 819 q 376 894 351 853 l 376 849 q 251 786 339 786 q 188 795 217 786 q 122 822 158 804 q 63 847 88 839 q 10 856 39 856 q -58 839 -28 856 q -115 781 -87 822 l -115 826 m 111 667 l 150 667 l 150 0 l 111 0 l 111 667 z "},"j":{"ha":290,"x_min":-83,"x_max":179,"o":"m 143 839 q 118 850 129 839 q 107 875 107 861 q 118 901 107 890 q 143 911 129 911 q 169 901 158 911 q 179 875 179 890 q 169 850 179 861 q 143 839 158 839 m -1 -321 q -83 -312 -46 -321 l -83 -278 q -14 -287 -53 -287 q 93 -252 63 -287 q 124 -136 124 -217 l 124 667 l 163 667 l 163 -133 q -1 -321 163 -321 z "},"ȷ":{"ha":274,"x_min":-83,"x_max":163,"o":"m -1 -321 q -83 -312 -46 -321 l -83 -278 q -14 -287 -53 -287 q 93 -252 63 -287 q 124 -136 124 -217 l 124 667 l 163 667 l 163 -133 q -1 -321 163 -321 z "},"ĵ":{"ha":274,"x_min":-83,"x_max":338,"o":"m 129 990 l 160 990 l 338 781 l 294 781 l 144 960 l -6 781 l -49 781 l 129 990 m -1 -321 q -83 -312 -46 -321 l -83 -278 q -14 -287 -53 -287 q 93 -252 63 -287 q 124 -136 124 -217 l 124 667 l 163 667 l 163 -133 q -1 -321 163 -321 z "},"k":{"ha":672,"x_min":111,"x_max":589,"o":"m 111 1026 l 150 1026 l 150 338 l 503 667 l 558 667 l 199 333 l 589 0 l 533 0 l 150 329 l 150 0 l 111 0 l 111 1026 z "},"ķ":{"ha":672,"x_min":111,"x_max":589,"o":"m 111 1026 l 150 1026 l 150 338 l 503 667 l 558 667 l 199 333 l 589 0 l 533 0 l 150 329 l 150 0 l 111 0 l 111 1026 m 322 -97 l 365 -97 l 247 -360 l 213 -360 l 322 -97 z "},"ĸ":{"ha":672,"x_min":111,"x_max":589,"o":"m 111 667 l 150 667 l 150 338 l 503 667 l 558 667 l 199 333 l 589 0 l 533 0 l 150 329 l 150 0 l 111 0 l 111 667 z "},"l":{"ha":261,"x_min":111,"x_max":150,"o":"m 111 1026 l 150 1026 l 150 0 l 111 0 l 111 1026 z "},"ĺ":{"ha":261,"x_min":111,"x_max":254,"o":"m 215 1299 l 254 1299 l 147 1067 l 117 1067 l 215 1299 m 111 971 l 150 971 l 150 0 l 111 0 l 111 971 z "},"ľ":{"ha":493,"x_min":111,"x_max":392,"o":"m 111 1026 l 150 1026 l 150 0 l 111 0 l 111 1026 m 349 1026 l 392 1026 l 274 764 l 239 764 l 349 1026 z "},"ļ":{"ha":261,"x_min":0,"x_max":153,"o":"m 111 1026 l 150 1026 l 150 0 l 111 0 l 111 1026 m 110 -97 l 153 -97 l 35 -360 l 0 -360 l 110 -97 z "},"ŀ":{"ha":382,"x_min":111,"x_max":340,"o":"m 111 1026 l 150 1026 l 150 0 l 111 0 l 111 1026 m 301 488 q 274 499 286 488 q 263 526 263 511 q 274 553 263 542 q 301 565 286 565 q 328 553 317 565 q 340 526 340 542 q 328 499 340 511 q 301 488 317 488 z "},"ḷ":{"ha":261,"x_min":90,"x_max":168,"o":"m 111 1026 l 150 1026 l 150 0 l 111 0 l 111 1026 m 129 -168 q 102 -156 114 -168 q 90 -129 90 -144 q 102 -102 90 -114 q 129 -90 114 -90 q 156 -102 144 -90 q 168 -129 168 -114 q 156 -156 168 -144 q 129 -168 144 -168 z "},"ḹ":{"ha":261,"x_min":-62,"x_max":324,"o":"m -62 1163 l 324 1163 l 324 1129 l -62 1129 l -62 1163 m 111 1026 l 150 1026 l 150 0 l 111 0 l 111 1026 m 131 -168 q 103 -156 115 -168 q 92 -129 92 -144 q 103 -102 92 -114 q 131 -90 115 -90 q 158 -102 146 -90 q 169 -129 169 -114 q 158 -156 169 -144 q 131 -168 146 -168 z "},"ḻ":{"ha":261,"x_min":-62,"x_max":324,"o":"m 111 1026 l 150 1026 l 150 0 l 111 0 l 111 1026 m -62 -119 l 324 -119 l 324 -153 l -62 -153 l -62 -119 z "},"ł":{"ha":550,"x_min":42,"x_max":508,"o":"m 232 471 l 42 386 l 42 422 l 232 507 l 232 1026 l 271 1026 l 271 524 l 508 631 l 508 594 l 271 488 l 271 0 l 232 0 l 232 471 z "},"m":{"ha":1179,"x_min":111,"x_max":1075,"o":"m 111 667 l 150 667 l 150 547 q 266 656 206 625 q 401 688 326 688 q 541 656 493 688 q 606 558 589 624 q 858 688 692 688 q 1027 630 979 688 q 1075 450 1075 572 l 1075 0 l 1036 0 l 1036 449 q 999 606 1036 558 q 858 654 961 654 q 726 624 786 654 q 614 517 665 593 q 619 443 619 488 l 619 0 l 581 0 l 581 442 q 565 563 581 518 q 511 631 550 608 q 401 654 472 654 q 266 618 324 654 q 150 494 208 582 l 150 0 l 111 0 l 111 667 z "},"ṃ":{"ha":1179,"x_min":111,"x_max":1075,"o":"m 111 667 l 150 667 l 150 547 q 266 656 206 625 q 401 688 326 688 q 541 656 493 688 q 606 558 589 624 q 858 688 692 688 q 1027 630 979 688 q 1075 450 1075 572 l 1075 0 l 1036 0 l 1036 449 q 999 606 1036 558 q 858 654 961 654 q 726 624 786 654 q 614 517 665 593 q 619 443 619 488 l 619 0 l 581 0 l 581 442 q 565 563 581 518 q 511 631 550 608 q 401 654 472 654 q 266 618 324 654 q 150 494 208 582 l 150 0 l 111 0 l 111 667 m 603 -168 q 576 -156 588 -168 q 564 -129 564 -144 q 576 -102 564 -114 q 603 -90 588 -90 q 630 -102 618 -90 q 642 -129 642 -114 q 630 -156 642 -144 q 603 -168 618 -168 z "},"n":{"ha":796,"x_min":111,"x_max":692,"o":"m 111 667 l 150 667 l 150 543 q 279 653 204 619 q 438 688 354 688 q 629 622 567 688 q 692 443 692 556 l 692 0 l 653 0 l 653 442 q 602 599 653 544 q 438 654 551 654 q 150 490 260 654 l 150 0 l 111 0 l 111 667 z "},"ń":{"ha":796,"x_min":111,"x_max":692,"o":"m 489 1013 l 528 1013 l 421 781 l 390 781 l 489 1013 m 111 667 l 150 667 l 150 543 q 279 653 204 619 q 438 688 354 688 q 629 622 567 688 q 692 443 692 556 l 692 0 l 653 0 l 653 442 q 602 599 653 544 q 438 654 551 654 q 150 490 260 654 l 150 0 l 111 0 l 111 667 z "},"ŉ":{"ha":883,"x_min":56,"x_max":779,"o":"m 165 963 l 208 963 l 90 700 l 56 700 l 165 963 m 199 667 l 238 667 l 238 543 q 367 653 292 619 q 525 688 442 688 q 717 622 654 688 q 779 443 779 556 l 779 0 l 740 0 l 740 442 q 690 599 740 544 q 525 654 639 654 q 238 490 347 654 l 238 0 l 199 0 l 199 667 z "},"ň":{"ha":796,"x_min":111,"x_max":692,"o":"m 228 990 l 271 990 l 421 811 l 571 990 l 614 990 l 436 781 l 406 781 l 228 990 m 111 667 l 150 667 l 150 543 q 279 653 204 619 q 438 688 354 688 q 629 622 567 688 q 692 443 692 556 l 692 0 l 653 0 l 653 442 q 602 599 653 544 q 438 654 551 654 q 150 490 260 654 l 150 0 l 111 0 l 111 667 z "},"ņ":{"ha":796,"x_min":111,"x_max":692,"o":"m 111 667 l 150 667 l 150 543 q 279 653 204 619 q 438 688 354 688 q 629 622 567 688 q 692 443 692 556 l 692 0 l 653 0 l 653 442 q 602 599 653 544 q 438 654 551 654 q 150 490 260 654 l 150 0 l 111 0 l 111 667 m 426 -97 l 469 -97 l 351 -360 l 317 -360 l 426 -97 z "},"ṅ":{"ha":796,"x_min":111,"x_max":692,"o":"m 421 794 q 394 806 406 794 q 382 833 382 818 q 394 860 382 849 q 421 872 406 872 q 448 860 436 872 q 460 833 460 849 q 448 806 460 818 q 421 794 436 794 m 111 667 l 150 667 l 150 543 q 279 653 204 619 q 438 688 354 688 q 629 622 567 688 q 692 443 692 556 l 692 0 l 653 0 l 653 442 q 602 599 653 544 q 438 654 551 654 q 150 490 260 654 l 150 0 l 111 0 l 111 667 z "},"ṇ":{"ha":796,"x_min":111,"x_max":692,"o":"m 111 667 l 150 667 l 150 543 q 279 653 204 619 q 438 688 354 688 q 629 622 567 688 q 692 443 692 556 l 692 0 l 653 0 l 653 442 q 602 599 653 544 q 438 654 551 654 q 150 490 260 654 l 150 0 l 111 0 l 111 667 m 410 -168 q 383 -156 394 -168 q 371 -129 371 -144 q 383 -102 371 -114 q 410 -90 394 -90 q 437 -102 425 -90 q 449 -129 449 -114 q 437 -156 449 -144 q 410 -168 425 -168 z "},"ŋ":{"ha":796,"x_min":111,"x_max":692,"o":"m 528 -321 q 446 -312 483 -321 l 446 -278 q 515 -287 476 -287 q 622 -252 592 -287 q 653 -136 653 -217 l 653 442 q 602 599 653 544 q 438 654 551 654 q 150 490 260 654 l 150 0 l 111 0 l 111 667 l 150 667 l 150 543 q 279 653 204 619 q 438 688 354 688 q 629 622 567 688 q 692 443 692 556 l 692 -133 q 528 -321 692 -321 z "},"ṉ":{"ha":796,"x_min":111,"x_max":692,"o":"m 111 667 l 150 667 l 150 543 q 279 653 204 619 q 438 688 354 688 q 629 622 567 688 q 692 443 692 556 l 692 0 l 653 0 l 653 442 q 602 599 653 544 q 438 654 551 654 q 150 490 260 654 l 150 0 l 111 0 l 111 667 m 222 -119 l 608 -119 l 608 -153 l 222 -153 l 222 -119 z "},"ñ":{"ha":796,"x_min":111,"x_max":692,"o":"m 161 826 q 286 889 199 889 q 344 881 317 889 q 410 854 371 872 q 472 828 446 838 q 528 819 499 819 q 597 836 565 819 q 653 894 628 853 l 653 849 q 528 786 615 786 q 464 795 493 786 q 399 822 435 804 q 340 847 364 839 q 286 856 315 856 q 219 839 249 856 q 161 781 189 822 l 161 826 m 111 667 l 150 667 l 150 543 q 279 653 204 619 q 438 688 354 688 q 629 622 567 688 q 692 443 692 556 l 692 0 l 653 0 l 653 442 q 602 599 653 544 q 438 654 551 654 q 150 490 260 654 l 150 0 l 111 0 l 111 667 z "},"o":{"ha":864,"x_min":83,"x_max":781,"o":"m 432 -21 q 253 24 332 -21 q 128 149 174 68 q 83 333 83 229 q 128 518 83 438 q 253 643 174 599 q 432 688 332 688 q 611 643 532 688 q 735 518 690 599 q 781 333 781 438 q 735 149 781 229 q 611 24 690 68 q 432 -21 532 -21 m 432 13 q 593 52 522 13 q 704 164 664 92 q 744 333 744 236 q 704 502 744 429 q 593 615 664 575 q 432 654 522 654 q 271 615 342 654 q 160 502 200 575 q 119 333 119 429 q 160 164 119 236 q 271 52 200 92 q 432 13 342 13 z "},"ó":{"ha":864,"x_min":83,"x_max":781,"o":"m 476 1013 l 515 1013 l 408 781 l 378 781 l 476 1013 m 432 -21 q 253 24 332 -21 q 128 149 174 68 q 83 333 83 229 q 128 518 83 438 q 253 643 174 599 q 432 688 332 688 q 611 643 532 688 q 735 518 690 599 q 781 333 781 438 q 735 149 781 229 q 611 24 690 68 q 432 -21 532 -21 m 432 13 q 593 52 522 13 q 704 164 664 92 q 744 333 744 236 q 704 502 744 429 q 593 615 664 575 q 432 654 522 654 q 271 615 342 654 q 160 502 200 575 q 119 333 119 429 q 160 164 119 236 q 271 52 200 92 q 432 13 342 13 z "},"ŏ":{"ha":864,"x_min":83,"x_max":781,"o":"m 432 781 q 314 824 360 781 q 268 931 268 867 l 301 931 q 337 846 301 879 q 432 813 372 813 q 527 846 492 813 q 563 931 563 879 l 596 931 q 550 824 596 867 q 432 781 504 781 m 432 -21 q 253 24 332 -21 q 128 149 174 68 q 83 333 83 229 q 128 518 83 438 q 253 643 174 599 q 432 688 332 688 q 611 643 532 688 q 735 518 690 599 q 781 333 781 438 q 735 149 781 229 q 611 24 690 68 q 432 -21 532 -21 m 432 13 q 593 52 522 13 q 704 164 664 92 q 744 333 744 236 q 704 502 744 429 q 593 615 664 575 q 432 654 522 654 q 271 615 342 654 q 160 502 200 575 q 119 333 119 429 q 160 164 119 236 q 271 52 200 92 q 432 13 342 13 z "},"ǒ":{"ha":864,"x_min":83,"x_max":781,"o":"m 239 990 l 282 990 l 432 811 l 582 990 l 625 990 l 447 781 l 417 781 l 239 990 m 432 -21 q 253 24 332 -21 q 128 149 174 68 q 83 333 83 229 q 128 518 83 438 q 253 643 174 599 q 432 688 332 688 q 611 643 532 688 q 735 518 690 599 q 781 333 781 438 q 735 149 781 229 q 611 24 690 68 q 432 -21 532 -21 m 432 13 q 593 52 522 13 q 704 164 664 92 q 744 333 744 236 q 704 502 744 429 q 593 615 664 575 q 432 654 522 654 q 271 615 342 654 q 160 502 200 575 q 119 333 119 429 q 160 164 119 236 q 271 52 200 92 q 432 13 342 13 z "},"ô":{"ha":864,"x_min":83,"x_max":781,"o":"m 417 990 l 447 990 l 625 781 l 582 781 l 432 960 l 282 781 l 239 781 l 417 990 m 432 -21 q 253 24 332 -21 q 128 149 174 68 q 83 333 83 229 q 128 518 83 438 q 253 643 174 599 q 432 688 332 688 q 611 643 532 688 q 735 518 690 599 q 781 333 781 438 q 735 149 781 229 q 611 24 690 68 q 432 -21 532 -21 m 432 13 q 593 52 522 13 q 704 164 664 92 q 744 333 744 236 q 704 502 744 429 q 593 615 664 575 q 432 654 522 654 q 271 615 342 654 q 160 502 200 575 q 119 333 119 429 q 160 164 119 236 q 271 52 200 92 q 432 13 342 13 z "},"ố":{"ha":864,"x_min":83,"x_max":781,"o":"m 646 1046 l 685 1046 l 586 896 l 556 896 l 646 1046 m 426 949 l 457 949 l 635 781 l 592 781 l 442 922 l 292 781 l 249 781 l 426 949 m 432 -21 q 253 24 332 -21 q 128 149 174 68 q 83 333 83 229 q 128 518 83 438 q 253 643 174 599 q 432 688 332 688 q 611 643 532 688 q 735 518 690 599 q 781 333 781 438 q 735 149 781 229 q 611 24 690 68 q 432 -21 532 -21 m 432 13 q 593 52 522 13 q 704 164 664 92 q 744 333 744 236 q 704 502 744 429 q 593 615 664 575 q 432 654 522 654 q 271 615 342 654 q 160 502 200 575 q 119 333 119 429 q 160 164 119 236 q 271 52 200 92 q 432 13 342 13 z "},"ộ":{"ha":864,"x_min":83,"x_max":781,"o":"m 417 990 l 447 990 l 625 781 l 582 781 l 432 960 l 282 781 l 239 781 l 417 990 m 432 -21 q 253 24 332 -21 q 128 149 174 68 q 83 333 83 229 q 128 518 83 438 q 253 643 174 599 q 432 688 332 688 q 611 643 532 688 q 735 518 690 599 q 781 333 781 438 q 735 149 781 229 q 611 24 690 68 q 432 -21 532 -21 m 432 13 q 593 52 522 13 q 704 164 664 92 q 744 333 744 236 q 704 502 744 429 q 593 615 664 575 q 432 654 522 654 q 271 615 342 654 q 160 502 200 575 q 119 333 119 429 q 160 164 119 236 q 271 52 200 92 q 432 13 342 13 m 432 -168 q 405 -156 417 -168 q 393 -129 393 -144 q 405 -102 393 -114 q 432 -90 417 -90 q 459 -102 447 -90 q 471 -129 471 -114 q 459 -156 471 -144 q 432 -168 447 -168 z "},"ồ":{"ha":864,"x_min":83,"x_max":781,"o":"m 182 1046 l 221 1046 l 311 896 l 281 896 l 182 1046 m 410 949 l 440 949 l 618 781 l 575 781 l 425 922 l 275 781 l 232 781 l 410 949 m 432 -21 q 253 24 332 -21 q 128 149 174 68 q 83 333 83 229 q 128 518 83 438 q 253 643 174 599 q 432 688 332 688 q 611 643 532 688 q 735 518 690 599 q 781 333 781 438 q 735 149 781 229 q 611 24 690 68 q 432 -21 532 -21 m 432 13 q 593 52 522 13 q 704 164 664 92 q 744 333 744 236 q 704 502 744 429 q 593 615 664 575 q 432 654 522 654 q 271 615 342 654 q 160 502 200 575 q 119 333 119 429 q 160 164 119 236 q 271 52 200 92 q 432 13 342 13 z "},"ổ":{"ha":864,"x_min":83,"x_max":781,"o":"m 549 944 q 620 958 599 944 q 642 1003 642 971 q 626 1046 642 1033 q 578 1058 610 1058 q 540 1055 560 1058 q 510 1046 521 1051 l 510 1078 q 578 1089 540 1089 q 651 1066 626 1089 q 675 1003 675 1043 q 649 944 675 967 q 578 919 624 921 l 578 882 l 549 882 l 549 944 m 417 949 l 447 949 l 625 781 l 582 781 l 432 922 l 282 781 l 239 781 l 417 949 m 432 -21 q 253 24 332 -21 q 128 149 174 68 q 83 333 83 229 q 128 518 83 438 q 253 643 174 599 q 432 688 332 688 q 611 643 532 688 q 735 518 690 599 q 781 333 781 438 q 735 149 781 229 q 611 24 690 68 q 432 -21 532 -21 m 432 13 q 593 52 522 13 q 704 164 664 92 q 744 333 744 236 q 704 502 744 429 q 593 615 664 575 q 432 654 522 654 q 271 615 342 654 q 160 502 200 575 q 119 333 119 429 q 160 164 119 236 q 271 52 200 92 q 432 13 342 13 z "},"ỗ":{"ha":864,"x_min":83,"x_max":781,"o":"m 532 969 q 485 978 508 969 q 425 1004 461 986 q 374 1026 394 1018 q 335 1033 353 1033 q 281 1020 303 1033 q 239 971 260 1007 l 239 1013 q 276 1051 253 1039 q 335 1064 299 1064 q 378 1056 356 1064 q 436 1031 401 1047 q 493 1007 474 1014 q 532 1000 513 1000 q 586 1014 564 1000 q 628 1063 608 1028 l 628 1021 q 591 982 614 994 q 532 969 568 969 m 433 781 q 315 824 361 781 q 269 931 269 867 l 303 931 q 338 846 303 879 q 433 813 374 813 q 528 846 493 813 q 564 931 564 879 l 597 931 q 551 824 597 867 q 433 781 506 781 m 432 -21 q 253 24 332 -21 q 128 149 174 68 q 83 333 83 229 q 128 518 83 438 q 253 643 174 599 q 432 688 332 688 q 611 643 532 688 q 735 518 690 599 q 781 333 781 438 q 735 149 781 229 q 611 24 690 68 q 432 -21 532 -21 m 432 13 q 593 52 522 13 q 704 164 664 92 q 744 333 744 236 q 704 502 744 429 q 593 615 664 575 q 432 654 522 654 q 271 615 342 654 q 160 502 200 575 q 119 333 119 429 q 160 164 119 236 q 271 52 200 92 q 432 13 342 13 z "},"ö":{"ha":864,"x_min":83,"x_max":781,"o":"m 294 794 q 267 806 279 794 q 256 833 256 818 q 267 860 256 849 q 294 872 279 872 q 322 860 310 872 q 333 833 333 849 q 322 806 333 818 q 294 794 310 794 m 569 794 q 542 806 554 794 q 531 833 531 818 q 542 860 531 849 q 569 872 554 872 q 597 860 585 872 q 608 833 608 849 q 597 806 608 818 q 569 794 585 794 m 432 -21 q 253 24 332 -21 q 128 149 174 68 q 83 333 83 229 q 128 518 83 438 q 253 643 174 599 q 432 688 332 688 q 611 643 532 688 q 735 518 690 599 q 781 333 781 438 q 735 149 781 229 q 611 24 690 68 q 432 -21 532 -21 m 432 13 q 593 52 522 13 q 704 164 664 92 q 744 333 744 236 q 704 502 744 429 q 593 615 664 575 q 432 654 522 654 q 271 615 342 654 q 160 502 200 575 q 119 333 119 429 q 160 164 119 236 q 271 52 200 92 q 432 13 342 13 z "},"ọ":{"ha":864,"x_min":83,"x_max":781,"o":"m 432 -21 q 253 24 332 -21 q 128 149 174 68 q 83 333 83 229 q 128 518 83 438 q 253 643 174 599 q 432 688 332 688 q 611 643 532 688 q 735 518 690 599 q 781 333 781 438 q 735 149 781 229 q 611 24 690 68 q 432 -21 532 -21 m 432 13 q 593 52 522 13 q 704 164 664 92 q 744 333 744 236 q 704 502 744 429 q 593 615 664 575 q 432 654 522 654 q 271 615 342 654 q 160 502 200 575 q 119 333 119 429 q 160 164 119 236 q 271 52 200 92 q 432 13 342 13 m 432 -168 q 405 -156 417 -168 q 393 -129 393 -144 q 405 -102 393 -114 q 432 -90 417 -90 q 459 -102 447 -90 q 471 -129 471 -114 q 459 -156 471 -144 q 432 -168 447 -168 z "},"ò":{"ha":864,"x_min":83,"x_max":781,"o":"m 311 1013 l 350 1013 l 449 781 l 418 781 l 311 1013 m 432 -21 q 253 24 332 -21 q 128 149 174 68 q 83 333 83 229 q 128 518 83 438 q 253 643 174 599 q 432 688 332 688 q 611 643 532 688 q 735 518 690 599 q 781 333 781 438 q 735 149 781 229 q 611 24 690 68 q 432 -21 532 -21 m 432 13 q 593 52 522 13 q 704 164 664 92 q 744 333 744 236 q 704 502 744 429 q 593 615 664 575 q 432 654 522 654 q 271 615 342 654 q 160 502 200 575 q 119 333 119 429 q 160 164 119 236 q 271 52 200 92 q 432 13 342 13 z "},"ỏ":{"ha":864,"x_min":83,"x_max":781,"o":"m 408 869 q 510 892 481 869 q 539 963 539 915 q 432 1050 539 1050 q 390 1047 413 1050 q 356 1039 368 1044 l 356 1072 q 390 1080 368 1076 q 432 1083 413 1083 q 538 1051 501 1083 q 575 964 575 1018 q 540 878 575 911 q 440 843 506 846 l 440 782 l 408 782 l 408 869 m 432 -21 q 253 24 332 -21 q 128 149 174 68 q 83 333 83 229 q 128 518 83 438 q 253 643 174 599 q 432 688 332 688 q 611 643 532 688 q 735 518 690 599 q 781 333 781 438 q 735 149 781 229 q 611 24 690 68 q 432 -21 532 -21 m 432 13 q 593 52 522 13 q 704 164 664 92 q 744 333 744 236 q 704 502 744 429 q 593 615 664 575 q 432 654 522 654 q 271 615 342 654 q 160 502 200 575 q 119 333 119 429 q 160 164 119 236 q 271 52 200 92 q 432 13 342 13 z "},"ơ":{"ha":876,"x_min":83,"x_max":835,"o":"m 432 -21 q 253 24 333 -21 q 128 149 174 68 q 83 333 83 229 q 128 518 83 438 q 253 643 174 599 q 432 688 333 688 q 564 665 503 688 q 671 599 625 642 q 764 640 726 604 q 801 724 801 676 l 801 775 l 835 775 l 835 724 q 796 627 835 669 q 697 571 757 585 q 759 465 738 525 q 781 333 781 404 q 735 149 781 229 q 610 24 690 68 q 432 -21 531 -21 m 432 13 q 593 52 522 13 q 704 164 664 92 q 744 333 744 236 q 704 502 744 429 q 593 615 664 575 q 432 654 522 654 q 271 615 342 654 q 160 502 200 575 q 119 333 119 429 q 160 164 119 236 q 271 52 200 92 q 432 13 342 13 z "},"ớ":{"ha":890,"x_min":83,"x_max":835,"o":"m 503 1013 l 542 1013 l 435 781 l 404 781 l 503 1013 m 432 -21 q 253 24 333 -21 q 128 149 174 68 q 83 333 83 229 q 128 518 83 438 q 253 643 174 599 q 432 688 333 688 q 564 665 503 688 q 671 599 625 642 q 764 640 726 604 q 801 724 801 676 l 801 775 l 835 775 l 835 724 q 796 627 835 669 q 697 571 757 585 q 759 465 738 525 q 781 333 781 404 q 735 149 781 229 q 610 24 690 68 q 432 -21 531 -21 m 432 13 q 593 52 522 13 q 704 164 664 92 q 744 333 744 236 q 704 502 744 429 q 593 615 664 575 q 432 654 522 654 q 271 615 342 654 q 160 502 200 575 q 119 333 119 429 q 160 164 119 236 q 271 52 200 92 q 432 13 342 13 z "},"ợ":{"ha":890,"x_min":83,"x_max":835,"o":"m 432 -21 q 253 24 333 -21 q 128 149 174 68 q 83 333 83 229 q 128 518 83 438 q 253 643 174 599 q 432 688 333 688 q 564 665 503 688 q 671 599 625 642 q 764 640 726 604 q 801 724 801 676 l 801 775 l 835 775 l 835 724 q 796 627 835 669 q 697 571 757 585 q 759 465 738 525 q 781 333 781 404 q 735 149 781 229 q 610 24 690 68 q 432 -21 531 -21 m 432 13 q 593 52 522 13 q 704 164 664 92 q 744 333 744 236 q 704 502 744 429 q 593 615 664 575 q 432 654 522 654 q 271 615 342 654 q 160 502 200 575 q 119 333 119 429 q 160 164 119 236 q 271 52 200 92 q 432 13 342 13 m 426 -168 q 399 -156 411 -168 q 388 -129 388 -144 q 399 -102 388 -114 q 426 -90 411 -90 q 453 -102 442 -90 q 465 -129 465 -114 q 453 -156 465 -144 q 426 -168 442 -168 z "},"ờ":{"ha":890,"x_min":83,"x_max":835,"o":"m 326 1013 l 365 1013 l 464 781 l 433 781 l 326 1013 m 432 -21 q 253 24 333 -21 q 128 149 174 68 q 83 333 83 229 q 128 518 83 438 q 253 643 174 599 q 432 688 333 688 q 564 665 503 688 q 671 599 625 642 q 764 640 726 604 q 801 724 801 676 l 801 775 l 835 775 l 835 724 q 796 627 835 669 q 697 571 757 585 q 759 465 738 525 q 781 333 781 404 q 735 149 781 229 q 610 24 690 68 q 432 -21 531 -21 m 432 13 q 593 52 522 13 q 704 164 664 92 q 744 333 744 236 q 704 502 744 429 q 593 615 664 575 q 432 654 522 654 q 271 615 342 654 q 160 502 200 575 q 119 333 119 429 q 160 164 119 236 q 271 52 200 92 q 432 13 342 13 z "},"ở":{"ha":890,"x_min":83,"x_max":835,"o":"m 426 869 q 528 892 499 869 q 557 963 557 915 q 450 1050 557 1050 q 408 1047 431 1050 q 374 1039 386 1044 l 374 1072 q 408 1080 386 1076 q 450 1083 431 1083 q 556 1051 519 1083 q 593 964 593 1018 q 558 878 593 911 q 458 843 524 846 l 458 782 l 426 782 l 426 869 m 432 -21 q 253 24 333 -21 q 128 149 174 68 q 83 333 83 229 q 128 518 83 438 q 253 643 174 599 q 432 688 333 688 q 564 665 503 688 q 671 599 625 642 q 764 640 726 604 q 801 724 801 676 l 801 775 l 835 775 l 835 724 q 796 627 835 669 q 697 571 757 585 q 759 465 738 525 q 781 333 781 404 q 735 149 781 229 q 610 24 690 68 q 432 -21 531 -21 m 432 13 q 593 52 522 13 q 704 164 664 92 q 744 333 744 236 q 704 502 744 429 q 593 615 664 575 q 432 654 522 654 q 271 615 342 654 q 160 502 200 575 q 119 333 119 429 q 160 164 119 236 q 271 52 200 92 q 432 13 342 13 z "},"ỡ":{"ha":890,"x_min":83,"x_max":835,"o":"m 196 826 q 321 889 233 889 q 378 881 351 889 q 444 854 406 872 q 507 828 481 838 q 563 819 533 819 q 631 836 600 819 q 688 894 663 853 l 688 849 q 563 786 650 786 q 499 795 528 786 q 433 822 469 804 q 374 847 399 839 q 321 856 350 856 q 253 839 283 856 q 196 781 224 822 l 196 826 m 432 -21 q 253 24 333 -21 q 128 149 174 68 q 83 333 83 229 q 128 518 83 438 q 253 643 174 599 q 432 688 333 688 q 564 665 503 688 q 671 599 625 642 q 764 640 726 604 q 801 724 801 676 l 801 775 l 835 775 l 835 724 q 796 627 835 669 q 697 571 757 585 q 759 465 738 525 q 781 333 781 404 q 735 149 781 229 q 610 24 690 68 q 432 -21 531 -21 m 432 13 q 593 52 522 13 q 704 164 664 92 q 744 333 744 236 q 704 502 744 429 q 593 615 664 575 q 432 654 522 654 q 271 615 342 654 q 160 502 200 575 q 119 333 119 429 q 160 164 119 236 q 271 52 200 92 q 432 13 342 13 z "},"ő":{"ha":864,"x_min":83,"x_max":781,"o":"m 375 1013 l 414 1013 l 307 781 l 276 781 l 375 1013 m 607 1013 l 646 1013 l 539 781 l 508 781 l 607 1013 m 432 -21 q 253 24 332 -21 q 128 149 174 68 q 83 333 83 229 q 128 518 83 438 q 253 643 174 599 q 432 688 332 688 q 611 643 532 688 q 735 518 690 599 q 781 333 781 438 q 735 149 781 229 q 611 24 690 68 q 432 -21 532 -21 m 432 13 q 593 52 522 13 q 704 164 664 92 q 744 333 744 236 q 704 502 744 429 q 593 615 664 575 q 432 654 522 654 q 271 615 342 654 q 160 502 200 575 q 119 333 119 429 q 160 164 119 236 q 271 52 200 92 q 432 13 342 13 z "},"ō":{"ha":864,"x_min":83,"x_max":781,"o":"m 239 860 l 625 860 l 625 826 l 239 826 l 239 860 m 432 -21 q 253 24 332 -21 q 128 149 174 68 q 83 333 83 229 q 128 518 83 438 q 253 643 174 599 q 432 688 332 688 q 611 643 532 688 q 735 518 690 599 q 781 333 781 438 q 735 149 781 229 q 611 24 690 68 q 432 -21 532 -21 m 432 13 q 593 52 522 13 q 704 164 664 92 q 744 333 744 236 q 704 502 744 429 q 593 615 664 575 q 432 654 522 654 q 271 615 342 654 q 160 502 200 575 q 119 333 119 429 q 160 164 119 236 q 271 52 200 92 q 432 13 342 13 z "},"ø":{"ha":864,"x_min":83,"x_max":781,"o":"m 286 7 q 138 132 193 46 q 83 333 83 218 q 128 518 83 438 q 253 643 174 599 q 432 688 333 688 q 551 668 493 688 l 599 786 l 638 786 l 585 656 q 728 530 675 614 q 781 333 781 446 q 735 149 781 229 q 610 24 690 68 q 432 -21 531 -21 q 321 -4 374 -21 l 275 -119 l 236 -119 l 286 7 m 539 638 q 432 654 489 654 q 271 615 342 654 q 160 502 200 575 q 119 333 119 429 q 167 149 119 226 q 299 38 215 72 l 539 638 m 432 13 q 593 52 522 13 q 704 164 664 92 q 744 333 744 236 q 698 512 744 436 q 572 625 651 588 l 333 26 q 432 13 376 13 z "},"ǿ":{"ha":864,"x_min":83,"x_max":781,"o":"m 485 1013 l 524 1013 l 417 781 l 386 781 l 485 1013 m 286 7 q 138 132 193 46 q 83 333 83 218 q 128 518 83 438 q 253 643 174 599 q 432 688 333 688 q 551 668 493 688 l 599 786 l 638 786 l 585 656 q 728 530 675 614 q 781 333 781 446 q 735 149 781 229 q 610 24 690 68 q 432 -21 531 -21 q 321 -4 374 -21 l 275 -119 l 236 -119 l 286 7 m 539 638 q 432 654 489 654 q 271 615 342 654 q 160 502 200 575 q 119 333 119 429 q 167 149 119 226 q 299 38 215 72 l 539 638 m 432 13 q 593 52 522 13 q 704 164 664 92 q 744 333 744 236 q 698 512 744 436 q 572 625 651 588 l 333 26 q 432 13 376 13 z "},"õ":{"ha":864,"x_min":83,"x_max":781,"o":"m 186 826 q 311 889 224 889 q 369 881 342 889 q 435 854 396 872 q 497 828 471 838 q 553 819 524 819 q 622 836 590 819 q 678 894 653 853 l 678 849 q 553 786 640 786 q 489 795 518 786 q 424 822 460 804 q 365 847 389 839 q 311 856 340 856 q 244 839 274 856 q 186 781 214 822 l 186 826 m 432 -21 q 253 24 332 -21 q 128 149 174 68 q 83 333 83 229 q 128 518 83 438 q 253 643 174 599 q 432 688 332 688 q 611 643 532 688 q 735 518 690 599 q 781 333 781 438 q 735 149 781 229 q 611 24 690 68 q 432 -21 532 -21 m 432 13 q 593 52 522 13 q 704 164 664 92 q 744 333 744 236 q 704 502 744 429 q 593 615 664 575 q 432 654 522 654 q 271 615 342 654 q 160 502 200 575 q 119 333 119 429 q 160 164 119 236 q 271 52 200 92 q 432 13 342 13 z "},"œ":{"ha":1506,"x_min":83,"x_max":1422,"o":"m 432 -21 q 253 24 332 -21 q 128 149 174 68 q 83 333 83 229 q 128 518 83 438 q 253 643 174 599 q 432 688 332 688 q 638 626 550 688 q 761 457 726 564 q 873 627 790 567 q 1083 688 956 688 q 1269 644 1193 688 q 1384 526 1346 601 q 1422 354 1422 451 l 1422 319 l 781 319 q 871 90 781 169 q 1117 11 961 11 q 1242 23 1181 11 q 1351 53 1304 35 l 1351 19 q 1245 -9 1313 3 q 1117 -21 1178 -21 q 884 39 975 -21 q 761 210 793 99 q 638 41 726 103 q 432 -21 550 -21 m 1388 351 q 1312 572 1388 489 q 1083 656 1236 656 q 856 569 932 656 q 781 351 781 483 l 1388 351 m 432 13 q 593 52 522 13 q 704 164 664 92 q 744 333 744 236 q 704 502 744 429 q 593 615 664 575 q 432 654 522 654 q 271 615 342 654 q 160 502 200 575 q 119 333 119 429 q 160 164 119 236 q 271 52 200 92 q 432 13 342 13 z "},"p":{"ha":900,"x_min":111,"x_max":817,"o":"m 111 667 l 150 667 l 150 510 q 279 642 197 596 q 469 688 361 688 q 644 644 565 688 q 770 521 724 601 q 817 335 817 440 q 771 149 817 229 q 645 24 725 68 q 469 -21 565 -21 q 278 26 367 -21 q 150 160 190 72 l 150 -304 l 111 -304 l 111 667 m 469 13 q 626 52 554 13 q 739 165 697 92 q 781 335 781 239 q 739 503 781 431 q 626 615 697 575 q 469 654 554 654 q 267 596 353 654 q 150 433 182 538 l 150 236 q 267 72 179 132 q 469 13 354 13 z "},"þ":{"ha":900,"x_min":111,"x_max":817,"o":"m 111 971 l 150 971 l 150 510 q 279 642 197 596 q 469 688 361 688 q 644 644 565 688 q 770 521 724 601 q 817 335 817 440 q 771 149 817 229 q 645 24 725 68 q 469 -21 565 -21 q 278 26 367 -21 q 150 160 190 72 l 150 -304 l 111 -304 l 111 971 m 469 13 q 626 52 554 13 q 739 165 697 92 q 781 335 781 239 q 739 503 781 431 q 626 615 697 575 q 469 654 554 654 q 267 596 353 654 q 150 433 182 538 l 150 236 q 267 72 179 132 q 469 13 354 13 z "},"q":{"ha":900,"x_min":83,"x_max":789,"o":"m 750 160 q 622 26 710 72 q 431 -21 533 -21 q 255 24 335 -21 q 129 149 175 68 q 83 335 83 229 q 130 521 83 440 q 256 644 176 601 q 431 688 335 688 q 621 642 539 688 q 750 510 703 596 l 750 667 l 789 667 l 789 -304 l 750 -304 l 750 160 m 431 13 q 633 72 546 13 q 750 236 721 132 l 750 433 q 633 596 718 538 q 431 654 547 654 q 274 615 346 654 q 161 503 203 575 q 119 335 119 431 q 161 165 119 239 q 274 52 203 92 q 431 13 346 13 z "},"r":{"ha":525,"x_min":111,"x_max":469,"o":"m 111 667 l 150 667 l 150 514 q 275 631 194 596 q 469 667 356 667 l 469 633 q 150 438 214 633 l 150 0 l 111 0 l 111 667 z "},"ŕ":{"ha":525,"x_min":111,"x_max":469,"o":"m 338 1013 l 376 1013 l 269 781 l 239 781 l 338 1013 m 111 667 l 150 667 l 150 514 q 275 631 194 596 q 469 667 356 667 l 469 633 q 150 438 214 633 l 150 0 l 111 0 l 111 667 z "},"ř":{"ha":536,"x_min":83,"x_max":481,"o":"m 83 992 l 126 992 l 276 813 l 426 992 l 469 992 l 292 782 l 261 782 l 83 992 m 122 667 l 161 667 l 161 514 q 286 631 206 596 q 481 667 367 667 l 481 633 q 161 438 225 633 l 161 0 l 122 0 l 122 667 z "},"ŗ":{"ha":525,"x_min":1,"x_max":469,"o":"m 111 667 l 150 667 l 150 514 q 275 631 194 596 q 469 667 356 667 l 469 633 q 150 438 214 633 l 150 0 l 111 0 l 111 667 m 111 -97 l 154 -97 l 36 -360 l 1 -360 l 111 -97 z "},"ṛ":{"ha":531,"x_min":111,"x_max":475,"o":"m 117 667 l 156 667 l 156 514 q 281 631 200 596 q 475 667 361 667 l 475 633 q 156 438 219 633 l 156 0 l 117 0 l 117 667 m 150 -168 q 123 -156 135 -168 q 111 -129 111 -144 q 123 -102 111 -114 q 150 -90 135 -90 q 177 -102 165 -90 q 189 -129 189 -114 q 177 -156 189 -144 q 150 -168 165 -168 z "},"ṝ":{"ha":553,"x_min":104,"x_max":497,"o":"m 111 915 l 497 915 l 497 882 l 111 882 l 111 915 m 124 667 l 163 667 l 163 514 q 288 631 207 596 q 482 667 368 667 l 482 633 q 163 438 226 633 l 163 0 l 124 0 l 124 667 m 143 -168 q 116 -156 128 -168 q 104 -129 104 -144 q 116 -102 104 -114 q 143 -90 128 -90 q 170 -102 158 -90 q 182 -129 182 -114 q 170 -156 182 -144 q 143 -168 158 -168 z "},"ṟ":{"ha":553,"x_min":111,"x_max":497,"o":"m 136 667 l 175 667 l 175 514 q 300 631 219 596 q 494 667 381 667 l 494 633 q 175 438 239 633 l 175 0 l 136 0 l 136 667 m 111 -119 l 497 -119 l 497 -153 l 111 -153 l 111 -119 z "},"s":{"ha":639,"x_min":83,"x_max":556,"o":"m 315 -21 q 188 -2 257 -21 q 83 44 119 17 l 83 79 q 195 30 135 47 q 317 13 256 13 q 519 149 519 13 q 503 223 519 193 q 441 276 486 253 q 308 324 396 300 q 180 367 226 346 q 108 422 133 388 q 83 515 83 457 q 149 644 83 600 q 324 688 215 688 q 517 649 444 688 l 517 614 q 324 654 440 654 q 174 619 228 654 q 119 515 119 585 q 138 440 119 468 q 201 393 157 413 q 333 350 244 374 q 505 272 454 318 q 556 149 556 226 q 495 25 556 71 q 315 -21 435 -21 z "},"ś":{"ha":639,"x_min":83,"x_max":556,"o":"m 372 1013 l 411 1013 l 304 781 l 274 781 l 372 1013 m 315 -21 q 188 -2 257 -21 q 83 44 119 17 l 83 79 q 195 30 135 47 q 317 13 256 13 q 519 149 519 13 q 503 223 519 193 q 441 276 486 253 q 308 324 396 300 q 180 367 226 346 q 108 422 133 388 q 83 515 83 457 q 149 644 83 600 q 324 688 215 688 q 517 649 444 688 l 517 614 q 324 654 440 654 q 174 619 228 654 q 119 515 119 585 q 138 440 119 468 q 201 393 157 413 q 333 350 244 374 q 505 272 454 318 q 556 149 556 226 q 495 25 556 71 q 315 -21 435 -21 z "},"š":{"ha":639,"x_min":83,"x_max":556,"o":"m 131 990 l 174 990 l 324 811 l 474 990 l 517 990 l 339 781 l 308 781 l 131 990 m 315 -21 q 188 -2 257 -21 q 83 44 119 17 l 83 79 q 195 30 135 47 q 317 13 256 13 q 519 149 519 13 q 503 223 519 193 q 441 276 486 253 q 308 324 396 300 q 180 367 226 346 q 108 422 133 388 q 83 515 83 457 q 149 644 83 600 q 324 688 215 688 q 517 649 444 688 l 517 614 q 324 654 440 654 q 174 619 228 654 q 119 515 119 585 q 138 440 119 468 q 201 393 157 413 q 333 350 244 374 q 505 272 454 318 q 556 149 556 226 q 495 25 556 71 q 315 -21 435 -21 z "},"ş":{"ha":639,"x_min":83,"x_max":556,"o":"m 556 149 q 503 31 556 76 q 349 -19 451 -14 l 317 -103 q 417 -139 383 -106 q 451 -225 451 -172 q 415 -312 451 -279 q 308 -344 378 -344 q 267 -341 289 -344 q 232 -333 244 -337 l 232 -300 q 267 -308 244 -306 q 308 -311 289 -311 q 415 -224 415 -311 q 383 -152 415 -175 q 268 -129 350 -129 l 310 -21 q 186 -1 253 -19 q 83 44 119 18 l 83 79 q 195 30 135 47 q 317 13 256 13 q 519 149 519 13 q 503 223 519 193 q 441 276 486 253 q 308 324 396 300 q 180 367 226 346 q 108 422 133 388 q 83 515 83 457 q 149 644 83 600 q 324 688 215 688 q 517 649 444 688 l 517 614 q 324 654 440 654 q 174 619 228 654 q 119 515 119 585 q 138 440 119 468 q 201 393 157 413 q 333 350 244 374 q 505 272 454 318 q 556 149 556 226 z "},"ŝ":{"ha":639,"x_min":83,"x_max":556,"o":"m 308 992 l 339 992 l 517 782 l 474 782 l 324 961 l 174 782 l 131 782 l 308 992 m 315 -21 q 188 -2 257 -21 q 83 44 119 17 l 83 79 q 195 30 135 47 q 317 13 256 13 q 519 149 519 13 q 503 223 519 193 q 441 276 486 253 q 308 324 396 300 q 180 367 226 346 q 108 422 133 388 q 83 515 83 457 q 149 644 83 600 q 324 688 215 688 q 517 649 444 688 l 517 614 q 324 654 440 654 q 174 619 228 654 q 119 515 119 585 q 138 440 119 468 q 201 393 157 413 q 333 350 244 374 q 505 272 454 318 q 556 149 556 226 q 495 25 556 71 q 315 -21 435 -21 z "},"ș":{"ha":639,"x_min":83,"x_max":556,"o":"m 315 -21 q 188 -2 257 -21 q 83 44 119 17 l 83 79 q 195 30 135 47 q 317 13 256 13 q 519 149 519 13 q 503 223 519 193 q 441 276 486 253 q 308 324 396 300 q 180 367 226 346 q 108 422 133 388 q 83 515 83 457 q 149 644 83 600 q 324 688 215 688 q 517 649 444 688 l 517 614 q 324 654 440 654 q 174 619 228 654 q 119 515 119 585 q 138 440 119 468 q 201 393 157 413 q 333 350 244 374 q 505 272 454 318 q 556 149 556 226 q 495 25 556 71 q 315 -21 435 -21 m 318 -97 l 361 -97 l 243 -360 l 208 -360 l 318 -97 z "},"ṡ":{"ha":639,"x_min":83,"x_max":556,"o":"m 325 794 q 298 806 310 794 q 286 833 286 818 q 298 860 286 849 q 325 872 310 872 q 352 860 340 872 q 364 833 364 849 q 352 806 364 818 q 325 794 340 794 m 315 -21 q 188 -2 257 -21 q 83 44 119 17 l 83 79 q 195 30 135 47 q 317 13 256 13 q 519 149 519 13 q 503 223 519 193 q 441 276 486 253 q 308 324 396 300 q 180 367 226 346 q 108 422 133 388 q 83 515 83 457 q 149 644 83 600 q 324 688 215 688 q 517 649 444 688 l 517 614 q 324 654 440 654 q 174 619 228 654 q 119 515 119 585 q 138 440 119 468 q 201 393 157 413 q 333 350 244 374 q 505 272 454 318 q 556 149 556 226 q 495 25 556 71 q 315 -21 435 -21 z "},"ṣ":{"ha":639,"x_min":83,"x_max":556,"o":"m 315 -21 q 188 -2 257 -21 q 83 44 119 17 l 83 79 q 195 30 135 47 q 317 13 256 13 q 519 149 519 13 q 503 223 519 193 q 441 276 486 253 q 308 324 396 300 q 180 367 226 346 q 108 422 133 388 q 83 515 83 457 q 149 644 83 600 q 324 688 215 688 q 517 649 444 688 l 517 614 q 324 654 440 654 q 174 619 228 654 q 119 515 119 585 q 138 440 119 468 q 201 393 157 413 q 333 350 244 374 q 505 272 454 318 q 556 149 556 226 q 495 25 556 71 q 315 -21 435 -21 m 319 -168 q 292 -156 304 -168 q 281 -129 281 -144 q 292 -102 281 -114 q 319 -90 304 -90 q 347 -102 335 -90 q 358 -129 358 -114 q 347 -156 358 -144 q 319 -168 335 -168 z "},"ß":{"ha":819,"x_min":104,"x_max":736,"o":"m 446 -21 q 253 8 322 -21 l 253 42 q 340 18 297 25 q 446 11 383 11 q 631 87 561 11 q 700 283 700 163 q 615 470 700 408 q 413 532 531 532 l 363 532 l 363 565 l 421 565 q 545 627 496 565 q 594 786 594 689 q 531 942 594 882 q 369 1001 467 1001 q 208 938 272 1001 q 143 729 143 874 l 143 0 l 104 0 l 104 725 q 178 960 104 886 q 369 1033 251 1033 q 510 999 451 1033 q 600 909 569 965 q 631 786 631 853 q 593 638 631 699 q 490 551 556 576 q 665 471 593 538 q 736 283 736 404 q 704 130 736 199 q 607 20 672 61 q 446 -21 542 -21 z "},"ə":{"ha":843,"x_min":83,"x_max":760,"o":"m 422 -21 q 236 22 313 -21 q 122 140 160 65 q 83 313 83 215 l 83 347 l 725 347 q 635 576 725 497 q 389 656 544 656 q 263 644 325 656 q 154 614 201 632 l 154 647 q 260 676 193 664 q 389 688 328 688 q 663 594 567 688 q 760 333 760 501 q 672 74 760 169 q 422 -21 583 -21 m 422 11 q 649 97 574 11 q 725 315 725 183 l 118 315 q 194 94 118 178 q 422 11 269 11 z "},"t":{"ha":476,"x_min":56,"x_max":421,"o":"m 339 -21 q 211 25 257 -21 q 165 167 165 71 l 165 633 l 56 633 l 56 667 l 165 667 l 165 867 l 204 867 l 204 667 l 381 667 l 381 633 l 204 633 l 204 164 q 240 49 204 86 q 351 13 275 13 q 421 22 390 13 l 421 -12 q 339 -21 383 -21 z "},"ŧ":{"ha":478,"x_min":57,"x_max":422,"o":"m 340 -21 q 213 25 258 -21 q 167 167 167 71 l 167 353 l 57 353 l 57 386 l 167 386 l 167 633 l 57 633 l 57 667 l 167 667 l 167 867 l 206 867 l 206 667 l 382 667 l 382 633 l 206 633 l 206 386 l 381 386 l 381 353 l 206 353 l 206 164 q 241 49 206 86 q 353 13 276 13 q 422 22 392 13 l 422 -12 q 340 -21 385 -21 z "},"ť":{"ha":501,"x_min":56,"x_max":446,"o":"m 403 1075 l 446 1075 l 328 813 l 293 813 l 403 1075 m 339 -21 q 211 25 257 -21 q 165 167 165 71 l 165 633 l 56 633 l 56 667 l 165 667 l 165 867 l 204 867 l 204 667 l 381 667 l 381 633 l 204 633 l 204 164 q 240 49 204 86 q 351 13 275 13 q 421 22 390 13 l 421 -12 q 339 -21 383 -21 z "},"ţ":{"ha":493,"x_min":56,"x_max":438,"o":"m 303 -103 q 403 -139 369 -106 q 438 -225 438 -172 q 401 -312 438 -279 q 294 -344 364 -344 q 253 -341 275 -344 q 218 -333 231 -337 l 218 -300 q 253 -308 231 -306 q 294 -311 275 -311 q 401 -224 401 -311 q 369 -152 401 -175 q 254 -129 336 -129 l 297 -18 q 200 38 235 -7 q 165 167 165 83 l 165 633 l 56 633 l 56 667 l 165 667 l 165 867 l 204 867 l 204 667 l 381 667 l 381 633 l 204 633 l 204 164 q 240 49 204 86 q 351 13 275 13 q 421 22 390 13 l 421 -12 q 339 -21 383 -21 l 335 -21 l 303 -103 z "},"ț":{"ha":476,"x_min":56,"x_max":421,"o":"m 339 -21 q 211 25 257 -21 q 165 167 165 71 l 165 633 l 56 633 l 56 667 l 165 667 l 165 867 l 204 867 l 204 667 l 381 667 l 381 633 l 204 633 l 204 164 q 240 49 204 86 q 351 13 275 13 q 421 22 390 13 l 421 -12 q 339 -21 383 -21 m 293 -97 l 336 -97 l 218 -360 l 183 -360 l 293 -97 z "},"ẗ":{"ha":524,"x_min":56,"x_max":468,"o":"m 94 954 q 67 966 79 954 q 56 993 56 978 q 67 1020 56 1008 q 94 1032 79 1032 q 122 1020 110 1032 q 133 993 133 1008 q 122 966 133 978 q 94 954 110 954 m 369 954 q 342 966 354 954 q 331 993 331 978 q 342 1020 331 1008 q 369 1032 354 1032 q 397 1020 385 1032 q 408 993 408 1008 q 397 966 408 978 q 369 954 385 954 m 386 -21 q 258 25 304 -21 q 213 167 213 71 l 213 633 l 103 633 l 103 667 l 213 667 l 213 867 l 251 867 l 251 667 l 428 667 l 428 633 l 251 633 l 251 164 q 287 49 251 86 q 399 13 322 13 q 468 22 438 13 l 468 -12 q 386 -21 431 -21 z "},"ṭ":{"ha":476,"x_min":56,"x_max":421,"o":"m 339 -21 q 211 25 257 -21 q 165 167 165 71 l 165 633 l 56 633 l 56 667 l 165 667 l 165 867 l 204 867 l 204 667 l 381 667 l 381 633 l 204 633 l 204 164 q 240 49 204 86 q 351 13 275 13 q 421 22 390 13 l 421 -12 q 339 -21 383 -21 m 325 -168 q 298 -156 310 -168 q 286 -129 286 -144 q 298 -102 286 -114 q 325 -90 310 -90 q 352 -102 340 -90 q 364 -129 364 -114 q 352 -156 364 -144 q 325 -168 340 -168 z "},"ṯ":{"ha":497,"x_min":56,"x_max":442,"o":"m 349 -21 q 221 25 267 -21 q 175 167 175 71 l 175 633 l 65 633 l 65 667 l 175 667 l 175 867 l 214 867 l 214 667 l 390 667 l 390 633 l 214 633 l 214 164 q 249 49 214 86 q 361 13 285 13 q 431 22 400 13 l 431 -12 q 349 -21 393 -21 m 56 -119 l 442 -119 l 442 -153 l 56 -153 l 56 -119 z "},"u":{"ha":796,"x_min":104,"x_max":685,"o":"m 372 -21 q 172 48 239 -21 q 104 231 104 117 l 104 667 l 143 667 l 143 233 q 199 72 143 131 q 372 13 254 13 q 526 51 460 13 q 646 176 592 90 l 646 667 l 685 667 l 685 0 l 646 0 l 646 124 q 372 -21 549 -21 z "},"ú":{"ha":796,"x_min":104,"x_max":685,"o":"m 475 1013 l 514 1013 l 407 781 l 376 781 l 475 1013 m 372 -21 q 172 48 239 -21 q 104 231 104 117 l 104 667 l 143 667 l 143 233 q 199 72 143 131 q 372 13 254 13 q 526 51 460 13 q 646 176 592 90 l 646 667 l 685 667 l 685 0 l 646 0 l 646 124 q 372 -21 549 -21 z "},"ŭ":{"ha":796,"x_min":104,"x_max":685,"o":"m 393 781 q 275 824 321 781 q 229 931 229 867 l 263 931 q 298 846 263 879 q 393 813 333 813 q 488 846 453 813 q 524 931 524 879 l 557 931 q 511 824 557 867 q 393 781 465 781 m 372 -21 q 172 48 239 -21 q 104 231 104 117 l 104 667 l 143 667 l 143 233 q 199 72 143 131 q 372 13 254 13 q 526 51 460 13 q 646 176 592 90 l 646 667 l 685 667 l 685 0 l 646 0 l 646 124 q 372 -21 549 -21 z "},"ǔ":{"ha":796,"x_min":104,"x_max":685,"o":"m 204 990 l 247 990 l 397 811 l 547 990 l 590 990 l 413 781 l 382 781 l 204 990 m 372 -21 q 172 48 239 -21 q 104 231 104 117 l 104 667 l 143 667 l 143 233 q 199 72 143 131 q 372 13 254 13 q 526 51 460 13 q 646 176 592 90 l 646 667 l 685 667 l 685 0 l 646 0 l 646 124 q 372 -21 549 -21 z "},"û":{"ha":796,"x_min":104,"x_max":685,"o":"m 371 990 l 401 990 l 579 781 l 536 781 l 386 960 l 236 781 l 193 781 l 371 990 m 372 -21 q 172 48 239 -21 q 104 231 104 117 l 104 667 l 143 667 l 143 233 q 199 72 143 131 q 372 13 254 13 q 526 51 460 13 q 646 176 592 90 l 646 667 l 685 667 l 685 0 l 646 0 l 646 124 q 372 -21 549 -21 z "},"ü":{"ha":796,"x_min":104,"x_max":685,"o":"m 257 794 q 230 806 242 794 q 218 833 218 818 q 230 860 218 849 q 257 872 242 872 q 284 860 272 872 q 296 833 296 849 q 284 806 296 818 q 257 794 272 794 m 532 794 q 505 806 517 794 q 493 833 493 818 q 505 860 493 849 q 532 872 517 872 q 559 860 547 872 q 571 833 571 849 q 559 806 571 818 q 532 794 547 794 m 372 -21 q 172 48 239 -21 q 104 231 104 117 l 104 667 l 143 667 l 143 233 q 199 72 143 131 q 372 13 254 13 q 526 51 460 13 q 646 176 592 90 l 646 667 l 685 667 l 685 0 l 646 0 l 646 124 q 372 -21 549 -21 z "},"ǘ":{"ha":796,"x_min":104,"x_max":685,"o":"m 453 1044 l 492 1044 l 400 861 l 369 861 l 453 1044 m 258 796 q 231 808 243 796 q 219 835 219 819 q 231 862 219 850 q 258 874 243 874 q 285 862 274 874 q 297 835 297 850 q 285 808 297 819 q 258 796 274 796 m 533 796 q 506 808 518 796 q 494 835 494 819 q 506 862 494 850 q 533 874 518 874 q 560 862 549 874 q 572 835 572 850 q 560 808 572 819 q 533 796 549 796 m 372 -21 q 172 48 239 -21 q 104 231 104 117 l 104 667 l 143 667 l 143 233 q 199 72 143 131 q 372 13 254 13 q 526 51 460 13 q 646 176 592 90 l 646 667 l 685 667 l 685 0 l 646 0 l 646 124 q 372 -21 549 -21 z "},"ǚ":{"ha":796,"x_min":104,"x_max":685,"o":"m 229 1042 l 272 1042 l 396 889 l 519 1042 l 563 1042 l 411 858 l 381 858 l 229 1042 m 258 793 q 231 805 243 793 q 219 832 219 817 q 231 859 219 847 q 258 871 243 871 q 285 859 274 871 q 297 832 297 847 q 285 805 297 817 q 258 793 274 793 m 533 793 q 506 805 518 793 q 494 832 494 817 q 506 859 494 847 q 533 871 518 871 q 560 859 549 871 q 572 832 572 847 q 560 805 572 817 q 533 793 549 793 m 372 -21 q 172 48 239 -21 q 104 231 104 117 l 104 667 l 143 667 l 143 233 q 199 72 143 131 q 372 13 254 13 q 526 51 460 13 q 646 176 592 90 l 646 667 l 685 667 l 685 0 l 646 0 l 646 124 q 372 -21 549 -21 z "},"ǜ":{"ha":796,"x_min":104,"x_max":685,"o":"m 289 1044 l 328 1044 l 411 861 l 381 861 l 289 1044 m 247 796 q 220 808 232 796 q 208 835 208 819 q 220 862 208 850 q 247 874 232 874 q 274 862 263 874 q 286 835 286 850 q 274 808 286 819 q 247 796 263 796 m 522 796 q 495 808 507 796 q 483 835 483 819 q 495 862 483 850 q 522 874 507 874 q 549 862 538 874 q 561 835 561 850 q 549 808 561 819 q 522 796 538 796 m 372 -21 q 172 48 239 -21 q 104 231 104 117 l 104 667 l 143 667 l 143 233 q 199 72 143 131 q 372 13 254 13 q 526 51 460 13 q 646 176 592 90 l 646 667 l 685 667 l 685 0 l 646 0 l 646 124 q 372 -21 549 -21 z "},"ǖ":{"ha":796,"x_min":104,"x_max":685,"o":"m 200 1018 l 586 1018 l 586 985 l 200 985 l 200 1018 m 257 811 q 230 823 242 811 q 218 850 218 835 q 230 877 218 865 q 257 889 242 889 q 284 877 272 889 q 296 850 296 865 q 284 823 296 835 q 257 811 272 811 m 532 811 q 505 823 517 811 q 493 850 493 835 q 505 877 493 865 q 532 889 517 889 q 559 877 547 889 q 571 850 571 865 q 559 823 571 835 q 532 811 547 811 m 372 -21 q 172 48 239 -21 q 104 231 104 117 l 104 667 l 143 667 l 143 233 q 199 72 143 131 q 372 13 254 13 q 526 51 460 13 q 646 176 592 90 l 646 667 l 685 667 l 685 0 l 646 0 l 646 124 q 372 -21 549 -21 z "},"ụ":{"ha":796,"x_min":104,"x_max":685,"o":"m 372 -21 q 172 48 239 -21 q 104 231 104 117 l 104 667 l 143 667 l 143 233 q 199 72 143 131 q 372 13 254 13 q 526 51 460 13 q 646 176 592 90 l 646 667 l 685 667 l 685 0 l 646 0 l 646 124 q 372 -21 549 -21 m 404 -168 q 377 -156 389 -168 q 365 -129 365 -144 q 377 -102 365 -114 q 404 -90 389 -90 q 431 -102 419 -90 q 443 -129 443 -114 q 431 -156 443 -144 q 404 -168 419 -168 z "},"ù":{"ha":796,"x_min":104,"x_max":685,"o":"m 308 1013 l 347 1013 l 446 781 l 415 781 l 308 1013 m 372 -21 q 172 48 239 -21 q 104 231 104 117 l 104 667 l 143 667 l 143 233 q 199 72 143 131 q 372 13 254 13 q 526 51 460 13 q 646 176 592 90 l 646 667 l 685 667 l 685 0 l 646 0 l 646 124 q 372 -21 549 -21 z "},"ủ":{"ha":796,"x_min":104,"x_max":685,"o":"m 364 846 q 465 869 436 846 q 494 939 494 892 q 388 1026 494 1026 q 346 1024 368 1026 q 311 1015 324 1021 l 311 1049 q 346 1056 324 1053 q 388 1060 368 1060 q 494 1027 457 1060 q 531 940 531 994 q 496 855 531 888 q 396 819 461 822 l 396 758 l 364 758 l 364 846 m 372 -21 q 172 48 239 -21 q 104 231 104 117 l 104 667 l 143 667 l 143 233 q 199 72 143 131 q 372 13 254 13 q 526 51 460 13 q 646 176 592 90 l 646 667 l 685 667 l 685 0 l 646 0 l 646 124 q 372 -21 549 -21 z "},"ư":{"ha":918,"x_min":104,"x_max":863,"o":"m 372 -21 q 172 48 239 -21 q 104 231 104 117 l 104 667 l 143 667 l 143 233 q 199 72 143 131 q 372 13 254 13 q 526 51 460 13 q 646 176 592 90 l 646 667 l 685 667 l 685 599 q 788 635 746 599 q 829 724 829 672 l 829 775 l 863 775 l 863 724 q 838 646 863 682 q 773 588 814 610 q 685 567 732 567 l 685 0 l 646 0 l 646 124 q 372 -21 549 -21 z "},"ứ":{"ha":918,"x_min":104,"x_max":863,"o":"m 469 1013 l 508 1013 l 401 781 l 371 781 l 469 1013 m 372 -21 q 172 48 239 -21 q 104 231 104 117 l 104 667 l 143 667 l 143 233 q 199 72 143 131 q 372 13 254 13 q 526 51 460 13 q 646 176 592 90 l 646 667 l 685 667 l 685 599 q 788 635 746 599 q 829 724 829 672 l 829 775 l 863 775 l 863 724 q 838 646 863 682 q 773 588 814 610 q 685 567 732 567 l 685 0 l 646 0 l 646 124 q 372 -21 549 -21 z "},"ự":{"ha":918,"x_min":104,"x_max":863,"o":"m 372 -21 q 172 48 239 -21 q 104 231 104 117 l 104 667 l 143 667 l 143 233 q 199 72 143 131 q 372 13 254 13 q 526 51 460 13 q 646 176 592 90 l 646 667 l 685 667 l 685 599 q 788 635 746 599 q 829 724 829 672 l 829 775 l 863 775 l 863 724 q 838 646 863 682 q 773 588 814 610 q 685 567 732 567 l 685 0 l 646 0 l 646 124 q 372 -21 549 -21 m 393 -168 q 366 -156 378 -168 q 354 -129 354 -144 q 366 -102 354 -114 q 393 -90 378 -90 q 420 -102 408 -90 q 432 -129 432 -114 q 420 -156 432 -144 q 393 -168 408 -168 z "},"ừ":{"ha":918,"x_min":104,"x_max":863,"o":"m 285 1013 l 324 1013 l 422 781 l 392 781 l 285 1013 m 372 -21 q 172 48 239 -21 q 104 231 104 117 l 104 667 l 143 667 l 143 233 q 199 72 143 131 q 372 13 254 13 q 526 51 460 13 q 646 176 592 90 l 646 667 l 685 667 l 685 599 q 788 635 746 599 q 829 724 829 672 l 829 775 l 863 775 l 863 724 q 838 646 863 682 q 773 588 814 610 q 685 567 732 567 l 685 0 l 646 0 l 646 124 q 372 -21 549 -21 z "},"ử":{"ha":918,"x_min":104,"x_max":863,"o":"m 375 869 q 476 892 447 869 q 506 963 506 915 q 399 1050 506 1050 q 357 1047 379 1050 q 322 1039 335 1044 l 322 1072 q 357 1080 335 1076 q 399 1083 379 1083 q 505 1051 468 1083 q 542 964 542 1018 q 507 878 542 911 q 407 843 472 846 l 407 782 l 375 782 l 375 869 m 372 -21 q 172 48 239 -21 q 104 231 104 117 l 104 667 l 143 667 l 143 233 q 199 72 143 131 q 372 13 254 13 q 526 51 460 13 q 646 176 592 90 l 646 667 l 685 667 l 685 599 q 788 635 746 599 q 829 724 829 672 l 829 775 l 863 775 l 863 724 q 838 646 863 682 q 773 588 814 610 q 685 567 732 567 l 685 0 l 646 0 l 646 124 q 372 -21 549 -21 z "},"ữ":{"ha":918,"x_min":104,"x_max":863,"o":"m 146 826 q 271 889 183 889 q 328 881 301 889 q 394 854 356 872 q 457 828 431 838 q 513 819 483 819 q 581 836 550 819 q 638 894 613 853 l 638 849 q 513 786 600 786 q 449 795 478 786 q 383 822 419 804 q 324 847 349 839 q 271 856 300 856 q 203 839 233 856 q 146 781 174 822 l 146 826 m 372 -21 q 172 48 239 -21 q 104 231 104 117 l 104 667 l 143 667 l 143 233 q 199 72 143 131 q 372 13 254 13 q 526 51 460 13 q 646 176 592 90 l 646 667 l 685 667 l 685 599 q 788 635 746 599 q 829 724 829 672 l 829 775 l 863 775 l 863 724 q 838 646 863 682 q 773 588 814 610 q 685 567 732 567 l 685 0 l 646 0 l 646 124 q 372 -21 549 -21 z "},"ű":{"ha":796,"x_min":104,"x_max":685,"o":"m 344 1013 l 383 1013 l 276 781 l 246 781 l 344 1013 m 576 1013 l 615 1013 l 508 781 l 478 781 l 576 1013 m 372 -21 q 172 48 239 -21 q 104 231 104 117 l 104 667 l 143 667 l 143 233 q 199 72 143 131 q 372 13 254 13 q 526 51 460 13 q 646 176 592 90 l 646 667 l 685 667 l 685 0 l 646 0 l 646 124 q 372 -21 549 -21 z "},"ū":{"ha":796,"x_min":104,"x_max":685,"o":"m 208 860 l 594 860 l 594 826 l 208 826 l 208 860 m 372 -21 q 172 48 239 -21 q 104 231 104 117 l 104 667 l 143 667 l 143 233 q 199 72 143 131 q 372 13 254 13 q 526 51 460 13 q 646 176 592 90 l 646 667 l 685 667 l 685 0 l 646 0 l 646 124 q 372 -21 549 -21 z "},"ų":{"ha":800,"x_min":104,"x_max":717,"o":"m 653 -253 q 717 -242 690 -253 l 717 -275 q 653 -286 692 -286 q 572 -257 606 -286 q 539 -174 539 -228 q 569 -76 539 -122 q 646 0 599 -31 l 646 124 q 372 -21 549 -21 q 172 48 239 -21 q 104 231 104 117 l 104 667 l 143 667 l 143 233 q 199 72 143 131 q 372 13 254 13 q 526 51 460 13 q 646 176 592 90 l 646 667 l 685 667 l 685 0 q 575 -174 575 -85 q 597 -233 575 -212 q 653 -253 618 -253 z "},"ů":{"ha":796,"x_min":104,"x_max":685,"o":"m 400 781 q 311 818 349 781 q 274 907 274 856 q 311 997 274 960 q 400 1033 349 1033 q 490 997 453 1033 q 526 907 526 960 q 490 818 526 856 q 400 781 453 781 m 400 810 q 468 838 440 810 q 496 907 496 867 q 468 976 496 947 q 400 1004 440 1004 q 332 976 360 1004 q 304 907 304 947 q 333 838 304 867 q 400 810 361 810 m 372 -21 q 172 48 239 -21 q 104 231 104 117 l 104 667 l 143 667 l 143 233 q 199 72 143 131 q 372 13 254 13 q 526 51 460 13 q 646 176 592 90 l 646 667 l 685 667 l 685 0 l 646 0 l 646 124 q 372 -21 549 -21 z "},"ũ":{"ha":796,"x_min":104,"x_max":685,"o":"m 161 826 q 286 889 199 889 q 344 881 317 889 q 410 854 371 872 q 472 828 446 838 q 528 819 499 819 q 597 836 565 819 q 653 894 628 853 l 653 849 q 528 786 615 786 q 464 795 493 786 q 399 822 435 804 q 340 847 364 839 q 286 856 315 856 q 219 839 249 856 q 161 781 189 822 l 161 826 m 372 -21 q 172 48 239 -21 q 104 231 104 117 l 104 667 l 143 667 l 143 233 q 199 72 143 131 q 372 13 254 13 q 526 51 460 13 q 646 176 592 90 l 646 667 l 685 667 l 685 0 l 646 0 l 646 124 q 372 -21 549 -21 z "},"v":{"ha":728,"x_min":83,"x_max":644,"o":"m 83 667 l 122 667 l 364 58 l 606 667 l 644 667 l 379 0 l 349 0 l 83 667 z "},"w":{"ha":1064,"x_min":83,"x_max":981,"o":"m 83 667 l 121 667 l 314 43 l 507 667 l 557 667 l 750 43 l 943 667 l 981 667 l 772 0 l 729 0 l 532 640 l 335 0 l 292 0 l 83 667 z "},"ẃ":{"ha":1064,"x_min":83,"x_max":981,"o":"m 621 1013 l 660 1013 l 553 781 l 522 781 l 621 1013 m 83 667 l 121 667 l 314 43 l 507 667 l 557 667 l 750 43 l 943 667 l 981 667 l 772 0 l 729 0 l 532 640 l 335 0 l 292 0 l 83 667 z "},"ŵ":{"ha":1064,"x_min":83,"x_max":981,"o":"m 517 990 l 547 990 l 725 781 l 682 781 l 532 960 l 382 781 l 339 781 l 517 990 m 83 667 l 121 667 l 314 43 l 507 667 l 557 667 l 750 43 l 943 667 l 981 667 l 772 0 l 729 0 l 532 640 l 335 0 l 292 0 l 83 667 z "},"ẅ":{"ha":1064,"x_min":83,"x_max":981,"o":"m 394 794 q 367 806 379 794 q 356 833 356 818 q 367 860 356 849 q 394 872 379 872 q 422 860 410 872 q 433 833 433 849 q 422 806 433 818 q 394 794 410 794 m 669 794 q 642 806 654 794 q 631 833 631 818 q 642 860 631 849 q 669 872 654 872 q 697 860 685 872 q 708 833 708 849 q 697 806 708 818 q 669 794 685 794 m 83 667 l 121 667 l 314 43 l 507 667 l 557 667 l 750 43 l 943 667 l 981 667 l 772 0 l 729 0 l 532 640 l 335 0 l 292 0 l 83 667 z "},"ẁ":{"ha":1064,"x_min":83,"x_max":981,"o":"m 399 1013 l 438 1013 l 536 781 l 506 781 l 399 1013 m 83 667 l 121 667 l 314 43 l 507 667 l 557 667 l 750 43 l 943 667 l 981 667 l 772 0 l 729 0 l 532 640 l 335 0 l 292 0 l 83 667 z "},"x":{"ha":779,"x_min":83,"x_max":696,"o":"m 368 351 l 113 667 l 156 667 l 389 378 l 624 667 l 667 667 l 411 351 l 696 0 l 654 0 l 389 325 l 125 0 l 83 0 l 368 351 z "},"y":{"ha":738,"x_min":83,"x_max":682,"o":"m 179 -275 q 97 -267 135 -275 l 97 -232 q 171 -242 128 -242 q 263 -210 231 -242 q 322 -110 294 -179 l 368 8 l 83 667 l 122 667 l 388 58 l 643 667 l 682 667 l 357 -118 q 283 -237 324 -200 q 179 -275 243 -275 z "},"ý":{"ha":738,"x_min":83,"x_max":682,"o":"m 446 1013 l 485 1013 l 378 781 l 347 781 l 446 1013 m 179 -275 q 97 -267 135 -275 l 97 -232 q 171 -242 128 -242 q 263 -210 231 -242 q 322 -110 294 -179 l 368 8 l 83 667 l 122 667 l 388 58 l 643 667 l 682 667 l 357 -118 q 283 -237 324 -200 q 179 -275 243 -275 z "},"ŷ":{"ha":738,"x_min":83,"x_max":682,"o":"m 371 990 l 401 990 l 579 781 l 536 781 l 386 960 l 236 781 l 193 781 l 371 990 m 179 -275 q 97 -267 135 -275 l 97 -232 q 171 -242 128 -242 q 263 -210 231 -242 q 322 -110 294 -179 l 368 8 l 83 667 l 122 667 l 388 58 l 643 667 l 682 667 l 357 -118 q 283 -237 324 -200 q 179 -275 243 -275 z "},"ÿ":{"ha":738,"x_min":83,"x_max":682,"o":"m 242 794 q 215 806 226 794 q 203 833 203 818 q 215 860 203 849 q 242 872 226 872 q 269 860 257 872 q 281 833 281 849 q 269 806 281 818 q 242 794 257 794 m 517 794 q 490 806 501 794 q 478 833 478 818 q 490 860 478 849 q 517 872 501 872 q 544 860 532 872 q 556 833 556 849 q 544 806 556 818 q 517 794 532 794 m 179 -275 q 97 -267 135 -275 l 97 -232 q 171 -242 128 -242 q 263 -210 231 -242 q 322 -110 294 -179 l 368 8 l 83 667 l 122 667 l 388 58 l 643 667 l 682 667 l 357 -118 q 283 -237 324 -200 q 179 -275 243 -275 z "},"ẏ":{"ha":738,"x_min":83,"x_max":682,"o":"m 388 794 q 360 806 372 794 q 349 833 349 818 q 360 860 349 849 q 388 872 372 872 q 415 860 403 872 q 426 833 426 849 q 415 806 426 818 q 388 794 403 794 m 179 -275 q 97 -267 135 -275 l 97 -232 q 171 -242 128 -242 q 263 -210 231 -242 q 322 -110 294 -179 l 368 8 l 83 667 l 122 667 l 388 58 l 643 667 l 682 667 l 357 -118 q 283 -237 324 -200 q 179 -275 243 -275 z "},"ỵ":{"ha":738,"x_min":83,"x_max":682,"o":"m 179 -275 q 97 -267 135 -275 l 97 -232 q 171 -242 128 -242 q 263 -210 231 -242 q 322 -110 294 -179 l 368 8 l 83 667 l 122 667 l 388 58 l 643 667 l 682 667 l 357 -118 q 283 -237 324 -200 q 179 -275 243 -275 m 517 -168 q 490 -156 501 -168 q 478 -129 478 -144 q 490 -102 478 -114 q 517 -90 501 -90 q 544 -102 532 -90 q 556 -129 556 -114 q 544 -156 556 -144 q 517 -168 532 -168 z "},"ỳ":{"ha":738,"x_min":83,"x_max":682,"o":"m 279 1013 l 318 1013 l 417 781 l 386 781 l 279 1013 m 179 -275 q 97 -267 135 -275 l 97 -232 q 171 -242 128 -242 q 263 -210 231 -242 q 322 -110 294 -179 l 368 8 l 83 667 l 122 667 l 388 58 l 643 667 l 682 667 l 357 -118 q 283 -237 324 -200 q 179 -275 243 -275 z "},"ỷ":{"ha":738,"x_min":83,"x_max":682,"o":"m 361 868 q 463 891 433 868 q 492 961 492 914 q 385 1049 492 1049 q 343 1046 365 1049 q 308 1038 321 1043 l 308 1071 q 343 1078 321 1075 q 385 1082 365 1082 q 491 1049 454 1082 q 528 963 528 1017 q 493 877 528 910 q 393 842 458 844 l 393 781 l 361 781 l 361 868 m 179 -275 q 97 -267 135 -275 l 97 -232 q 171 -242 128 -242 q 263 -210 231 -242 q 322 -110 294 -179 l 368 8 l 83 667 l 122 667 l 388 58 l 643 667 l 682 667 l 357 -118 q 283 -237 324 -200 q 179 -275 243 -275 z "},"ỹ":{"ha":738,"x_min":83,"x_max":682,"o":"m 142 826 q 267 889 179 889 q 324 881 297 889 q 390 854 351 872 q 453 828 426 838 q 508 819 479 819 q 577 836 546 819 q 633 894 608 853 l 633 849 q 508 786 596 786 q 444 795 474 786 q 379 822 415 804 q 320 847 344 839 q 267 856 296 856 q 199 839 229 856 q 142 781 169 822 l 142 826 m 179 -275 q 97 -267 135 -275 l 97 -232 q 171 -242 128 -242 q 263 -210 231 -242 q 322 -110 294 -179 l 368 8 l 83 667 l 122 667 l 388 58 l 643 667 l 682 667 l 357 -118 q 283 -237 324 -200 q 179 -275 243 -275 z "},"z":{"ha":647,"x_min":83,"x_max":564,"o":"m 83 35 l 511 633 l 94 633 l 94 667 l 553 667 l 553 632 l 125 33 l 564 33 l 564 0 l 83 0 l 83 35 z "},"ź":{"ha":647,"x_min":83,"x_max":564,"o":"m 400 1013 l 439 1013 l 332 781 l 301 781 l 400 1013 m 83 35 l 511 633 l 94 633 l 94 667 l 553 667 l 553 632 l 125 33 l 564 33 l 564 0 l 83 0 l 83 35 z "},"ž":{"ha":647,"x_min":83,"x_max":564,"o":"m 150 990 l 193 990 l 343 811 l 493 990 l 536 990 l 358 781 l 328 781 l 150 990 m 83 35 l 511 633 l 94 633 l 94 667 l 553 667 l 553 632 l 125 33 l 564 33 l 564 0 l 83 0 l 83 35 z "},"ż":{"ha":647,"x_min":83,"x_max":564,"o":"m 332 794 q 305 806 317 794 q 293 833 293 818 q 305 860 293 849 q 332 872 317 872 q 359 860 347 872 q 371 833 371 849 q 359 806 371 818 q 332 794 347 794 m 83 35 l 511 633 l 94 633 l 94 667 l 553 667 l 553 632 l 125 33 l 564 33 l 564 0 l 83 0 l 83 35 z "},"ẓ":{"ha":647,"x_min":83,"x_max":564,"o":"m 83 35 l 511 633 l 94 633 l 94 667 l 553 667 l 553 632 l 125 33 l 564 33 l 564 0 l 83 0 l 83 35 m 333 -168 q 306 -156 318 -168 q 294 -129 294 -144 q 306 -102 294 -114 q 333 -90 318 -90 q 360 -102 349 -90 q 372 -129 372 -114 q 360 -156 372 -144 q 333 -168 349 -168 z "},"ﬁ":{"ha":732,"x_min":56,"x_max":621,"o":"m 165 633 l 56 633 l 56 667 l 165 667 l 165 846 q 224 986 165 939 q 367 1033 282 1033 q 449 1025 411 1033 l 449 990 q 379 1000 418 1000 q 251 962 299 1000 q 204 849 204 924 l 204 667 l 604 667 l 604 0 l 565 0 l 565 633 l 204 633 l 204 0 l 165 0 l 165 633 m 585 839 q 560 850 571 839 q 549 875 549 861 q 560 901 549 890 q 585 911 571 911 q 610 901 600 911 q 621 875 621 890 q 610 850 621 861 q 585 839 600 839 z "},"ﬂ":{"ha":715,"x_min":56,"x_max":604,"o":"m 165 633 l 56 633 l 56 667 l 165 667 l 165 846 q 224 986 165 939 q 367 1033 282 1033 q 449 1025 411 1033 l 449 990 q 379 1000 418 1000 q 251 962 299 1000 q 204 849 204 924 l 204 667 l 565 667 l 565 933 l 604 933 l 604 0 l 565 0 l 565 633 l 204 633 l 204 0 l 165 0 l 165 633 z "},"ª":{"ha":582,"x_min":83,"x_max":499,"o":"m 264 485 q 133 524 183 485 q 83 635 83 563 q 131 750 83 711 q 263 789 178 789 q 460 743 376 789 l 460 815 q 419 924 460 889 q 292 958 379 958 q 142 929 214 958 l 142 964 q 212 984 171 976 q 292 992 253 992 q 447 946 396 992 q 499 814 499 900 l 499 500 l 463 500 l 463 567 q 264 485 396 485 m 268 518 q 386 543 338 518 q 460 614 435 568 l 460 710 q 368 744 414 733 q 264 756 322 756 q 119 635 119 756 q 158 549 119 579 q 268 518 196 518 z "},"º":{"ha":665,"x_min":83,"x_max":582,"o":"m 333 485 q 206 517 263 485 q 116 606 149 549 q 83 738 83 663 q 116 870 83 813 q 206 960 149 928 q 333 992 263 992 q 460 960 404 992 q 549 870 517 928 q 582 738 582 813 q 549 606 582 664 q 460 517 517 549 q 333 485 404 485 m 333 518 q 488 578 428 518 q 547 738 547 638 q 488 898 547 838 q 333 958 428 958 q 179 898 239 958 q 119 738 119 838 q 179 578 119 638 q 333 518 239 518 z "},"ⁿ":{"ha":611,"x_min":90,"x_max":528,"o":"m 90 971 l 129 971 l 129 888 q 222 967 168 943 q 335 992 275 992 q 478 944 429 992 q 528 817 528 896 l 528 500 l 489 500 l 489 806 q 453 919 489 879 q 335 958 417 958 q 129 842 207 958 l 129 500 l 90 500 l 90 971 z "},"Δ":{"ha":944,"x_min":83,"x_max":861,"o":"m 83 35 l 444 992 l 500 992 l 861 35 l 861 0 l 83 0 l 83 35 m 822 33 l 472 965 l 121 33 l 822 33 z "},"Ω":{"ha":1150,"x_min":83,"x_max":1067,"o":"m 83 33 l 357 33 q 156 224 228 106 q 85 506 85 342 q 146 751 85 640 q 319 927 207 863 q 575 992 431 992 q 831 927 719 992 q 1004 751 943 863 q 1065 506 1065 640 q 994 224 1065 342 q 793 33 922 106 l 1067 33 l 1067 0 l 726 0 l 726 29 q 957 228 885 111 q 1029 506 1029 346 q 971 738 1029 635 q 809 899 913 840 q 575 958 706 958 q 341 899 444 958 q 179 738 238 840 q 121 506 121 635 q 193 228 121 346 q 424 29 265 111 l 424 0 l 83 0 l 83 33 z "},"μ":{"ha":803,"x_min":111,"x_max":692,"o":"m 111 667 l 150 667 l 150 229 q 205 69 150 126 q 379 13 260 13 q 533 51 467 13 q 653 176 599 90 l 653 667 l 692 667 l 692 0 l 653 0 l 653 124 q 379 -21 556 -21 q 239 6 296 -21 q 150 83 182 33 l 150 -304 l 111 -304 l 111 667 z "},"π":{"ha":975,"x_min":69,"x_max":906,"o":"m 824 -21 q 664 153 664 -21 l 664 633 l 268 633 l 268 0 l 229 0 l 229 633 l 69 633 l 69 667 l 863 667 l 863 633 l 703 633 l 703 150 q 734 45 703 78 q 836 13 765 13 q 906 22 875 13 l 906 -12 q 824 -21 868 -21 z "},"ก":{"ha":851,"x_min":83,"x_max":740,"o":"m 153 492 l 83 596 q 231 722 149 679 q 436 764 314 764 q 663 694 585 764 q 740 497 740 625 l 740 0 l 701 0 l 701 492 q 635 672 701 614 q 436 731 568 731 q 261 699 333 731 q 126 596 189 668 l 192 497 l 192 0 l 153 0 l 153 492 z "},"ถ":{"ha":851,"x_min":83,"x_max":740,"o":"m 268 0 q 183 31 213 0 q 153 117 153 61 l 153 492 l 83 596 q 231 722 149 679 q 436 764 314 764 q 663 694 585 764 q 740 497 740 625 l 740 0 l 701 0 l 701 492 q 635 672 701 614 q 436 731 568 731 q 261 699 333 731 q 126 596 189 668 l 192 497 l 192 114 q 213 51 192 69 q 279 33 233 33 l 350 33 l 350 0 l 268 0 z "},"ภ":{"ha":899,"x_min":83,"x_max":788,"o":"m 83 33 l 140 33 q 207 51 186 33 q 228 114 228 69 l 228 492 l 131 596 q 278 722 196 679 q 483 764 361 764 q 710 694 632 764 q 788 497 788 625 l 788 0 l 749 0 l 749 492 q 483 731 749 731 q 308 700 381 731 q 174 597 235 669 l 267 499 l 267 117 q 237 31 267 61 q 151 0 207 0 l 83 0 l 83 33 z "},"ฤ":{"ha":851,"x_min":83,"x_max":740,"o":"m 701 492 q 635 672 701 614 q 436 731 568 731 q 261 699 333 731 q 126 596 189 668 l 192 497 l 192 114 q 213 51 192 69 q 279 33 233 33 l 350 33 l 350 0 l 268 0 q 183 31 213 0 q 153 117 153 61 l 153 492 l 83 596 q 231 722 149 679 q 436 764 314 764 q 663 694 585 764 q 740 497 740 625 l 740 -272 l 701 -272 l 701 492 z "},"ฦ":{"ha":899,"x_min":83,"x_max":788,"o":"m 749 492 q 483 731 749 731 q 308 700 381 731 q 174 597 235 669 l 267 499 l 267 117 q 237 31 267 61 q 151 0 207 0 l 83 0 l 83 33 l 140 33 q 207 51 186 33 q 228 114 228 69 l 228 492 l 131 596 q 278 722 196 679 q 483 764 361 764 q 710 694 632 764 q 788 497 788 625 l 788 -272 l 749 -272 l 749 492 z "},"ฎ":{"ha":899,"x_min":83,"x_max":788,"o":"m 293 -271 q 381 -213 319 -237 q 503 -189 443 -189 q 749 -272 639 -189 l 749 492 q 682 672 749 614 q 483 731 615 731 q 308 699 381 731 q 174 596 236 668 l 267 497 l 267 117 q 237 31 267 61 q 151 0 207 0 l 83 0 l 83 33 l 140 33 q 207 51 186 33 q 228 114 228 69 l 228 492 l 131 596 q 278 722 196 679 q 483 764 361 764 q 710 694 632 764 q 788 497 788 625 l 788 -307 l 749 -307 q 625 -240 679 -258 q 503 -222 571 -222 q 387 -246 443 -222 q 293 -311 331 -269 l 293 -271 z "},"ฏ":{"ha":899,"x_min":83,"x_max":788,"o":"m 335 -311 q 261 -301 299 -311 q 203 -276 224 -292 l 203 -242 q 265 -268 229 -258 q 335 -278 300 -278 q 449 -247 410 -278 q 504 -146 488 -217 l 543 -146 l 749 -271 l 749 492 q 483 731 749 731 q 308 700 381 731 q 174 597 235 669 l 267 499 l 267 117 q 237 31 267 61 q 151 0 207 0 l 83 0 l 83 33 l 140 33 q 207 51 186 33 q 228 114 228 69 l 228 492 l 131 596 q 278 722 196 679 q 483 764 361 764 q 710 694 632 764 q 788 497 788 625 l 788 -307 l 749 -307 l 531 -174 q 459 -279 507 -247 q 335 -311 411 -311 z "},"ญ":{"ha":1379,"x_min":83,"x_max":1274,"o":"m 978 -136 q 844 -118 914 -136 q 740 -72 774 -100 l 740 -37 q 851 -86 788 -69 q 978 -103 914 -103 q 1168 -64 1099 -103 q 1238 54 1238 -25 q 1226 115 1238 89 q 1189 164 1215 142 q 971 90 1111 90 q 749 167 825 90 q 674 378 674 244 l 674 492 q 611 673 674 615 q 422 731 549 731 q 257 699 325 731 q 126 596 189 668 l 192 497 l 192 114 q 213 51 192 69 q 279 33 233 33 l 350 33 l 350 0 l 268 0 q 183 31 213 0 q 153 117 153 61 l 153 492 l 83 596 q 227 722 149 681 q 422 764 306 764 q 639 694 565 764 q 713 497 713 625 l 713 371 q 776 190 713 257 q 971 124 840 124 q 1165 190 1101 124 q 1229 371 1229 257 l 1229 743 l 1268 743 l 1268 378 q 1211 189 1268 263 q 1274 54 1274 136 q 1195 -88 1274 -40 q 978 -136 1117 -136 z "},"ข":{"ha":750,"x_min":83,"x_max":639,"o":"m 364 -21 q 162 49 235 -21 q 89 247 89 118 l 89 343 q 109 421 89 385 q 168 506 129 457 q 217 576 201 549 q 233 632 233 603 q 213 692 233 675 q 146 710 192 710 l 83 710 l 83 743 l 154 743 q 240 715 211 743 q 269 632 269 688 q 252 569 269 600 q 200 492 235 538 q 146 413 164 444 q 128 346 128 381 l 128 239 q 189 72 128 131 q 364 13 250 13 q 539 72 478 13 q 600 239 600 131 l 600 743 l 639 743 l 639 247 q 566 49 639 118 q 364 -21 493 -21 z "},"ฃ":{"ha":744,"x_min":83,"x_max":633,"o":"m 358 -21 q 156 49 229 -21 q 83 247 83 118 l 83 343 q 105 420 83 385 q 169 506 126 456 q 223 576 206 549 q 240 632 240 603 l 240 636 q 168 617 211 617 q 106 638 128 617 q 83 696 83 658 l 83 743 l 122 743 l 122 700 q 134 661 122 672 q 178 650 146 650 q 240 669 214 650 l 240 743 l 276 743 l 276 629 q 258 567 276 597 q 200 490 239 536 q 142 413 163 446 q 122 346 122 381 l 122 239 q 183 72 122 131 q 358 13 244 13 q 533 72 472 13 q 594 239 594 131 l 594 743 l 633 743 l 633 247 q 560 49 633 118 q 358 -21 488 -21 z "},"ช":{"ha":788,"x_min":83,"x_max":690,"o":"m 379 -21 q 169 50 249 -21 q 89 249 89 121 l 89 351 q 109 430 89 394 q 171 517 129 465 q 218 581 203 556 q 233 632 233 606 q 213 692 233 675 q 146 710 192 710 l 83 710 l 83 743 l 154 743 q 240 715 211 743 q 269 632 269 688 q 252 572 269 601 q 201 500 235 542 q 146 419 164 451 q 128 351 128 388 l 128 240 q 196 73 128 133 q 379 13 264 13 q 578 78 501 13 q 654 275 654 144 q 599 461 654 394 q 443 528 543 528 l 443 556 l 610 764 l 657 764 l 490 556 q 641 464 592 540 q 690 275 690 388 q 603 52 690 125 q 379 -21 517 -21 z "},"ซ":{"ha":782,"x_min":83,"x_max":685,"o":"m 374 -21 q 163 50 243 -21 q 83 249 83 121 l 83 343 q 105 420 83 385 q 169 506 126 456 q 223 576 206 549 q 240 632 240 603 l 240 636 q 168 617 211 617 q 106 638 128 617 q 83 696 83 658 l 83 743 l 122 743 l 122 700 q 134 661 122 672 q 178 650 146 650 q 240 669 214 650 l 240 743 l 276 743 l 276 629 q 257 565 276 597 q 200 489 238 533 q 142 410 161 442 q 122 343 122 378 l 122 240 q 190 73 122 133 q 374 13 258 13 q 572 78 496 13 q 649 275 649 144 q 593 461 649 394 q 438 528 538 528 l 438 556 l 604 764 l 651 764 l 485 556 q 635 464 586 540 q 685 275 685 388 q 598 52 685 125 q 374 -21 511 -21 z "},"ค":{"ha":850,"x_min":111,"x_max":739,"o":"m 111 490 q 193 692 111 621 q 425 764 275 764 q 657 692 575 764 q 739 490 739 621 l 739 0 l 700 0 l 700 490 q 626 671 700 611 q 425 731 553 731 q 224 671 297 731 q 150 490 150 611 l 150 278 q 222 356 172 325 q 339 386 272 386 l 444 386 l 444 353 l 332 353 q 242 328 283 353 q 175 264 200 303 q 150 185 150 225 l 150 0 l 111 0 l 111 490 z "},"ฅ":{"ha":850,"x_min":111,"x_max":739,"o":"m 111 564 q 278 764 111 764 q 370 738 332 764 q 424 663 408 711 l 425 663 q 478 738 440 711 q 572 764 517 764 q 739 564 739 764 l 739 0 l 700 0 l 700 563 q 672 689 700 647 q 572 731 643 731 q 488 705 519 731 q 443 624 457 679 l 406 624 q 360 706 390 681 q 278 731 331 731 q 178 689 207 731 q 150 564 150 647 l 150 278 q 222 356 172 325 q 339 386 272 386 l 444 386 l 444 353 l 332 353 q 242 328 283 353 q 175 264 200 303 q 150 185 150 225 l 150 0 l 111 0 l 111 564 z "},"ศ":{"ha":860,"x_min":111,"x_max":749,"o":"m 111 490 q 193 692 111 621 q 425 764 275 764 q 628 714 550 764 l 706 799 l 749 799 l 653 694 q 739 490 739 624 l 739 0 l 700 0 l 700 490 q 626 671 700 611 q 425 731 553 731 q 224 671 297 731 q 150 490 150 611 l 150 278 q 222 356 172 325 q 339 386 272 386 l 444 386 l 444 353 l 332 353 q 242 328 283 353 q 175 264 200 303 q 150 185 150 225 l 150 0 l 111 0 l 111 490 z "},"ด":{"ha":896,"x_min":83,"x_max":785,"o":"m 419 -21 q 173 78 263 -21 q 83 358 83 176 q 181 656 83 549 q 454 764 279 764 q 708 680 632 764 q 785 474 785 596 l 785 0 l 746 0 l 746 475 q 676 663 746 594 q 454 731 606 731 q 208 633 296 731 q 119 358 119 536 q 199 101 119 190 q 419 13 279 13 q 472 15 443 13 q 519 22 501 18 l 519 -10 q 473 -17 503 -14 q 419 -21 443 -21 z "},"ต":{"ha":896,"x_min":83,"x_max":785,"o":"m 419 -21 q 173 78 263 -21 q 83 358 83 176 q 113 575 83 483 q 195 715 142 667 q 319 764 249 764 q 412 738 378 764 q 464 663 446 713 l 465 663 q 524 737 481 710 q 622 764 567 764 q 746 710 707 764 q 785 564 785 657 l 785 0 l 746 0 l 746 563 q 717 688 746 646 q 622 731 689 731 q 483 624 511 731 l 444 624 q 401 706 429 681 q 319 731 372 731 q 218 686 264 731 q 146 558 172 642 q 119 358 119 474 q 199 101 119 190 q 419 13 279 13 q 472 15 443 13 q 519 22 501 18 l 519 -10 q 473 -17 503 -14 q 419 -21 443 -21 z "}}}
